<mxfile host="app.diagrams.net" modified="2023-08-14T06:41:52.303Z" agent="Mozilla/5.0 (Windows NT 10.0; Win64; x64) AppleWebKit/537.36 (KHTML, like Gecko) Chrome/115.0.0.0 Safari/537.36" etag="yalfUa4XPegg2Qm196qW" version="21.6.7" type="github">
  <diagram name="Page-1" id="S4pLoth3lDWCldQ0_hmS">
    <mxGraphModel dx="1644" dy="734" grid="1" gridSize="10" guides="1" tooltips="1" connect="1" arrows="1" fold="1" page="1" pageScale="1" pageWidth="850" pageHeight="1100" math="0" shadow="0">
      <root>
        <mxCell id="0" />
        <mxCell id="1" parent="0" />
        <mxCell id="NyZ2p4l8XGoLrlmHf86C-1" value="" style="rounded=0;whiteSpace=wrap;html=1;imageAspect=0;" parent="1" vertex="1">
          <mxGeometry x="-820" y="40" width="190" height="370" as="geometry" />
        </mxCell>
        <mxCell id="NyZ2p4l8XGoLrlmHf86C-2" value="" style="shape=image;imageAspect=0;aspect=fixed;verticalLabelPosition=bottom;verticalAlign=top;image=data:image/jpeg,/9j/4AAQSkZJRgABAQEAYABgAAD/2wBDAAoHBwkHBgoJCAkLCwoMDxkQDw4ODx4WFxIZJCAmJSMgIyIoLTkwKCo2KyIjMkQyNjs9QEBAJjBGS0U+Sjk/QD3/2wBDAQsLCw8NDx0QEB09KSMpPT09PT09PT09PT09PT09PT09PT09PT09PT09PT09PT09PT09PT09PT09PT09PT09PT3/wAARCAQABAADASIAAhEBAxEB/8QAHwAAAQUBAQEBAQEAAAAAAAAAAAECAwQFBgcICQoL/8QAtRAAAgEDAwIEAwUFBAQAAAF9AQIDAAQRBRIhMUEGE1FhByJxFDKBkaEII0KxwRVS0fAkM2JyggkKFhcYGRolJicoKSo0NTY3ODk6Q0RFRkdISUpTVFVWV1hZWmNkZWZnaGlqc3R1dnd4eXqDhIWGh4iJipKTlJWWl5iZmqKjpKWmp6ipqrKztLW2t7i5usLDxMXGx8jJytLT1NXW19jZ2uHi4+Tl5ufo6erx8vP09fb3+Pn6/8QAHwEAAwEBAQEBAQEBAQAAAAAAAAECAwQFBgcICQoL/8QAtREAAgECBAQDBAcFBAQAAQJ3AAECAxEEBSExBhJBUQdhcRMiMoEIFEKRobHBCSMzUvAVYnLRChYkNOEl8RcYGRomJygpKjU2Nzg5OkNERUZHSElKU1RVVldYWVpjZGVmZ2hpanN0dXZ3eHl6goOEhYaHiImKkpOUlZaXmJmaoqOkpaanqKmqsrO0tba3uLm6wsPExcbHyMnK0tPU1dbX2Nna4uPk5ebn6Onq8vP09fb3+Pn6/9oADAMBAAIRAxEAPwD2UUtIKWgApKWigBKKKKACjmiigA5ooooAKKKKACiiigAooooAKKKKACiiigAooooAKSlooASjmlooASloooAKKKKACiiigAooooAKKKKACiiigAooooAKKKKADmiiigBOaXmiigBOaWiigBOaOaWigBOaKWigBKWiigAooooAKKKKACiiigAooooAKKKKACiiigAooooAKKKKACiiigAooooAKKKKACiiloASilooASilpKACiiloAKKKKAEopaSgAooooAKKKKACiiigAooooAKKKKACiiigAooooAKKKKACiiigAooooAKKKKACiiigAopaSgAooooAKKKKACiijNABRRRQAlFLRmgBKKKKQBS0lFAC0tJS0wCkoooEFFFFIAooooAKKKKYBRRRQAUUUUAFFFFABRRRQAUUUUAFFFFABRRRSAKKKKACiiigAooopgFFFFIAooooAKKKKACiiigAooopgFFFFABRRRSAKKKKACiiigAooooAKKKKACiiigAooooAKKKKACiiimAUUUUAFFFFIAooooAKKKKACiiigAooooAKKKKACiiigAooopgFFFFABRRRSAKKKKACiiimAUUUUgCiiimAUUUUAFFFFIAooooAKKKKACiiigAooopgFFFFIAooooAKKKKACiiigAooopgFFFFABRRRQAUUUUAFFFFABRRRQAUlLSUAFFFFIAopaKAClpKWmMQ0UUUCCiiikAUUUUAFFFFABRRRTAKKKKACiiigAooopAFFFFABRRRQAUUUUAFFFFABRRRQAUUUUAFFFFABRRRQAUUUUAFFFFABRRRTAKKKKACiiikAUUUUAFFFFABRRRQAUUUUAFFFFABRRRTAKKKKACiiigAooooAKKKKACiiikAUUUUAFFFFABRRRQAUUUUAFFFFABRRRQAUUUUAFFFFABRRRQAUUUUwCiiikAUUUUwCiiigAooopAFFFFABRRRQAUUUUwCiiikAUUUUAFFFFMAooopAFFFFABRRRTAKKKKACiiikAUUUUwCiiikAUUUUAFFFFMBKWiigAooopAApaQUtMYlFBooEFFFFIAooooAKKKKYBRRRSAKKKKACiiimAUUUUgCiiigAooooAKKKKACiiigAooooAKKKKYBRRRSAKKKKACiiigAooopgFFFFABRRRSAKKKKACiiigAooooAKKKKACiiigAooooAKKKKACiiigAooopgFFFFABRRRQAUUUUgCiiigAooooAKKKKACiiigAooooAKKKKACiiigAooopgFFFFIAooooAKKKKACiiigAooooAKKKKACiiimAUUUUAFFFFABRRRSAKKKKACiiimAUUUUgCiiigAooooAKKKKYBRRRSAKKKKYBRRRQAUUUUAFFFJQAUtJS0AFFFFIAFLSUtMYhooooEFFFFABRRRQAUUUUAFFFFIAooooAKKKKYBRRRSAKKKKACiiigAooooAKKKKYBRRRQAUUUUgCiiigAooooAKKKKACiiimAUUUUAFFFFABRRRSAKKKKACiiigAooooAKKKKACiiigAooooAKKKKACiiigAooopgFFFFABRRRQAUUUUAFFFFIAooooAKKKKYBRRRSAKKKKACiiigAooopgFFFFIAooopgFFFFIAooooAKKKKACiiigAooooAKKKKYBRRRSAKKKKACiiigAooooAKKKKACiiigAooooAKKKKACiiimAUUUUAFFFFABRRRQAUUUUgEooopgLRRRQAUtJS0DEooNFAgooopAFFFFABRRRQAUUUUAFFFFMAooooAKKKKQBRRRQAUUUUAFFFFABRRRTAKKKKQBRRRQAUUUUAFFFFMAooopAFFFFMAooooAKKKKACiiikAUUUUAFFFFABRRRQAUUUUAFFFFABRRRTAKKKKQBRRRQAUUUUAFFFFABRRRTAKKKKQBRRRQAUUUUAFFFFABRRRQAUUUUAFFFFABRRRTAKKKKQBRRRTAKKKKQBRRRQAUUUUAFFFFABRRRQAUUUUAFFFFABRRRQAUUUUAFFFFABRRRQAUUUUAFFFFABRRRQAUUUUwCiiigAooopAFFFFABRRRQAUUUUAFFFFAAKWkFLTGJRRRQIKKKKQBRRRQAUUUUAFFFFABRRRTAKKKKACiiigAooopAFFFFABRRRTAKKKKACiiikAUUUUAFFFFABRRRQAUUUUwCiiikAUUUUAFFFFABRRRQAUUUUAFFFFABRRRQAUUUUAFFFFABRRRQAUUUUAFFFFABRRRQAUUUUAFFFFABRRRQAUUUUAFFFFABRRRQAUUUUAFFFFABRRRQAUUUUwCiiikAUUUUAFFFFABRRRQAUUUUAFFFFABRRRQAUUUUAFFFFABRRRQAUUUUAFFFFABRRRQAUUUUAFFFFABRRRQAUUUUAFFFFABRRRQAUUUUAFFFFABRRRQAUUUUAFLRRTGJRRRQIKKKKQBRRRQAUUUUAFFFFABRRRTAKKKKACiiigAooooAKKKKACiiigAooooAKKKKQBRRRQAUUUUAFFFFABRRRQAUUUUAFFFFABRRRQAUUUUAFFFFABRRRQAUUUUAFFFFABRRRQAUUUUAFFFFABRRRQAUUUUAFFFFABRRRQAUUUUAFFFFABRRRQAUUUUAFFFFABRRRQAUUUUwCiiikAUUUUAFFFFABRRRQAUUUUAFFFFABRRRQAUUUUAFFFFABRRRQAUUUUAFFFFABRRRQAUUUUAFFFFABRRRQAUUUUAFFFFMAooooAKKKKACiiikAUUUUwCiiikAUUUUAFLRRTGJRRRQIKKKKQBRRRQAUUUUAFFFFABRRRQAUUUUwCiiigAooooAKKKKQBRRRTAKKKKACiiikAUUUUAFFFFABRRRQAUUUUAFFFFABRRRQAUUUUAFFFFABRRRQAUUUUAFFFFABRRRQAUUUUAFFFFAC0UlFMYUUxmVBlyFGcZJrIuvFuhWi7pdWtD7Rv5h/JcmnZvYlyjHd2NmiuYf4h+HFHy3zuRnhYH+vdR9Pxqi3xT0cD5bTUGOP7iD/wBmqlSm9kZPEUlvJHa5orz6f4sW4x9m0qZ/XzJgmPyDZqlL8Vrxl/c6bbxt3LyMw/LirWHqPoZvGUV9o9PpM15RL8T9ZcHy4LGPPQ+W5P8A6Fj9KY/xM11kKhLJCf4lhbI/NiP0prDVCfr9H+ketZoryNfiTryxhCbRj/fMPJ/I4/Sj/hZWvd/sh+sJ/wAaf1SfkL+0KPmeuUZryT/hZeu+ln/35P8AjUkHxP1iNWE0FpMxOVO1lx+APNH1WoNY+i2er0V5pB8WLlIwLjSYpHz96OcoMfQqf51Zg+LELP8A6TpUkcf96OcOfyIX+dQ6FRdC1jKL+1+Z6FRXEj4raNgFrXUAccgRoRn67q0rb4geHbkov9oCJ2H3ZY2XH1ONv61LpzW6NVXpvaSOloxVO01awv2K2V9a3DDqIZlcj8j7VcqNUaJphiilooGJRS0lAgooopAFFFFABRRRQAUUUUAFFFFABRRRQAUUUUAFFFFABRRRQAUUUUAFFFFABRRRQAUUUUAFFFFABRRRQAUUUUAFFFFMAooooAKKKKACiiigAooopAFFFFABRSUtMAooopAFLSUtMYhooooEFFFFIAooooAKKKKACiiigAooooAKKKKYBRRRSAKKKKACiiigAooopgFFFFIAooooAKKKKACiiigAooooAKKKKACiiigAooooAKKKKYBRRRSAKKKKACiiigAooooAKTmlrP1HWdP0iPdqF5Db8ZCu3zMPZep/AU0rg2krsv0da4bU/ilp8BKaZbTXbdnY+Wn/AMUfoQK5HUvH2vaipQXQtIyACtsuw/8AfWS35GtoYecvI5amMpQ639D1291G002ISX11Dbqc4MsgXOOuPU+wrmr74maHbL/oxuLxiCR5Ue0A9gS2D+IBryNizuXclnY5LMckn60ldEcIurOOeYzfwqx3l18WL2QD7FptvCRnJmkMmfy24/WsK88b+IL4MJNReJGbO2BRHt9gwAbH1JrCGKWt40Ka6HLPFVZbsWZ5LmVpbh3lkY5LyMWY/Unk00KB0ApworXlSOdybExRS4oxQSJS0YopAFGaKKYBmjNFFMAoozRQAUUUYpAGKTaKWigeo0xBuMAir1lrOp6ZsFlqFzCkZysayHZn/dPyn8RVOiplFPdFRqSi7pnXWPxM1m12Ldpb3iAncxTy3I9ARwPyNbtn8V7F1/07T7mBs4HlMsox6knaf0NeZ0c1i8PB9Dphja0etz26z8Y6Df58jVLcYOMSsYyT7BgM/hW0CGGR0NfOzKD1q1p+qX2kvu0+8mtyW3EIx2sfdeh/EVjLCdmdUMy/nX3H0DRXlmlfFG9twseqWyXSjAMsRCP7kj7pP0212GmeOtC1QKEvRbykf6u5Hlke2T8p/AmsJUpx3R208TSqbM6OijPHtS1kbiUUtJQAUUUUgCiiigAooooAKKKKACiiigAooooAKKKKACiiigAooooAKKKKACiiigAooooAKKKKACiiigAooopgFFFFABRRRSAKKKKACiiigBKBRRTAWiiikAUtJS0xiUUUUhBRRRQAUUUUAFFFFABRRRQAUUUUAFFFFABRRRTAKKKKQBRRRQAUUUUAFFFFABRRRQAUUUUAFFFFABRRRQAUUUUAFFFFMAooopAFFFFMAooooAKKKKQCdqKr3l9bWFuZ7y4jgiXq8jADPp9fYVxOtfE6CItFo0Bnb/nvKCqfUL1P44/GtIU5SeiMqlaFNXkzu5ZUgiaSV1jjQZZnOAB6kmuV1f4jaPp25LVmv5gSMQ8ICPVj1HuoavMdU1rUNak36hdyTYOQhOEX6KOB+AqhXXDBreTPPqZi3pTR1GrfELWdT3JBItlCeNsH3iPdjz+WPpXLNl3ZmJZ2OSzHJJ+tLSV1RhGK0VjgnVnN+8wooxRirMwpaKMUgAU4UIDI4RAWc8BVBJP4CtO38N6tcrujsJVXOP3hEf6MQaV0hPzMwUtdND4Ev2Yedc2sa99pZyPwIA/Wr0PgGJW/0jUJHX0jjCH9S1LnRDnFdTjMUmK9Ah8FaXF/rBPN/vyEf+g4q7F4d0mEfLYQn/rou/8A9CzS50T7WJ5iWA6kCgEN90g/Q5r1iOxtYF2w20Ea+ixKB+gqcEjgcD0FLnF7ZdjyeKxurgEwWs8o9Y4mb+QqUaNqbYH9nXn4wOP5ivU8k9aKXMxe28jy1tF1NSQdPvM+0DH+lA0XUz/zD7z/AL8P/hXqVLmjnYe18jyl9MvkO1rK6BxnBhccflUDxtEcSAofRhj+deu5I6GjJPUmnzsPa+R4+GUnAYE/Wlwa9bkhjmRkljSRW6qygg/gapvoWluhU6fbAH+7EFP5gA0+caqrseYYor0Z/CWjNz9ldT6iZx+m7FVJPA2nPkrcXaZ6AMhA/Nc/rRzlKpFnB0V18vgNuTDfr7K8WP8Ax4N/Ss6fwbqsP3I4Z/8ArlL0/wC+ttPmQ1KL6mCaSrd1p13ZAm5tZolU4LPGQuf97oaqfypppliUUuKKYDcUEAjmn4opWC5b07V9R0dgdOvZoBnO1TlT9VOVP5V2Wk/FKWJRHrFp5gA5mt8An6qeD9QR9K4LBorOdKM90b08TUp/Cz3LS/E+ka0dthfxSSH/AJZtlH/75OCfqOK1jXzrgN94A10WieONW0Uqgl+1Ww48mck4H+y3UfqPauWeEa1iz0KeYp6TVj2miuZ0Px3pOslYml+y3J48mYgbj/st0P06+1dNXLKLi7NHownGavF3CiiipGFFFFABRRRQAUUUUAFFFFABRRRQAUUUUwCiiikAUUUUAFFFFABRRRQAUUUUAFFFFABRRRTAKKKKACiiikAUUUUAFJS0lMAooopALRRRQAUtJS0xiUUUUhBRRRQAUUUUAFFFFABRRRQAUUUUAFFFFABRRRQAUUUUAFFFFABRRRQAUUUUAFFFFABRRRQAUUUUAFFFFABRRRTAKKKKACiiigAooopAFFMZ1RGZiAqgkknAAHXJ7Vx2vfEaxsA8Olhb24GRvyREp+v8X4ce9XGEpOyRFSrCmrydjrLu8t7G3ae6nSCFeru2BXDa58TYo98OiQ+Y2MfaJhhR7hep/HH0NcJqer3us3PnX9w8zjhQeFUewHA/CqNdtPCpayPKrZhKWlPRFm/1G71W5NxfXDzynjc56D0A6AewwKrUUV1pJKyPPcnJ3YlFFLQITFLTo4nmlWOJGeRvuogJY/gK6DT/AAVqV2A1wUtIz/f+Z/8AvkcD8T+FJyS3BtLdnO1Zs9Nu9RbFnbSTc4LKPlH1Y8frXfWHhHS7HDPEbmQfxT4I/Bfu/pW0AFUKoCqBgADAFQ59jGVZdDh7TwFdyYN3dRQDrtQF2+nOAP1rdtfBuk22C8Ulww7zPx+QwP0rbzRUNtmbqSfUZBbw2qbLeGOFfSNQo/SpKKKLkXCiiikDYlJS0UCuJRRRQK4UUUUBcKKKKAuFFFFAXCiiigLhRRRQFwooooHcUEjoaoXehadfktcWcZdjkuo2sfqVwTV6lFO5SlZ6HK3fgOB8mzvJIv8AZlUOPpkYI/WsG88KapZ5P2fz0H8UB3focN+lekGkqlNo0VWSPI2RkdkZSrLwQQQR9R2ppGK9Wu9PtdQTbd28coxwWHK/Q9R+Fc7f+B4ny9hcGM9o5fmH/fXUfjmqU09y1UT30OKorQv9FvtMybqBljB/1i8qfxHT8cVQIxV6PY0unsNoNKaSgBCARgjIrc0LxjqugbUgl8+1HW3myVA/2T1X8OPY1iUmKmUIyVpI1hUlB3i7HsPh/wAf6XrTJBMTZ3bcCKY5Vj6K/Q/Q4PtXVV86YrpNA8c6noe2J2+12g48qRuVH+y3JH0OR7Vx1ML1gelRx/Sp957PSdayNC8Tab4giLWM/wC8UZeF/lkT6j09xke9bFcjTTsz0oyUldMKKKKkYUUUUAFFFFABRRRQAUUUUAFFFFABRRRQAUUUUAFFFFABRRRQAUUUUAFFFFABRRRQAUUUUAFFFFACUUUUwCigUtABRRRSAKWkpaYxKKKKQgooooAKKKKACiiigAooooAKKKKACiiigAooopgJS0UUAFFFFIAooooAKKKKACiiigAooooAKKKKYBRRRQAUUUUAFFFFABRRVa7u4LG3e4upkhiQZZ3OAP8A6/t1NFuwN2VyxWF4h8Waf4diImPm3LDKW8Z+Y8cFj/COnJ/AHFcj4j+JElwklroitDGcqblvvkf7I7fXr9DXBySNJI0kjM7uSzMxyST3JrqpYZvWR59fHRjpT1Zsa/4q1HxDJi6k8u3BylvHkKPc/wB4/XPU4xWLmjrSV3RjGKtE8mc5Td5O7FooFKBTuZhRU9rZz3s4htYmllP8Kjt6k9APrXW6X4IjTEmqSeY3UQxEhfxbqfwx+NJySE5KO5yVnY3N/L5dpA8zjrsHA+p6D8a6fTfAjHa+pz4HXyoD/Nj/AEH4118MMVtEIoIkijHREUKB+Ap9Q5NmLrN7aEFlp9pp0fl2dvHCvfaOW+p6n8as5ptFTcyuLmkoopCbCiiigVwooooFcKM0UUAFJS0lABRRRQAUZoooAKKKKACiikpgLmikooAWiiikAUUUUAFFFFAXFzSUUUDuFKaSigdw6/Q9qx9Q8K6dfZYRm3kP8UPGT7r0P5Z962KKabRUZuOx5/qXhC/sstABdxDvEMP+K9/wJrAK4Jz2OD6g+hr1+s/U9DsdVBNzFiXGBMnDj8e/0ORVqb6m0a3Rnl+KK6DVvCF5YAyW2buAckquHX6r3+o/IVgAelaJp7G101dDaKdikpgPilkt5klhdo5UOVdCQwPqCK9A8PfEvaFt9dX6XMa/+hKP5j8q87ozWU6UZrVG9KvOk/dZ9DQTxXMKywSJLE4yroQQR7EVLXhWheJdQ8PT7rKTMDHdJbvyj+px/CfcegzkcV614d8TWHiO132r7J1GZYGPzxn+o9COPoeK8+rRcPQ9nD4qNZdmbdFLRWB1CUUUUCCiiigAooooAKKKKACiiigAooooAKKKKACiiigAooooAKKKKYBRRRSAKKKKACiiigBKKKKYC0UUUgCiiigApaSlpjEooooEFFFFIBKWiimAUUUUgCiiigAooooAKKKKYBRRRSAKKKKACiiigAooooAKKKKACiiigAooooAKKKKYBRRRQAUUUUAJRS1yfizxtDoP+i2YS4vz1XPyRD1bHU/7P4nHGXGLk7ImpUjCPNJ2Rp+IPEVl4csjNctumcYigVvmkP8AQep/mcCvJtf8S3viG68y6fbEv+rgQnYn4dz6k8/hxWde31xqF3Jc3czzTSHLO3P4ewHYDgdqgr0KVBQV3qzxcTi5VXZaICc0lFLiui5xBQKWtjR/DV5q2HUeTbH/AJauvUf7I7/Xp70nJITaSuZKIzuqKCzscKqjJY+gFdPpPguacLLqTGGPqIU++fqe30GT9K6jS9DstIT/AEaLMpGDK/Ln8ew9hgVoVDk2Yyqfyle0srewg8q0hSJPRR19yepPuanooqLmIUUUUEthRRRQAUlKaSgQtFFFABRRRQAlLRRQAUlLSUAFFFFABRRRQAUUUUAGKKKKBBRRRQMKKKKACiiigAooooAKKKKAFopKWgBKKKKACiiigdxQcVlar4dsdW3PIhinI/10fBP17H8f0rUopptFRm4u6PONW8NXulBpCPOt1/5bIOg9x1X68j3rHIxXr4Nc3rXhCC8DTaftgn6mPpG5/wDZT9OPbvWiqdGdEa19GcFRU9xbTWk7w3ETRyIcMrDkf4j3FQ4rSxqJUtvPJa3CT28jxTR/ddCQR+IqKlzUtJjTad0eq+FvH1tqMcdpq0q294MKJHwEm4656An06enXA7Wvnau08I+PjpSJY6tvktBhY5hyYh6Ed1HtyOnPAHFWw9tYfcerhsbe0an3nqtFRQTxXMCTQuskUihkdTkMD0INS1xnp7hRRRSAKKKKACiiigAooooAKKKKACiiigAooooAKKKKACiiigAooooAKKKKACiiigBKKWkoAWiiigAooooABS0UUxiUUUUCCiiikAUUUUAFFFFABRRRQAUUUUAFFFFABRRRQAUUUUAFFFFABRRRQAUUUUAFFFFABRRRQAUUUUwCiiigBKTPvTXdY0Z3YKigksTgADqSe1eX+MPHEmoPLYaW+yyHyvKOs3r9F/n34OKunTlN2RjWrxox5pGh4u8fBRNp+jN83KSXSnp2IT37bvy7GvOTSk5ptenTpqmtDwq1eVaV5BRRSgZqzEUCpre1mupligjaSRjgKo/zj61d0fRLnWJSIfkiU4eVhwvsB3Pt/Ku+03SrXSYPLtUwTjfIeWY+pP8ATpUN9iJTsZOi+D4bUCfUlWebqIuqJ/8AFH68fzrp6rXN3BZQGa6mSGP+856+wHUn2FYtz440yAssKXFwQOCqhVP5nP6VJnZzOjxRiuRHxAg8wA6fIE7t5oJ/LH9au2vjfS58CbzrY45Lplc+mVyf0FJpg6b7HQ4oxTILiG6jElvLHLGeNyMGH04qTFKxi0NopSKSgliUUtJQIKKKMUAFFLRQAlFLSUAFFFFABRRRQAlFLSUAFFFFABRRRQAUUUUAFFFLigBKXFFFA7CUuKXFGDQPlG0uKMGl2kdqdg5RMUYpcGikHKJiinYpMUCsJQaKDQFhKKKKBBSUUUALRRRQNMqahpdrq0Pl3ce7GdrjhkPqD/Toe4rh9b8MXWlbpk/f2o/5aKMFf94dvqOPp0r0QUv8vSqUmjaFRxPHiMUldp4g8Ihw91pUYDdXt14B9Svof9n8vQ8YVKkhgQQcEEYIPoRWyakdCakrobQaWkNAzf8AC/jC88NSiP8A11gzZkgPVcnllPY+3Q/qPYNN1K01ayS6splmhccMOo4zgjqDz0PNfP5rT0DX7zw7fi5smyhIE0LH5ZB6H0Po3UfTIPLWoKWsdz0MNi3T92eqPeaKzNF12z16yW5spNy9GU8Mh9GHY/oe2a08157TTsz2YyTV0FFFFIAooooAKKKKACiiigAooooAKKKKACiiigAooooAKKKKACiiigAooooAKKKKYBRRRSAKKKKACloopjCkoNFABRRRSEFFFFABRRRQAUUUUAFFFFABRRRQAUUUUAFFFFABRRRQAUUUUAFFFFABRRRQAUUUUwCiiigBO1MkkSGNpJXVEUEszHAAHcmmzzx20DzTuscUYLO7HAUV5R4y8YPrczWlmzJp8bcdjMR/ER6eg/E89NKVN1HZGFevGjG737C+MvGL63I1nYsyaejcnoZiO5Hp6D8Tz05OjrSYr1IQUFZHgVKsqsuaQhpKdilCkkAAliQAAMkk9gKGyBuM10egeFn1AJc3oaO0PKr0aUe3ovv1Pb1rS0DwkIgtzqiBn6pAeQvu3qfboPft1DMFDMzKqqCxZjgAdyTUN3M5T6ISGFIYkhgjVI0GFRBgAewrn9Z8X29jvgsNtxcDgv1RD/7Mf09z0rJ8ReKWvN9pYMyWxyryDhpfX3C+3fv6VzFNRHGHVli8vbi/naa6laWQ927ew9B7Diq9FLirsWJRRilFA7k1pdz2M4ltZnikHdTjPsfUexrtNF8aRTlYNT2xSHAEw4Vj7j+H69PpXC0uaTjcmUVLc9iB3AEYIIyD2xQRXnGgeJZ9IcRSky2ZPKd091/w6fTrXoVtcw3luk9vIskTjIYd/wDA+3asmrHNOm0SUlONJSMmJRRRQIWkpaKAsFJS4ooCwlFFFABRRRQAUUUlABRRRQAUUUUDsFLiihnWNDJIyoijLMxACj3JoHYKACegrntS8a6faZSzVruTpkZVB+J5P4D8a5TUPE2p6kGSW4McTf8ALKH5Vx6HHJ/EmqUWzaNFs9AvNY0/TyRd3kUbjqgJZh+AyaxLrx5YxcWtrPOc8lyI1I9R1P6CuD/SjNUoGqoxXmdRcePL+QuLeC3hU/dOC7D8ScH8qzJ/EurXA+e+lH+5hO+f4QKywaM1SikVypdCzLqF3N/rbq4fnPzSk/1pU1S/i/1d/dp/uzuP61VpabQ9jQh8QarDIJF1C4ZgCB5jlxz7NkVbTxnrKn5rlHHo0Kf0ArEzSUrILJ7o6uDx/cqT9osoZB2EbFMfnurTs/HVhPgXUMtsSeo/eKB9Rg/pXBUUuVMlwi+h61aX9rfputLiOYYydjDI+o6j8anNePKSrBlJDA5BBwR+Nb2neMNQssLMRdxD+GU/N+DdfzzScDKVHsz0KisXTvFum6hhXc2sp/hmPBPs3T88Vt4PFRZmUoOLsxKMUuKMUjOwlFFFABS0lFA0wrG1zw5b6wplTbDdgcSgcNjsw7/XqP0rZpKabRcZOLujym8sp7C4aC5jMci84PQj1B7j3qua9T1LTLbVbYw3K5xyjrwyH1B/p0Neeavo9xpF0Y5vmQ8pKB8rj+h9R/TmtYyT0e50wmpepmGinEUmKto0L+j6vdaHfpd2TYYEB0PSRe4I9P5da9n0LX7PxBYi4s35GBJG3DIfQj+R6GvCelXNM1S60e9S8sZNkyHkH7rjurDuD/8AXGCAa5q1BTV1udmGxTouz2Pf6Ssbw94ls/EloZbRisseBLC/DIf6g9j/AFBA2q85pp2Z7cZKaugoooqRhRRRQAUUUUAFFFFABRRRQAUUUUAFFFFABRRRQAUUUUAFFFFACUtJRTAWikopDFooooEApaSlpjENFBooEFFFFIAooooAKSlopgIKWiikAUUUUAFFFFABRRRQAUUUUAFFFFABRRRQAUUUUAFFFFMAooopAJTHdIo2eRgiKCzMxwFA5JJp1eW+NvGX9pGTTdObFmrYkkH/AC1IPb/Zz09etaU6bqOyMa9eNGPNIqeLfGU2vu1pbAxaercL/FNg8FvbuF7e56ct1o60V6sIKCsj5+rUlUlzSCilAqa3t5LmZIYULyucKo702zK4yGCSeZIoUZ5HOFRRya77w/4bi0kCefbLeEfe7R+oH+P8u82haDFo8JY7ZLpx88mOn+yvoP59+wGtWbdzKU77CEgAsxCqoJJJwAB1JNcF4l8RnUma2tSVs1PXoZSO59vQfieel7xhrxJfTLVxtXi4dT1I/g+gPX347HPHE5NVFdTSEe4E5oooqjQWigCtPRvD2oa9IVsIR5anDTP8sa/j3PsM0nJRV27FRi5u0VczKWvRh8L7UacEN/N9t6mXaNmfTb6fjn+VcrrXhHU9DDSzRCa2XrPDyoH+0Oq/XGPeohXpydk9TaeEq01drQw8UlPxTSK2scwma1/D+vSaNc/NlrVz+8jHb/aHv/McehGRSUmrha6sewW9xFdwJNA4eNxlWByCKfXn/hXX/wCzbj7Jcti0lPBY/wCrY9/oe/p19c+gVg1ZnJUg4sSilpDSM7C0tRvIkUbSSOqIgyzM2Ao9ya5668cafA5W3imuMH73CKfpnn8wKdm9i4wctjpcUYrnrDxpp92yxzK9s7d35UHPTd/UgCui/kaTT6ilBx0Y2kp1JQQJRRRQAlFFFABRSgUUDSEpRUN5eQafavcXcgjiXjPXcewA7muK1jxncXYaKwVrWE8F8/vGH1H3foPzppNmsINnS6x4kstHDIW8+6HSFG+6f9o9vp19u9cJqmt3usSZupfkU5WNOEX6D+pyaziaK0jFI6IxUQJpKWkxVliUoFLRQAUUUm9QcFhmgBwFLU1vY3d0M21nczL/AHo4WYfmBT/7Nv8Abu+w3e3+95D4/lRddw5ZdiriinyxvD/rkaP/AHwV/nUYIb7pzQKwUUuKKdgEooopAFa2k+IL3SSFjk8yAHmFzkY9v7v4fkayaUUrA7NWZ6hpOuWerxDyZAsoGWiY4Zfp6j3H6dK0sV5BHI0bq6MVZTkEHBB9Qa7PQvGEToLfVX2OMBZsfK31x0Pv0+nfOUDnnSe6OrxSUqsHQMhDKQCCDkEHuKCKgwasJRRRQAUlLSUAFQXdnBf2z29ygaNu3cHsQexqeigpM811zQ5tHucNl4HP7uTHB9j6GsoivWrm1hvbd7e5QPE4wQe3uD2PvXnWu6FNo1x/E9s5/dy46+x9D/PqPbaE76M6qc+bTqZNFBpDVmhf0bVp9D1SG+tslkPzpuwHU9VPsfxwQD2r2nQ9dsvENiLmykJAO10bhkPoR/nNeD9K0/D+vXPh3U1u7b5kOFmiJ4kXPT2I7HsfYkHlr0VNXW524XEuk7PY95oqhpOrWutWEd3ZS74n9eGU9wR2Iq/XnNNOzPbTTV0FFFFIAooooAKKKKACiiigAooooAKKKKACiiigAooopjCiiigBKKKKQgoooFAC0UUUAApaQUtMYlFFFIQUUUUAFFFFABRRRQAUUUUAFFFFABRRRTGFFFFABRRRSEFFFFABRRRQAUUUUAFFFFMApKK5bxp4sXQbU29qytqEy/IOvlL/AHj/AEH+HLjFydkTUnGnFylsjI8e+LxEsukae/7wjbcSg/d9UHv6n8PXHm/elZ2d2ZmLMxySTkk0gr1aVNU1Y+er1pVpczClFJUiIXdVVWZmIACjJJParbOdj7eCS4mSKFGeRzhVXvXoWhaHHpEGWw9y4+d/T/ZHt/P8gI/D+hrpNtvlCm7lHzt12/7IPp6+p/CtkVm3cxlK7FFZPiTWDo+m5jP+kz5WL/Z9W/DIA9yPQ1rqNxA4/E15h4i1X+1tWlnUnyV+SEf7A6fnyfxpJXZVJamYTk0UlLWxuLRjikArsvA3hNdWk/tG/j3Wcbfuo2HEzDqT6qD27n6EHOpUUI3ZpSpSqy5YjvCPgY6ki3+rKyWZAMUHQyj+8e4X0HU/Tr6XDDHbwJDBGkUSDaqIoVVHoAOlPoryKlWVR6n0VDDxoxslr3DFGKWisrm5xHijwFHdCS80dRHPyzW44V/93+6fbofavOXRo3ZJFKupIKkYII6givfMVxvjjwoL6KTVLFP9KRczIB/rFH8Q/wBoD8x7gV34XFNNQm9O55WMwSadSmtTzEim08im4r0mjxg7YNd94O1g31mbKZsz26jaT1aPoPxHT8q4CrWnahJpl/DdxZJjbJUH7w7j8RUyV0KUeZWPWqaTTYZkuII5ozujkUMp9QRkH8jSTyGGCWVV3MiFwvqQM4rA5XE4bxfq7Xl61lGSILZyDg/fccEn6HIH0J71zeKe7FnJJySck03FdCjZWOlaLQBXceC9Wa4gfT5mJkhXdGSSSUzjH/ASQPoR6Vw4rd8IOyeIYducOjq2PTbn+YFTJaCqJOLueiGkozSVkzjYUlLSUhBSikpRQNDhVDV9Wt9GszPcHczcRxg/M7f0A7nt9cAprGrQ6LYNPJhpTxFETy7f4DqT/U15pf6hc6ldNPdSGSQ8eyjsAOw9qpK5vTp316E+raxc6vceZcvwudiLwqD0A/r1NZ9FFa7HQrJaBRRS4pgJilq9pWj3+tXRg063MrDG9jwiD/ab+nX2r0LQ/hlY2u2bWH+2zDB8sZWJT9Orfjx7VlUrRh11OmlhqlV6LQ8407TL7V5fL060luWBwSg+Vfqx4H512GmfCy8mAfU72O3XIJjgG9sem44AP4GvTIIIraJYoI0ijQYVEUKAPQAdKkJxXJPFTltoelTwFNay1OVsvhzoNpgyW8l04OQ07k/oML+lb9rpVjp4Is7O3gB6+VEq5/IVbo5rnc5PdnXGjCPwoMD0owPSloqTSwx41kUq6hlIwQRkGs+78P6Vfc3On2srf3miXI/HGa06Smm1syXCMt0cje/DbRbpc24ntG55jkLA/UNn9MVzGo/DHU7VS9jcQ3gAzsI8pj7DJIP4kV6rSVrGvUj1uc08HSn0sfP19Y3Wmz+TfW8tvJ2WRcbvoeh/CoK+grqzgvoGhuoY5omGCjqGU/ga4PX/AIZowafRJNjAZ+zSNlT/ALrHkfQ5HuK66eKjLSWhwVsBKGsNUec0VPdWk9jcPBdRPFMnVG4I/wAR71Diuq19UcDVhKM54oNJSEdH4d8UtpYW1vN0lpnhhyYvoO49uvp6V3sUsdxEssLq8bjKspyCK8fFbvh3xE+jy+VNuezc5ZRyUPqP6is5R6kTpqWq3PRSKSkhniuYVlgdZI3GQynIIpxrM5ZRsJiiiigkSilpKACo7m2hvbeS3uUDxOMEH+fsfepaKCk30PMtc0SXRrva2XgckxS46j0PuP8A69ZZFetXtnBqNpJbXS7o3Hbgg9iD2IrzTV9Km0i9a3l5XqjgYDr2P+I7GtoSurPc66c+Za7mfSU4ikxV2LN7wn4ll8N6kHOXspSFnjH/AKEP9ofqOPQj2i2uIru2jngdZIpFDI6nIIIyDXz0PSu28AeKhpc39l3z7bWZswyFuI3J5B9Ax79j9SRx4mjdcy3PRwWJ5XySeh6tSUDkUV557AUUUUCCiiigAooopjCiiigAooopCCiiimMKKKKACiikoAWkopaAEooopALRRRQIKWkFLTGJRRRSEFFFFABRRRQAUUUUAFFFFABRRRQAUUUUAFFFFABRRRQAUUUUAFFFFABRRRQAUUVHLKkMTySsEjRSzMTgKAMkmnuGxmeIdft/D2lvd3ALOTtiiB5kfsPYdyew98CvE72+n1G+mu7uQyTzNudv6D0AGAB2AFavi3xC/iHV2lUsLWLKW6Hsv97Hq3U/gO1YfXivRw9HkV3uzxMZiPay5Y7IKWkpQM10nAKPWu48LaCbRBe3aYnYfu0Ycxg/yY/oPqRWb4U0L7XIL65T9xG37tSP9Yw7/QH8z9Oe3xWcmY1J62QgGKWikNSY3MnxTemy0CcqcPPiFce/JP8A3yCPxrzUnJrrPHd1uurW2H/LJC5x6sf8FH51yQrSCsjrpq0RRQKKUc1RZp6BpEmu6xBZRkqr/NK4/gQdT9egHuRXtdvbxWlvFBboscUShEVRwqgYAFcj8NdJ+zaNLqLgeZeNhPaNSQPzO4/lXZ15OKqc0rLZHvYCgqcOZ7sQ0UUVyHoC0UlLQAUmaKQ0hnlXjzQl0rVRdW67ba7JbAHCv3H0PUfU+lcqa9k8XaWNW8N3USjMsS+dHxzuXnH4jI/GvGc5Fe1hantKeu6PncdR9nU02YGiiiug4jvPA9+Z9LktGJL2zfLn+42SPyIb9K6fuO+K848IXYtNejBICzq0RJOMHqPxyoH416PWMlZmE1ZnmOvaY2k6pJDg+U2XiPYqe31HQ/8A16za9W1DTbXVLUwXce5eqkHDIfUHsf8AJrlLvwHOrk2d5E6k8CYFCB9QCD+QqlU0sy4zVtTlQK7DwPYsPtF86kAjyoyeN3OWP0yFGfUGjT/AyqwbUrjeB/yyhyAfqx5I+gH1rrI4khjWOJFRFAVVUYAHoBScrkVKiash1FJRUHOwooooEFQX99Bplm9zcthEHA7ueyj3P+J7VMzKiMzsqooJZicBQBkk15t4i1o6vfll3LbxZWFSe394j1PX8h2ppXZrTg5PyKWoahPqV5JcXDEu54GeFHYD0AqrRRWyVjqsFFFLySMAknoAMkn0AoACQoJJwB3Ndj4Z+H1zqvl3Wqb7WzOCIxxJIO3+6P1+nWtrwZ4CW1Meo61EGuRhobc8iL0J9W/QfXp32OK462I+zH7z1cNgb2lU+4q2GnWumWqW1lbpBCg4RBgfX3Pueat0lLXE3c9RJJWQUUUUDEpaSigQtFFFIYUlLRigBKKWkoAKKKKAMzWNBsdctfJvoQ2PuOOGQ+oPb+VeYeJPBd5oO6eMm5sh/wAtVGCn+8P6jj6V7FSMoYYIGK3pV5U35HLXwsKq7M+eCKaa77xp4JFoH1HSoz5P3pYFH+r9WUenqO306cGRXpQmqiujxKtKVOXLIbQDQRRTMzf8L6//AGVcGG4Y/ZJDk99jeuPT1/CvQkkWWNZI2VkYBgQcgg9CK8ersvB+vABdNumxz+4Y9/8AZz/L8vQVEl1MqkLq6OwpKXNJWZysKSlpKBBS0UUAFUdW0qHWLI283ysOY5AOUP8Ah6jv+VXqKE7MqMmndHk17Zy2N1Jb3CFJEOCOx9x6g9ar16R4i0JdYtd8QAu4h+7bpvH90n+Xofqa87kRkcq4KsCQQRggjqCK6IyujshJSVyOkPIwaUikoZR6p8P/ABZ/alv/AGZfyk30C/I7HmaMd892HQ+vB55x29fPFtczWd1Fc20jRXELB43HYj+Y7EdxxXt3hjxDD4j0lLqMbJl+SeLP3H7/AFB6g+nvkV52Ipcrutj28HiOdcst0bVFFFcp2hRRRQAUUUUAFFFFMYUUUUAFFFFABRRRQAlFBopCCiiigBaKSloGFFFFAgFLSClpjEooopCCiiimMKKKKQgooooAKKKKACiiimMKKKKQgooooAKKKSmAtFFFIAooopgFFFFACGvOfiP4kznRrVuAQ1yw/MJ/In8PQ11nijX08PaQ9ydrTv8AJAhP3nP9B1P5d68Umme4mkllZnkkYu7E5LMTkk+9dWGpcz5nsjz8dX5I8kd3+RHSgUlKK9A8UAK1tB0ZtXvdhysEeGmYenYD3OPyyao2ltJd3EcEC7pZDtUf1PsByfYV6ZpemxaVYR20Rzt5d8YLsepP+eAAKiUraETnZFpI1iRUjVVRQFVQMAAdAB6UtKaSszmbEpCaU0i/fX600Tc818Tzm48QXjEY2SeXj2X5f6ZrJqSZzJK7k5LMWJPuajrZbI9BKySDvUsMMlxKkMIzLKwRB6ljgfzqKt7wbAtx4s05XGVWQv8AQqpIP5gVM3yxb7FwjzSUe56/ZWsdhYwWsIxFBGsa59FGB/KpqKK8KTbdz6pJJWQUUUVIwooooADSGlNJQMAentXiHiGwGmeIL60VdqJKdg9FPzL+hFe3V5V8R4Fi8VF1PMsCM3scbf5AV24GVptd0ebmUU6al2ZylFFFeoeET2cy215BO2dsMiyEAckKQf6V62pyAR3Ga8e6qfpXrdlJ5tlBJ/fiVvzANZTMKvQnpKWkqDBsKSiigTYUUUUCCiiqeq6imlabLdPtZlG2NT/E56D+ZPsDTSHFNuxznjPWeP7MgYcYacj16hfw4J98ehrjTzUk0jzSvJIxZ3YszE5JJOSTUdapWR2xioqyCgUUdKooXkkAAkkgAAZJJ7AV6l4J8ErpiJqOqRq983McbAEQD/4v1PboO+anw98JhI49av0zI4zbRsPuKejn3Pb0H149C6d64MRWu+WOx62DwqSVSaFooorkPTCiiikIKSori4htYGmuJUhiT7zyMFUfia43VvibYW2Y9Lhe8kxgSNlIwfx+Y/l+NXCEpPREVKsKavJ2O3rP1DXdN0oE319BCQM7Gcbj24XqfwFeQ6n4y1vVtyzXrRRHP7qD92uD2OOSPqTWHgCuqOEf2mcFTMUtII9ll+IXhyNip1AsR/dgkI/Pbiqx+JegmJmV7jcOitCQW+h5H515HigVqsLDzMHmFR7WParfx14euW2pqUatx/rEZOpx1YAVuQXEN1CstvKksbdHjYMp/EV89YFPt5pLScT20skMwGBJGxVh+I5rOWDXRmkcxf2l9x9DA0V5Jo/xH1XT8JfKt/CAANx2SD/gQHP4gk+td/ofizStf+WzuCk+MmCUbXH0HQ9OxPvXPOjOG6O6liadXZ6m7SUtFYnQJRS0lAhCMjmvNPHXhAWnmapp6YhzuniUfc/2h7eo7denT0ukZQ4IYZBrWlUdOV0YV6MasbPc+eSMU3FdZ448MjRL4XFqhFlcHgdo26lfoeo/Edq5SvWjJTSkjwakHTk4sSnKxBBUkEHIIOCD6im0UEHpPhvWhrFgPMP+kw4WXjG70YfXH55rYryvSdSfSNSjuVyVHyyKP4lPUf1+or1KGRJ4UliIZHAZSOhBHBrGSsc1WFndbMdRS4pKgwCiikpgLRRRQFwrlPF+heYp1K1T51H79R3H978O/tz2NdXR9QMY6EdRTTady4ScXc8gIppFbvibRP7Kvd8IP2WXJQ9dp7r+Hb2+hrDIroumro7E01dDcYrZ8Ma/J4d1hLlSxt5MJcIP4l9QP7y9R+I71j4pRUSipJplwm4SUl0PoWGeO4gjmhcPHIoZGU8EEZBH4VLXnnw08Q+ZC2iXL/PEN9sSeqd1HuDyPY+i16HXkzg4SaZ9FRqKrBSQUUUVBoFFFFABRRRTGFFFFABRRRSEFFFFABSUtJQAUUUUAFFFFAxaKKKBAKWkFLTGJRRRSEFFFFMYUUUUgCiiigQUUUUwEpaSigBaKSloAKSlpKACiiloAKKKKQBRRRTAKSjvXH/ETXf7O0gWMLf6ReAg88rH/F+fT6ZqoxcpJIipUVOLk+hw3jHxAde1t2jcm0gzHAM8EZ5bHqT+mB2rn8c0vWivWhBRikj5ypUdSTk+oUClArb8M6P/AGlf75VzbwYZ8jhj2X+p9hjvTbsZNpK7Oh8I6L9itftk6kXE6/KpHMadR+J4J/AdjXR0lFZN6nNKV3dhRRRUmbENMJ28+nNPNNYEq4xyVNUtxNHkGc0UYorboekArpvh+23xfb5/ijdR7nGf6VzVbHhO5W08V6bM+ced5YwO7KUH6sKiqrwa8jWg0qsW+57VRS0V4J9QJRRS0AJRS0lABSUtJQMK8m+Iciv4tnUDmOONWOep2g/1r1oc4FeKeKbo3nifUJSVYeeUUqcgqp2jB+gFduBV6jfZHm5m7Uku7Miig0V6Z4Ior1jTSDpdoVOV8lMHHbaK8oALDA5J4A9Sa9fjRUjVV+6oAH0FTMxqq9haKU02sjnYtJRRQIKKKQ0xBmuH8baj5+oJZIfkth82DwXOP5DA/Ouwvr1dPsJ7tgCIkLAHueij8yK8rllaWVpJGLO7FmJ6knqauC1OihG+pHRRSitToDGa6LwX4a/4SHViZ1P2G2w8oxxIf4U+nGT7cd81z6qzMqxqzuxCqqjJYk4AFe3eFtDXQNDhtODMfnmYfxSHqfp0A9gK58TU5I2W7O3B0faTu9kbQGAB2ooorzD3QopKKACsPxH4ntPDtsHlPm3Lj91ApwW9z6D3/Kq/i3xZF4bgWONVmvZRlIyeFH95vbPQd+fSvI729nv7uW5upWlnkOWdjzn+g7Y6AcV0UaDnq9jhxWLVP3Y7/kWdZ12/12582/nLgE7I14RM9gO315J7k1m0UV6EYqKsjxZTlN3k7sSiloqiRKKWkpAFFLRigBKcDyOxByCOoPrSUlAHeeGfiJJZbbbXGeaEYC3AGXXt8w6sPfr9c16Tb3MN3bpPbSLLE4yrocgj618+A4rf8LeLLjw5dBG3S2DtmWLuvqw9/boe/YjkrYdPWJ6eFxri1Cpt3PaqKqWF/b6nZxXVpKssMi7lYfyPoR0IPINW64WmnZnrJpq6EooopAUtU02HVdOnsrlcxyrjI6j0I9wea8O1XTZ9I1OeyuR+8iOM44YdQR7Ec179XE/EfQPt+mjUrdcz2o/eADlo88/kefpmurDVeWXK9mcONoKceZbo8qNFKRRXos8UBXbeB9UMsEmnSHLRDfHnupPI/An9fauJqzY3smnX0N3Fy0TBsf3h0I/EZFTJXRMo8ysetUlNhmS4gjmiOY5FDKfUEZFPNYs4pIbRSmkoEFFFFABRRRQNFTU9Pj1TT5LWXA3DKNjOxh0b/PbIrzC4t5La4eCZSskZKsD2Ir1rFcx4x0X7RD/aMC5kiXEoA6qO/wBR39vpVwdnqb0Z2dmcORSU4ikrY3ZLbXU1ldRXNs5jnhcPGw7EevqOxHcE17joOrxa5pFvfQ/KJV+dM52OOGH4HP1614TXYfDzX/7K1U2E7Ytb1gFJ6JL0H4Nwv12+9cuJp80eZbo78DX9nPkezPWaKOtFece2FFFFIQUUUUAFFFFABRRRTAKKKKQBSUtJTAKKKKQBRRRQMWikpaBAKWkFLTGJRRRSEFJS0UDCiiimAUUUUhBRRRQAmKKWimAlFLRQAUUUUDEpaSloAKKKKQgoopD0oAjmmjgheWVgkcal3Y9AAMk14br+rya3rNxevlQ7YjX+6o4A/L9c13/xK1oWulx6bEw826O6TB5WMH+pH6GvLutd+Fp6c7PJzCtdqmvmFAopRzXaeWSRRtK6pGpZ2IVVHck4Ar03SNNTStOjtlILjl2H8THqf6D2ArmfBml+bcNqEo+SIlIgR1bHJ/AcfifSuzrKb1MKkugUUUVmYsKKKq6jqNvpdm1xcMABkIoPLnHCj/HtTQkm3oN1PVLXSLbzrtyM8JGvLOfYenqTwK4a/wDF2o3c++GU20StlI4z/M9T+PHtWdqOoz6peSXNy2XboOyL2VR2A/zzVSrjHudkKSivMCSSSepOTgYpKWkrQ0CnBmXBRirDkMDyD602lph1Pc9B1RNY0S1vVxmVBvA/hYcMPwINaBFeZ/DbXBa3sulztiO5bfCSeA+OR+IA/Ee9em4rxK9N05tdD6XDVVVpqXUSijFFYHSIKWiigBKKKKBmV4l1X+x9AvLpWAlCbIued7cAj6cn8K8TNd18TNXEt3b6XE3EA82bB43sOB+C/wDoVcLXrYOnyQ5nuz5/MK3PV5VshDRRRXUeeORzG6shKspDAg4II6EV0WkeMbuzcJfE3NucA8Deo9Qe/wBD+Yrm6AaVgaT3PX7e4iu7dJrd1kicZVgeD/n0qTFebeHdek0a52yFmtJD+8Qc7T/eHv8AzH4V6PHIk0ayRsGRwGUg5BB5BFZNWOWpDlYtJTqSkZCGkNLTTQI5nxxd+VYW9qp5mcu2D/CvA/Mt/wCO1wxrb8X3f2nXplDZSACFfbA+b/x4tWJW8FZHdCNooBSikFLVlHXfDrRhqOvNdyqDDYgMM95D938gCfrtr1uuZ8AaZ/Z3hS3ZhiS6/wBIf/gQG3/x0LXTV5NefPNs+gwlL2dJd2LRRSVidIVk+I9bTQNHmvGCtIPkiRs4Zz0H06k+wrVrxzxv4gOt606RNm1tSY4sdGP8TfiR+QFa0afPK3Q58VX9lC/XoYd9ez6jdy3V1IZJpTl2P+fwx2FV6SivVSSVkfPttu7FoFAGatWNjPf3KwWyb3bn0Cj1J7Ck3Ym9itjHJ6Vp2HhzUtRCtFbmOM9JJjsB9x3P4Cuw0bwxa6aFllVZ7oc73GQh/wBkdvr1+nStrNQ5GMqttjjovALFAZtRVW7hIcj8CW/pUz+AbfbiK/lV/V4ww/IEfzrq6Km7J9rI4S78EX8O428sNyo6AZjY/gcj/wAerDurG4spfLuYZIn7BhjP0PQ/hXqxqO4t4ruBobiNZI26qwyP/rH3pqbKVZ9TyYikrptf8LNYq9zY7pLdfmdDy0Y9fce/Ud/WuaIrRWaujZNSV0NoBoNJQUdR4J8UHw/qHk3LH+z7ggP6Rt0D/TsfbB7YPsQIYZHSvnbPFepfDXXze2DaVcPme0UGLJ5MXQD/AICePoVrixNL7aPUwGI19nJ+h3NFFFcR6olNZA6lWAKkEEEcEU6g0IW54f4p0U6Jr09qoPlH95ET/dPT8uR+FYuK9P8Aidpfm6bBqEY+a3fY5H91uhP0P/oVeY169GfPBM+exNP2dRxWwlAooqzA9A8E3xudGNu5y9s5T32nkf1H4V0Zrz7wTefZ9cMBJ23MZXAH8Q+YE/hu/OvQaymtTmrRtK/cSkpaSpMGFFFFABRRRQAUfl+PeiigZ514l0j+ytSIjBFvMC8X+z6r+B/QisYivTde0satpckSgeenzxH/AGh2/Ecfl6V5mwKsQQQQcEEcg1vB3R1wlzIbSkBgQehpMUVRR7J4I8QHXdEAnbN3bERzercfK34j9Qa6TrXi3g/Xf7B16OaRttrOBFPk8AE8N/wE/oWr2nrz615VenyT8mfQYSt7Wmu6FooorA6gooooAKKKKACiiimMKKKKQgpKWigBKKKKACiiigApaSloABS0gpaYxKKKKQgooooAKSlopgFFFFIAooooAKKKKYwooooAKSlpKAClpKWgQUUUUgCopZUhieSRgsaKWZj0AAyT+VSVx3xI1Y2OhJaRnEt6233CDBb8/lH4mrhFykkiKk1Tg5Poec69qz63rVxfOCokbEa/3VHAH5Afjms4daSl6V68YqKsj5ucnOTk+oVYs7WS8uYreEZllYKueg9SfYDn8KgAzXY+CdMGyTUJBySY4sjsPvN+fH4H1ok7Izk7K509jZx2FnFbQ/cjUAE9T6k+5OT+NTmig1i2cglFFBpEsACTgdTXm/ifV/7V1JvLYm3hzHF1weeWx7nn6Aeldh4ovvsGgzFTiSfEK49+p/75BH1IrzY8mtIR6nTQjpcSloAoFWbi9DSY5q9pemXGrX8VnarukkPJPRF7sfYf/W70/WdHm0XUZLSfkryrgYDg9CKSkm+W+pai3HmtoZ1IKcRSVRA9JGidXjZkdCGVlOCpByCD617N4U8Qx+IdJWYlVuosJOg7N6geh6j8R2NeLVpaDr1z4f1Jbu2wykbZYmPEi+nsfQ9vcZB58TR9pHTdHZhMQ6M7PZnuRpKp6Rq9rrlgl3ZPujbgqeGRu4YdiP8A64yCDV2vHlFp2Z9BGSauhKKKKRQlZHiTXovD+lPcOVM75W3iP8be49B1P5dSKs6vqlro2nSXl65WNOAAMs5PRV9/5da8d13Wp9d1OW8n43fLHHuyI1HQD/PJJNdGHoOo7vZHHjMUqMbR3ZRnmkuZ3mmdnkkYszE5JJOSSaZTRTq9hJJWR8622JS0AZrY0Hw7da8Lv7NgfZ4wQTwGYnhc/QH9KHJRV2xxi5O0UY2KKlmheCZ4pFKSIxVlIwQR1BqIimIBXZeCtXJDabMegLwk/my/1H41xtWLO6eyu4rmL78ThgM9cdR9COPxqZK5MlzKx61SU2KVJ4UljOUcBlI7gjINPrJ6M4mIaazrGC8hwigsx9AOTTjWfrcoh0S+c94WUc9yNv8AWhAld2PMrmdri5kmkOXkYsx9STk1FStyaSujY7+gueKuaTp51bVrOxAJE8qo2DyF6sfwUGqddl8MrD7T4ilu2XK2sJx7MxwD+Qes6suWDZrRhz1FE9XVQqgAAADAAp1FFeQfRiGilNNNAGH4w1X+x/Dd1OjbZpAIovXc3GR7gZP4V4meteg/FK9zPY2Ks3yqZnHY5O1fyw35159XpYWFoX7nh4+pzVeXogpRSUoFdBwk9rby3M6QwrukkYKo/wA9u9ekaPpEOkWnlR/NI2DJIRy5/wAPQf4msPwVpuI5NQkHLExxZHQD7x/E8fgfWusrKT1MKk9bCUUtJUGLYUUUtAriUYpcUUDuJ0PFcV4p8PLb7r6yTEJP72MDhCe4/wBknt2PseO1prIroyuAyMCCCMgg9QapOzKhJxZ5ERikrT13SzpWqSQDJjPzxk91PT8uR+FZmK231OxNNXQVf0bVX0XWLa/TJEL5cD+JDww/In8cVQoqXFSVmXGTi010PoeKVJokkjYMjgMpB4IIyDUlcp8OtSa+8LRxSEs9o5gyf7owV/JSB+FdVXkzi4yaZ9JTmpwUkLSUtJUFFDW7Aapo13ZkDM0RVc9mx8p/A4NeCkEHBGCOor6INeH+LbJbDxTqEKY2mXeABgAMA2Pw3Yruwct4nmZhDRTMailorsPJLWm3QsdStrkkqsUisxHXbnDfoTXq45FePY3Ag969Z064N5pttcN96SJXbHYkAms5oxqrZlg0lKRQag5mJRRRQIKKKKACiiigYucVwvjLSvs18L2JcRXB+bA4D9/z6/XNdyaq6lYpqWnzWsmBvX5SezDkH86qLszSnLlZ5WRSVLNE8EzxSgq8bFWB7EcGojXQdQp54r1r4e66dU0P7LM2bmyxG2TyU/hP6Ef8B968l962PCusnQtft7pjiB/3U/8AuE9fwOD+B9awr0+eGm6OvCVvZVF2Z7jSUA5FFeUfQBRRRSEFFFFABRRRQAUUUUAFFFJTAKKKKQBRRRQAUtJS0AApaQUtMYlFFFIQUUUUAFFFFMAooopAFFFFABRRRQAUUUUxhRRRQAUUUUhBRRSUAJivGPHGr/2t4muGRt0Nt+4jx046n8W3fhivT/FWr/2L4fubpTiUjy4uf4zwMfTk/hXh/eu3CU9XNnm5jV0VNerClooFd545NbW8l1cxQQjMkjBF+p7/AEr1S0to7O0it4v9XGoVfoO/171x/gnT/NuZb1x8sP7uPP8AeI5P4A4/4FXa1lNnPVlrYWkopc1mYtiUhpaaaaEzi/HdzuvLW2A/1cZkJ92PT8lH5muUrZ8XTGTxJdAnITaijPQBR/XJ/GsatY6JHfFWSQUuQoJPQc0lanh21W98RafA6h1aYFlPRgPmIP5USdk32NIpyaj3PSvBugjR9HR5U23dyA82RyAei/gP1zU/ijw6niDTCqYW7iBMLe/cH2P6GtsigcV4vtZKfNc+lVCCpeztpY8DmieGV4pFZJEJVlIwQR1BqMivS/Hvhf7VE+rWSnz41zOg/jUfxD3A6+30rzYivYpVVVjdHg16DpScX8htJSkUlaHObfhjxNc+G7wug821lI86E9/9pT2YD8D37EevaZqlrrFil3ZSCSJx+KnuCOxFeDitvw14nufDdwxiUS20v+shY4BP95T2Pb3/ACxx4nDKavHc78Ji3SfLLY9oqtqF/BplhNeXTbIYlyfU+gHuTxVGDxPpc2hnVhPttV4YMPnDf3Mf3vb8enNeX+KPFNz4juRuzFaxk+VCDnH+0fVvf8q4qWHlOVnolueliMXCnC61b2IfEPiK78Q3vnXJ2RJkQwqfljX29Se57+wwBj0lLXrQioJJbHgznKbcpO7FFKKSpbeCW6njgt42klkYKiL3NU2krsizbsi1pWmXOsXyWlmm6RuST91F7sT6V7FoukW+iaZHZ2/zBeXcjBdj1Y/56YFVfDHh2Pw9pnlZV7mTDTyAfePoP9kdB+J71s15GIruo7LZHvYLCKkuaXxM4H4kaMqiHVoRglhFMPU4+U/oR+VefmvZvFiJJ4U1ISAkCLcMeoYEfrXjBruwc3KFn0PPzCmoVbrqFKtJSjrXScDPTPC9x9p8PWpxgovlYzn7p2j9AK1cVz/glidBIP8ADO4H6H+tdDWMjjqfExDWF4ukEfh2YHrI6IPf5g3/ALLW6a5rxxgaLAcc/aFx/wB8tRHcVPWSOCNJSmiug7Q716V8KLfbZ6nc5XMkqRYDZOFXPI7ffrzUda9R+FKj+wr5u5vCPyjSubFP92dmBV6yO6oNFFeaz3Appp1NNAHjXju7N14svMOWSLbEoP8ADgDIHtu3VzprR14k6/qXJJ+1yjJ5P3zWdXsU1aCXkfNVpXqSfmApRnsMnsPWkq/oieZrViv/AE3Q/kc/0qm9DJ7HpFjaLY2MNsmCIkC5AxnA5P4nn8asUuKK52zjYlFFFBIUUUUCCiiigYUhpaQ0Bc5rxva+ZpcFyAS0Mu046AMP8VUfjXCmvTdfh+0aBfR+ke8f8BIb/wBlrzI9a2g7o66LvH0Epe9JS1RqeifCmYE6pBzuHlP7YIYf0/lXoteVfC24KeI7qDtLalz9VZR/7Oa9VrzMQrVGe9gXeihaSlpK5zqEryj4mwCLxLFIq4EtspJ9SGYfyAr1ivN/ivGBPpcmTlllXHbjaf6104aVqiOPHRvRb7HnxopKWvTPCFXrXpHhKYTeHLcbstGWQ57YY4H5EV5uOtd/4HOdDkH924Yfop/rWc9jKr8J0RpDTqaayOZiUUUUCCiiigQUUUUDCkNLQaAOJ8a6d5V5HfIPknG18dnA/qP5GuXNeo6tYDU9MmtiBvYZQnsw5H+H415e6lXZWBBBwQeoPpW8HdWOuk+ZW7DaTqCDSmm1ZZ7J4C1g6t4ZiWQ5mtD9ncnqcAbT+Kkc+ua6bFeRfDjVvsHiM2shxFfJs+jrkr+Y3D6kV671ryK8OSbXQ+iwlT2lNd0LRRRWJ0BRRRQAUUUUAFFFFABRRRTASiiigAooopAFLSUtAAKWkFLTGJRRRSEFFFFABRRRTGFFFFABRRRQAUUUUAFFFFABRRRQIKKKKQBSHpS1HLIkUbSSMFRAWZieAByT+VMNjzb4oamJL2102NuIVMsgB/iboD9ACf8AgVcFVzVtRk1XVrm9mzuncsBnO0dl+gGB+FVBXr0YckEj5zEVPaVHIKUcAnsKStbw1Zfbdct0IykZ81vovT/x7aKtuxg9rnd6NYf2bpMFuQA6rl8d2PJ/U4/Cr1FFYM4nrqFFFFIQU1qdTSKaA808TnPiS+/66f0FZdbPi2BovEVyWGBJtcH1BUf1B/KsbFbrZHdF3SCug8EOE8Y6duOAS4/Hy2rn6u6Te/2bqtpeMWCwSq74HJXPzD8RmoqJuLS7G1J8tSL8z3XFJilVgygg5BGQRRXgs+qE6V5p438J/YXfU9PT/RXOZo1HERPcf7JP5H26el9KayhlKsAysCCCMgg9QRWtGs6UrrYwxFCNaNnueBEU011/jHwgdHka9sFLWLnlRyYCex/2fQ/ge2eSIr2oTVSKlE+eq05U5OMhlLQaKZiKXbyvL3Ns3btuTjOMZx64AplLRRYd2JilopVVmZVQFmYgBQMkk9gKV7AKoLsAoLMxACgZJPpivVfBXhL+xbb7ZfKDfzDp18lfQe/qfw+sPgrwaNKQahqUYN+4zGh58hf/AIo9z26euexNebiMRze7HY9rBYPktUnv0QhpKU0lcLPUMfxdKIvCepMTjMQXJHqwH9a8XPWvUfiTfC30CG0B/eXU3TH8Kjn9Sv615d3r1sCmqbfc8HMpJ1bLohaUU0U8Cuw81noHgkY0In+9M5/kP6V0NYvhJNnhy26fMXPA9XNbNYyOSfxMDXN+ORnQ4T/08r/6C9dIa57xpG0mggqMiOdWb2GGH82FKO6Ck7SR59QaU0ldDOsO1eo/Ck50K+HpeH/0BK8uxxXpXwomQ2epwAt5iypIc9MFcDHv8p/SufFfwztwP8ZHoNFFFeWe6wpDS0000I8K8QKV8RamDx/pcv5bzWdXT/EGz+yeKpnAwtwiyjA9tp/VSfxrmWr2KbvBPyPmayaqSXmNrS8OsieILFpOV83H4kEL+pFZtS285tbmK4UBmhdZFB7lSDj9Kpq6M9z1zFBpkMqTwJLE25JFDKR3BGQakNc7ONjaSloNBAlFFFABRRRQAUhpaDQBQ1k40S++bb+5fn8On49Pxry1j81ej+LJlg8O3GeDKyxr9dwY/oprzgnJramddBWjcKQUUDrVmx2HwyTf4uZj/BZyEfXcg/rXrleVfCyBn1+7nwdsVtsJ7ZZgR/6Aa9Vry8S/3jPcwCtRQUhpaSuc7BK89+K7futKHqZef++K9Crzr4scf2T6/vv/AGSt8P8AxInNjP4Mv66o87ooor1WeAKtd/4GH/Elm/6+G/8AQUrgBXongpceHl9Wlc9Pw/pUT2Mqvwm/TTTjSGsTkY2lxRRQISiiigAooooAKKKKBhXAeMNP+yauZ0GI7ld/0bow/kfxr0DFYviux+26HKyjMlufNH0HDfpk/hVwdmaUpcsvU85NNpxptbHWSRTSQyJLCxSWNg6MOqsDkH86930TU49Y0a1vo8YmQFgD91ujL+BBH4V4KPWvSvhXqPmWV5pznJhkEqZPRW6gfQqT/wACrkxULx5ux6GX1OWbi9megUUUV5x7TCiiigQUUUUAFFFFABSUtJTAKKKKACiiikAUtJS0AApaQUtMYlFFFIQUUUUAFFFFMYUUUlAC0UlFAhaKSigApaKKACiiikAUUUUAJiue8cX/ANg8KXhDhZJgIVz33Hkf987q6E1558Vb35bCxVxyWmdfyVT/AOhVrRjzVEjDEz5KTZ5yeTSikpRXsHzgAZrt/A9j5dnPeMMNK+xCR/CPT6sT/wB81xSgn7oyT0A7mvVdOs10+wgtlx+6QLkD7xHU/icn8azmzOrLSxZpKWkrE5WFFFFABSGlpDQBxPjqAi/t5+drxbB7EE5/9CFcqa9A8ZWpuNE81Rlrdw//AAE/Kf1Kn8K8/NbR1R2UneKCjOaKSqRoev8AgTV/7U8Nwo7ZntP3LjvgD5T+K459Qa6SvGvB+vf2DraSStttJ8RT56AZ4b8D+havZq8fE0uSbtsz6PB1va013QlGKWiuU7CN41kRkdQyMCGUjIIPUEdxXl3jDwe2jSNeWKl7BzyOphJ7H1X0P4H1PqfSmyIskbJIoZGBBUjIIPUEVvQrypO626nLiMPGtGz3PADSV0fjTQItB1VFtT/o9wpkRD1j5wRnuPT/ACa5yvajJSSktmfPVIOEnF9AoxRSgUGYqxvK6RxIzyOwVVUZLE9ABXqfg/wUmiqt9qKrJqLDheqwD0Hq3qfwHcl/gbQNPs9ItdSSLfeTx7mlfkrnqF9B+prqq8zE4hyfKtEe3gsGopVJ/IU02lpDXFc9QKQDJwO9FYfi/XP7D0GR4223M+YoMdQT1b8B+pFEYubUV1JqTUIuT2R59431gat4jlEbbre1/cxEdDj7x/Fs/hiuco60or3qcVCKiuh8tVqOpNyfUKeOMn0porS0Ky/tDV7aAjKb975GRtXk5+vA/GqbsYs9E0uBrXSrWGQAPHEqtjpkAZq1SClrFnI9QNZHidPM8O3g5yAp49nWtc1XvoWubC5gT70sLIPqVOP1oT1EnZpnk5HNFKetJXQzsAdK7X4XXZi1+7teNtxBuyTzlGwAPwdj+FcVWl4c1AaV4isLtyAiTAOT0CsCrH8A2fwrKrHmg0dGHnyVFI94opB0pa8k+jCkpaSkI89+KVl8ljfKvQmFz+qj9Grzo17b4t0v+1vDd3Ai5lC+ZGMc7l5wPrgj8a8S7V6eFleFux4ePp8tXmXUSig0ma6ThO98F6oLnT2spGzLb/dyeqE8fkePpiumNeT6ffS6bex3VufnjPQnhh3B9j/ge1eoWF9DqdlHc2zZjcdD1B7g+hFYzVmYVIWfMic0hpxFNNQYNCUUUUAFFFLQAUGlqjq2qQaRZNcT8sciOMHl29Pp6nt9cUDUW3ZHMeOr8NLb2KNnywZJBnuR8o+oGT/wKuRNTXdzJd3Uk8zbpJGLMfc1DW8VZWO2KskgoooJCgsewzgd6oo9L+FFpt07Ub07syziIZHBVFzkfi7D8K7+sjwrpZ0bw3Y2cg/erHul5z87Hc3/AI8TWvXj1Jc02z6OhDkpqItJS0lZmoleVfE+UP4igjDEiO2UFcnAJZj09cY/SvVa8W8cXK3HjDUGQ5VGWPt1VVB/UGurCRvP0OLHytR9Wc/QKKBXpHiCr1r0zwonl+G7QHGTubj3dj/WvNFOAT6V6tpcDWmk2kDrteOFVYDswAB/Ws5mNV6FykNLTayOVhRRSUCCiiigApRSUooASloooGFIQGUhhkHOQe4NOpDTQHlOqWR0/U57Y5xG52k916qfyIqoa67xzZbZ7e9UcOPKc47jkfmCf++a5I1vF3R2xd0mJXQeCNR/s3xbaMxxHcE27/8AAun/AI8Frn6cGYYKMVYchgcEEdDSnFSi13Nac+Sakj6HpaztC1JdX0S0vQVzLGCwXoG6MPwII/CtCvGas7H0sZKSTXUWiiikMKKKKACiiimMSiiigQUUUUAFFFFIApaSloABS0gpaYxKKKKQgoopKBi0UlFMBaKSigQUUUUAFFFLQAUUUUDCiiikIKKKKAGmvG/HuofbvFlyFYMluFgXHbA+Yf8AfRavYJ5kgt5JpDtSNS7E9gOTXgFzcPdXEtxKcySuXY+pJya7MJG8m+x5+YztBR7kVKKSlFegeKbHhm0+2a7bLjKxnzWPpt5H/j22vSK5DwJbZa8uSvI2xK35lh/6DXYVjN6nPUeolJRRUGLCiiigApKWkoBEc0CXMEsEo/dyoUYexGK8pvLZ7O8lt5RiSJyh98d/x616ya47xvpRDpqcS5DYjmwO/wDCfxHH4Crg7M6KEraM5GkoNFanQHUYr1H4feJBf2K6VdSD7XbLiIn/AJaRjgfUr0+mDzzXloqe1u57O8iubWRo54WDIw7H+o7Y7jisa1JVI26nThq7ozv0Pf6TFYvhbxLD4j04SKBHcxYWaLP3T6j/AGT2/Edq2zXjSi4tp7n0UJqaUlsNNJS0YqTQ83+KIxqGnn/pi3/oVcJXefFP/j70z/rnJ/MVwYr28N/CR81jNK0gFKOlFA6Vscp7R4OOfCOmn/plj9TWzWL4NGPCOnf9cv6mtuvBqfE/U+qofw4+iG0UUdazZqhrOqKzOwVFBZmJwFA5JJrxzxZr7a/rDSruFtF+7gU/3fX6nqfy7V0fjnxakySaVp77oycTyqeGwfuj2B79/p14A9a9LB0HFc8t+h4mYYpTfs4vRbhQKSivQPLHgZrufBem+RZPfSDElx8seRyEH+J5+gFcno2myatqCWqEqD80jD+BR1P17D3NeoRxrFGkcahURQqgDgAcAVnJ9DGq9LD6KKUVDOdiUmcUtNIpIlnl+tWv2PWLqALtVZDsHop5X9CKo11Xjiz2XUF2o4lXYxA7jp+YP/jtcqa3Tujtg7xTEpSMjB6UlFUij23wbq39seGbWZ2zKi+VL67l4yfqMH8a3cV5Z8MtYFrqs+mythLseZGCePMUcj8V/wDQa9Trya0OSbR9FhantKafUWiiisTcaa8a8baIdF1+Ty1xbXOZYiBwMn5l/A/oRXs1YfirQV8QaNJbDAuE+eFj2Yf0I4//AFVvQqeznrszmxdH2sPNbHiZptSSxPDK8UyFJIyVdSMEEHBBpmK9U8BqwA1qaJrlxotwWi+eFyPMiJwG9x6H3rLpQalq4tz1fT9TtdVtxNaSbgMblPDIfRh2/ke2as15LbXc1lOs1tK0Ug6Mp/Q+o9jxXUWHjplCpqNtvx1lhIyfqp4z9CPpWTgzGVLsdjS4rIh8VaPLFua8WI8ZV0YEfkOfwpx8U6IP+YjGfpG5/ktKzM/Zt9DVorCuPGekW4/dyS3J9I4yMfUtj9M1h33jm8nXbZxJaLjlid7/AKjA/L8aFFsapNnV6rrFpo8G+6kHmEZSFfvOf6D3P/1q841TU7jVbx57g5J4VR91F7AD0/n1qtNM80rSSuzuxyWYkkn1JNR1pGNjeEFEKKKKssXrXR+BtFOs+I4mdf8ARrMieQ9i2fkX8xn6Ka56NGkkSONGeR2CqqjJZicACvavCOgL4e0NIGKtcyHzJ3XoXI6D2AwB9M96wxFTkjZbs7MHR9pUu9kb1FFFeYe6FJQaKQiC6uY7O1muZjiOFGkf6AZrwG6uJLy7muJjmWZ2kc+5OTXqXxK1QWmgJZIf3l44H0VSGP67R+Jryg816GDhZOXc8jMKl5KC6BQKBRXWecXdKtvtmqWtuU3rJKoZfVQct/46DXqwrgvBFp5+rSXDAFbePgnszcD9A3513tZTepzVnrYKSiioMGJRS0lAgooooAKWkpaACiiigYtIaWkNAGT4mtftegXIxlogJR7bTz/47urzU1680ayq0cgyjgqwPcEYNeS3MLW1zLBJ9+NijfUHB/lWtN9DpovRoipRSUVobHqXwuv/ADtDubNm+a2nJVcdFYZH/j2+u3ryn4YXhg8RXFsSoS5gzz1LIRgD8Gc/hXq1eViI2qM+gwU+aihaKKKwOkKKKKACiiigAooopjEooopCCiiigApaSloABS0gpaYxKKKKQgooooGJRRRQIWikFLTGFFFFAgooooAKKKKQBRRRQAUlLSUAc747vvsPhO7KybJJsQocdcnkf98hq8YPWvS/ipdMtlp9rxtkd5CO+VAA/wDQjXmvevTwitC/c8XMJ3q27ISnCkpRwCfSuk889D8HQCHw+j95pGcj3zt/kordqrptqbLTba2IUNFGFbb0LAcn8Tk1ZrnepySd3cKSlpKRAUUUUAFFFFACGoL1rVLGY6gyJaspV95xnPYdyfTHNF9fW+nWr3N05WNeMDqx7ADuT/8AX6AmvNdY1m41i7Ms7bUXIjiB4Qe39T3/ACFNJs3p03L0Kt2kUd1KtvL5sQYhH2lSw7HB6VDSUtbHVbQQ0lLRQBc0zU7rR75Lyxk2SocHIyHXupHcHHT6HggEexeHfEVr4jsvOgIjnQATQFssh/qPQ/yOQPEelXNP1K60m8W6sZTFMoxkDII7gg8Ef4D0rmxGHVRXW52YXFOi7PY95pMVgeFvFMPiO0wwSK+jH72EHr/tDvt/kePQnoK8mUXFtNHvQmpxUo7HnHxU4utM/wByT+a1wNd98Vf+PrS/+ucn81rga9nC/wAJHz+N/jyFFKOhpBSjpW5yHtHg4Y8JaaP+mX9TWzWT4TGPCum4/wCeArW/SvAqfG/U+qo/w4+iEPJx3ri/FvjWGzjuNO04s10cxvMOFj7ED1PUZ7dqg8UePxC8lnorBmXh7kjIz3Cf4/l6152zFiSTkk5Jrsw2Fu+eaPOxmOsuSm/VgzFiSTknrmmmlpK9M8YSkp2KSkM6fwfrFtYyvaXChDO4Im98YCn264PYk+ua7yvHOoxXe+E/EH2yIWN5Jm5jH7tieZFHbPcj9Rz2NQ11MakL6o6fFJS0YrM5mJQRS0lBJl+IbA6jo08SjMiDzIwOpZe34jI/GvMzXsHSvN/E+mf2brEgQYhm/eR8cAHqPwOfwxWkH0OihLdMxqKUijFam5JDPLbTRzQMUmicOjf3WByDXuWgazFruj299FgbxiRM52MOGH4H9MGvCc113w88Qf2Vq5sbh8Wt6wCknhZegP8AwLp9dtcuJp80brdHfga3s58r2Z67SUUtece2JSUtFIRxfjTwYmrpJqFgCt+i5ZB0mAHT2bHQ9+h9R5WRg4OQc8gjBBr6HxXF+MPA66szX2mhUvcfPGThZf8ABvfoe/rXZh8Ry+7LY87F4Tm9+G55XSVJLFJbzPDNG0cqHDo4wyn0IplegeO9GJRS0YosIbiinYoxQO4lJS4oxSASiiikMKOlORHeVY4kaSRztREUszH0AFeleDPATWMyajrKI1wuGhgyCsR67j6tnp2HXrjGdWqoK5vRoSqysthfAPg97Lbq2pxFbll/cQuOYgRySD0Y9Mdh7kgd9SYpa8yc3N3Z7tKlGlFRQUUUVJoJSUtcl4/8QDSNHa0gcC7u12gA8onRm/oP/rU4xcmkiak1Ti5Poef+MNbGt+IZ5o2zbxfuoT6qO/4nJ/GsPGTSZpa9eEVGKSPm6k3OTk+olKBk0Vb0yxOo6jBaDOJWwxHZRyx/IGqehB3Pg+y+yaHHIwxJcnzj9Dwv6AH8TW7SKoUAAAAcADsKWsHucUnzNsKKKKRAlFLSUAFFFFABSikpaACiiigAFFFFAxDXnXiy2+za/MQuFlAkHvkcn/voNXoprjvHduA1lcAHcwaNj24II/8AQmq4PU1pO0jkDSUppK2Oo1vC159h8V6XPjcPtAjIzjhwUz+G/P4V7pXzqWdfmiYrIvKsDgqRyCK+gdPvEv8AT7a7iz5c8ayLn0YAj+dcGLjqmevl0vdcS1RRRXEemFFFFAgooooAKKKKYwoopKAFpKKKAFopKWgQClpBS0DEooopCCiiimAlFFFIBaKKKYwooooEFFJS0AFFFFIAooooAKQ0ppppgeW/FCYv4gt4gciO2Bx6Es39MVxVdD47m87xhf4IIXYg/BFz+ua56vWoq1NHzuKd6sn5hVvTYVuNStYnXcjzIrD1XcM/pmqgra8KR+Z4iteMhdzH2+UgfqRVy2OZ6HooopcYpKxZxsKKKKQgooooAKACxwOppDWV4lvvsGg3DqcSS4hT23Zz/wCOhqLFQjzSscf4p1r+1dQKQnNtASkRH8R7t+OOPYD3rBpxOaSt0rKx3pJKyAUtGK0NG0ibXNTisoDtLfNI+P8AVoOp/oPcilKSirscYuTSRQxRiu9134eeVCZ9GLttX5oHOWbHUg+vt+XpXCyIyOUYFWBwQRgg+lKFSNRe6zSrRnSdpIjIpKUiirsYksM0kMyywyNHKhBV1JBB9Qa9J8LePY74pZayyRXOAEn+6kh9D2Vv0PtwD5jSg1hVoxqLU6KGInRfuvQ7v4pt/p2mr3WJyfxI/wAK4KrV1e3F6IRcytJ5KCOMsckKCSBn2yaqmrpQ5IqPYmvUVWo5LqApwptOBxWhiey6He22n+C9PubudYoEt1yzdzjoB3PsK4nxL48uNVje1sA1taNkMc/PIPc9h7D8zXPXmq3N7a2lrK48i1jEcSDgD1b6nuf6VRJrkhh4qTlLV3O+rjJSioR0SQhOaKKWupHAFGaKt6bp9zqt6lpZxmSVj+CjuSewpSkoq72Gk27IqEce9IRxmvV7bwNp8GhS2L4kuJfma5I5D9iPQD0+teX3lpJY3k1tOuJImKsPcVFKtCpdLodFbDTopOXUr09HZGV42ZHQgqynBBHII96aRSCtDnPVNC1RdY0uO44Eo+SVR2cdfwPBHsa0TXnng3UjZ6wIXOIrkbCCeAw5U/zH4ivRKxaszkqRtIbSU6kNIxENY/ibSjqulMIlzcQkyRgDk+o/EfqBWxR0pp2ZUZNNNHkFGK6Pxbo32K7N5Av7i4bLAfwOeSPoeSPx9q50it07q6OxNNXQ2kI3DB6U4000xo9b8B+Kv7bsRZXbj7fbKASTzKg4DfXsffB74HYV89Wl3PYXcV3aSGO4hYMrD+R9j0I7ivavDPiKDxHpizRELcIAs8WeUbH8jzg/1BA8yvS5HdbM9zB4n2i5Zbo26KWkrmO4KKKKBGLrvhfTvEEWLuLbMowk8fDr+PcexyK831vwFqmk5kgQ31uOd8S/OB7r1/LP4V7DSVvTrzhtsc1bC06urVmfPPXPscH2pK9x1XwxpWs/Ne2aPJ/z0XKP/wB9Lgn6Vy178K4XINhqUsQ6lZoxJ+RBXH611xxUH8Wh5tTL6ifu6o84oxXWzfDbXYslPsco7BJTn9VA/WqR8DeI+2lOfcTxf/F1t7am+qOd4aqvss5+iuki+H3iKZwps4oR/eknXH/juTWvY/Cu8kOdQ1CGIBvuQIXyv+82MH8DUyr011Kjhasn8LOCYhRknAFbuheD9V15leKE29qSCbidSAR/sjq316e9elaT4H0XR2WRLUXFwpyJrj52BzkEZ4U+4Aroug4rmqYu+kUdtLL+tRmD4e8Jad4dTNuhkuWGHuJOXPsPQew9s5re60Utcjbbuz04wjBWirIKKKKRQUlFMklSGJpJXCIgLMzHAAHc0biehV1TVLXR7GS8vZNkSce7HsqjuT/9foK8P1fVJ9Y1Oa+uWy8rZAHRF7AewGBWz418TJ4g1FFtt32O2BWMsMFyerY6jOBgHsO2SK5mvQw9LlXM92eLjcT7SXLHZfiFAoorpOAUDJrtvBGmeXBJqEgw0v7uLP8AcB5P4kf+O+9cvpGmvquoxWqZUMcyMP4FHU/XsPcivUIokhhSONQiIoVVAwAoGAB+FRKXQyqysrD6KKKzOZhSUtFBIlFFFABRRS0DEpaKKBBRSUtABRRRQMDXP+MoTNoDMCP3UqyHPpyv82FdAazdei8/Qb1BwREX/wC+SG/9lprcuDtJM8wNJQetFdDOwK9n8BXbXng2wL7d0YaHA7BWKqP++QK8ZHWvUPhVcBtFvYCxLR3O4A9lKLj9VauXFq8E+x35fK1W3c7qiiivNPbCiiigQUUUUAFFFJTGFFFFIQUUUUAFLSUtAAKWkFLTGJRRRSEFJS0lABRRRQMKWkpaYBSUUUgClpKWmIKKKKQBRRRQAhprdKcajkbYu4kADkk9hTW4N2R4Z4jlaXxJqTPnP2qQc9gGIH6AVm0hdnbc7Fmbkk9SaK9mKtFI+Zm7yb7i10vgYZ12X2tm59DuT/69czmuv+H8Qa4v5SBuVI1U+x3Ej9BSk9DKWiZ2ZFJTjTaxORhRRRQQJRRRQAhrkfHs/Fjbg/3pCPXoB/Jvzrria4Txyc6zCM/8u68Z6fM3/wCv8auC1NqC945mlooFbHWKBzXqXw80kWWhm9kXE16d2SORGOFH82/4FXlpzsbGc4OMV75a26WttFbwrtjiRUVfQAYArhxsmopLqejltPmqOT6DwMVzPinwdDraNc2u2G/Aznosvs3v6H8/bp6K86FSUHeLPZqUo1Y8sloeC3NtLaXEkFxG0csZwyMMEGoa9j8S+F7XxDb5bEN4g/dzAfow7j+Xb38m1CwuNNvJLW7jKTRnDDsfQg9wfWvYoV41V2Z8/icLKg/Iq0lKRSVscoZpKKKQCUoNJRQMdmlpopaAFoAoArZ8PeGrvxFclIf3VvGR5s7Dp7D1OP8APIpSkoK7ehUIObUYrUr6Nol5r14LezTgYMkrD5Ix7n19B3/OvWtC8P2fh6z8m1Xc7YMkzD5pD7+3tVjSdItdEsFs7JNsa8ls/M7d2Y9yf/rdAKuGvJr4h1HZbHvYTCRormlqxuK8z+JNgLfXIbxBhbqEbj6svB/TbXplcV8Tot2m6fLg/JM657cgH/2WlhZNVV5jx8U6Db6HmxooNLXsnzpJBM1tMk8f34mDr9Qcj+VeuowdAwOQRkH1FePrXqehMH0GwIO7/R4xn1IUA/rWczGstEy/SUtJWZysSiiigCG6tory1kt513RyDaR/Ue46j6V5rq2my6TfvbS8gfMj4wHU9D/j7g16fis7W9HTWbAxEhZ0y0TnsfQ+x/wParjKzNaU7Oz2PMiKMVLPBJbTvFMhSRCQynqDUVbeh0iVb0zU7rR7+O9sZdkycYPIcd1Yd1OOn4jBAIrEU3BqZRUlZlxk4tOL1PbfDXie08R2qtCypcoP30BPKnjJHquTwffnB4rdr56triW0uUuLaRop4zlHU4IP+e3evU/DPj+z1by7XUClrfHCjP3JTj+E9jn+E+owTXnVqDhqtUe1hsYqnuy0Z2dJRS1zncJRRRSEFFFFABRiiigYUUtJQAUUUUAFFJRQAUUtU9S1K20mye6vJRHCnfuT2AHcmmk+gm0lqWHkWKNnkZVRQSzMcAAdSTXlPjXxj/bj/YrBnWxjbLN084jpkf3R1AP1IzjEPirxtca8GtoFa3sc52Z+aTB43H9cDj64BrlTXbQoW96R5GLxnN7kPvE6miinAV2HmiClCkkYBJPYDJJpQM113hDQtxXUrqPgf8e6sOv+3j+X5+hqZSsTKSirmv4Z0X+ybDMoH2mfDS852+i/h/Mn2rao6UlZtnLKTbuxaKSikQwooooEFFFFAC0lLSUgCiiimAoopKWgAoopKBimq9zB9qtZoM482No8+m4Ef1qc00HawPpQho8gPWip7y3Nrez27cmKRozj1BI/pUFdO6O4Uda9C+FMo8/VIsAEiJx6n74P5cfnXntdt8L5NviK5j4+e1LdeeGX/wCKrDEK9NnThHatE9Uoooryz6EKKKKQgooooAKSiigAooooAKKKKACloooABS0UUxiUUUUgCiiigQUlLRTGJRS0UgCkpaKYCUUtJQAtFFFIQUUUUAFZXiR/L8Nam24L/osmGJ6EqQP1Natc946lMXgzUWHdVX83Uf1qo/EkRUdoN+TPFT1oo70V7R8yw713HgKHbZ3k+fvyiPHptGc/+PfpXEV3/gaPZokr/wDPS4Yj8FUf0rOexFV+6dGabSmkrI5GBpKWkoJCiiigY01wHjP/AJGBz2MUePyr0AiuH8dRkanbSY+VoNoOOpDNn+Yq4OzNqPxHMUUUVqdRJbyiC5hmb7sbq5+gINe/AdK+fSu5CD3Fe5aBqI1bQrO843SxjeF6Bhww/AgiuDHJ2TPWyt6yRfIoxSkUV5p7AmKyPEHhy18Q2nlz/u50H7uYLllPp7j2rYxSYpxk4NNPUmcIzXLJaHhmraTc6NfPa3i4ccqw6OOxB7iqOK9u17QrbxBp7W1zlXHMUoGSjevuPUd/yNeOanptxpOoS2d0m2WM4JHRh2I9jXs4euqy13R8/isK6LutikaSnGm1ucgUCigUgFpwpAK6rwd4PfXn+13oZNOQ8Y4MxHUD/ZHQn8B3xFSagrs1p05VJKMUQ+FPCM/iGXzpi0OnofmfGGkI7L7ep/yPWLKxttOtUtrOJYoUHCqMD/8AX71JDBHbwpFCixxIoVVUYAA6ACnV5Nau6j8j3sNho0V3YGkNKaQ1gdYmK4f4oShbDTo+7SyN+QH+Ndx3rzf4nXgl1SztFKn7PEXYA8guckH8FU/jW+FTdVHHj2lQZxFFFAr2mfOCgc16Z4W/5Fuy/wB1v/QjXmi9a9T0WMRaJYoARiBCQRg5IBP6momYVti9SUtJWRzMSiiigQUUUlA0ZGvaDFrEJdMJdovyP0DY7H29+36V57NBJbyvFMpSRCQykcgivWaytb0KDWIs8R3KjCS46+zeo/l+h0hK25tTqW0Z5vikNWbuznsbloLmMpIvUHuPUHuPeoCK132NxuKQgHqKcRSUmikzrvDnxAvNIjS11BDd2i4CsDiSMegJ4YD0P54r0rSdc0/W7fzdPuUlA+8ucOnsynkV4PT4ZpLaZZoJHilQ5V0JBH0IrlqYaMtY6M76OOnDSWqPobOKSvK9I+Jt9aBY9UhF3HwPMQhHA+nRv0+tdnpnjnQtTACXqQSkZMdx+7I9sng/gTXHOjOG6PTp4qnU2Z0VFFLWR0CUUtJQAUUUUAFJS1R1DVrHSYt+oXcMAxkeYwBP0HU/gKaTuJtJXZd6UhPUngDua4bVvihY24KaTbyXb9pHzHGPf+8fpgfWuG1nxRquu7lvbkiEnIgiG1B/j/wImt4Yect9EclXG0obas9G1/4g6dpaGKwZL666fI37tPcsOv0H6V5prGt32uXfn38xcjOxBwkY9FXoP5nvms0H0pa7adCMPU8qviqlXfbsBoxS0VqcoUo5pQM1s6BoD6vKXk3R2qHDsOCx/uj+p7VLYm7K7JfDWgHVJvPuVxZxtyMf60j+H6ev5euPQOlRwwx28KRQoqRoAqqBgADtT6hs5pzcmFFFFSZthRRRQIKKKKAClFJRQAtBopKACiiloASloooAKSlpKAFNMIp1NNND6Hl+uoU12+GMf6Q7fmxP9ao1seLBt8SXQ/3CP++FrGrdbI71smOFdf8ADRtvixh/etZF/wDHkP8ASuQFdN8P5Wj8YWgVtokWRGH94bS2PzUH8Kisr036G2Hdq0fU9joooryD6QKKKKQgooooAKSlpKYBRRRQAUUUUgFooooAWiiimMSiiikIKKKKACkpaKYwoopKBC0UUlABRRRQAUtIKWgAooopAJXJfEq6Nv4VMSqrC5nSNieqjlsj3yg/Wutrivin/wAi5an/AKfF/wDQHrWkrzRjiW1SlbseV4oopa9g+bAV6L4Qj8vw5CdxPmO74Pb5iMfpn8a86r0fwif+KZtB7yf+jGrKZFT4TZNJS0lZHLIKDRRQSJRRRQMQ1ynjuEm2s5x91WZG+pAI/wDQTXVmsfxTaG78Pz4BLQETL+HB/wDHS1UtGaUnaSPODRSmkrY7A716V8MNT83T7nTXOXt381Af7jdcfRgf++q81xxmtPw/rD6HrMF6uSinbKo/iQ/eH17j3ArGvDng0tzpwtX2VRPoe4GimQTR3MEc0TK8cihlZTkEEZBFPNeK9D6RMTFLRRSKErB8V+Go/EVh8m1LyHJikPf/AGT7H9D+Nb1FVCbg1JbmdSnGpHllseA3VtLa3EkFwhjljJVlI5BFQV3fxSgjTUNPmVAJJInDMB12kYz9MmuE717lOfPBS7nzdel7KbjcKUCkFOWrMTr/AAf4IbWQl/qB22GfljVvmlwcdui5B9/p1r1KKNIIlihRUjRQqIowqgcAADoKxPBChfCGnehQn82JrdzzivGxFSU5tPofRYSjGnTTW7QUUUVznWIaSlNJSZQ2SRIUeSVgkcalnY9gBkmvD9b1J9W1e6vXzmZyQD/CvRR+AwK7/wCImuC009dMhP765AaXnlYwePzI/Ie9eZHmvUwVK0XNnh5lX5pKmum4UCkFKK7WeWWrC1N7ewWy5/eyKmQMkDPJ/AZNesCuF8E2Pn6jJdsPkt1wpP8Aeb/Bc/mK7qs5M5az963YKSloqDFiUUUUCCkpaKYCUUUUh3KmpaZbarb+TcpnHKOOCh9Qf6dDXB6voVzpMn7weZC3CyqPlPsR2P8AkV6PSOiyRsjqHRhgqRkEehFXGbRrGbR5IRSV1+s+ECMzaWMjqYGPI/3Sf5H8+1clLG8UjJIrI6nDKwIYfUGtVJM6ItSWgyiiigYlIQDTsUUh3Lmn6xqWlFRp99PAqtuCK52E+pU/KfxFbdr8SPEFsGEkttdZxjzoQMf98bf19K5jimmodKMt0bQr1IbNnfQ/Fm5SM+fpMUj54KTlBj8VNWofi1A3+v0mZPXy5g+PzArzeis3hqbN1jqy6/gei3XxYHIs9Lbthppcd+eAPT3rNuPijrEu4W9tZwgjjKszD8c4/SuMpaaw9NdCZYys+puXfjXxBeoyS6nKiE5xCFjI9gVAOPxrCYZJJ5Y9SeSaWjitYwjH4UYSqTn8TbEooxRiqIAU6kpQKRLFFLjFS21rNdzrDbxNLK3RVH6k9h7mu20PwnFZFLi/2zXAOVTqkf8A8Ufft26ZqXKxLkkZGg+FJL4Lc3waK3OCqdHkHr/sj9T7cGu2ihSCJY4kVEUbVVRgAegFSE+tJUN3MJycgoooqTJsKKU0lAgooooAKKKKACloooAKSiigAooooAWiiigApKWkoGFNNOpDTQHnvjNNviGVv78aN/46B/SsKug8boV14NkkPChHsOR/SueraPwo7oaxQ6t7wZcR2vi3TpJWCoZCmT6spVR+LECsEd60dA58RaYP+nuL/wBDFE1eDXkaU3aafmj3iigdKK8Y+nCiiikIKKKKACkpaKAEooopgFFFFIBaKSloABS0gpaYxKKKKQgooooABRRRTAKKKKQBSUtFMBKKWkoAKWiigYUUUUAJXF/FIZ8N23/X4n/oD12lcx8Q41fwhcsQCUeNgcdDvAz+RNaUXaa9TDEr91L0PHaWkpa9dnzYCvSvCyFPDdmD3Vm/NmP9a80Fei+DDnw3EM52ySDHp8xP9azqbEVfhN2kpTSVicrA0lFFMQGkpaKAENIVV1KuAVYEFT3B6ilpDTQ7nluq2DabqU9s2SEb5Se6nkH8sVSIrv8AxZo32+zF3CuZ4B8wHVk6/mOv51wRFbRd0dkJKSG0UUUyz0L4deJRtGi3j4IybVj3HUp9RyR7ZHYV6DXz8rsjK0bFXQhlYHBBByCD2NeseDvGCa7bra3jImpRjBAwvnAD7wHr6gdOvTp5uLoWfPHbqe1gcUpJU5bnVUlLSVwHqCGilpKBnnfxWH7zSfpN/wCyV58K9C+Kv39J/wC23/slee17WF/hI+cxv8aXyAU4dKaKcOldCOM9n8EjHg/Tf+uf9TW5WJ4L/wCRP0z/AK5f1NbdeDV+N+p9VR/hx9EFFFFZGolUdV1S30fTpr26I2Rj5VzgyN2Ue5P5cnoDVueeK2t5JriRY4olLO7dAP8APbvXkPirxPN4hu8LujsomPkw5/8AH29WP6dB3J3oUHVl5I5MViVQh59DJ1PUJtU1Ge8uTmWZyxAzgeijPYDAHsBVTrQaK9qKUVZHzspOTu9xaUdMnpTa3PC2kf2rqatIube3IkkyOCf4V/MZPsPeiTsS9Fc7Pw3px03RYY3XbLJ+9kGOQx7H6DA/CtSlNJWLZxS11YlFKaSkQwooooEFFFFABRiiigApDS0UDuJVTUNLtNTj2XcIfA+Vxwy/Qjkfyq3RTuUpNbHEah4KuYcvYyi4XsjYVx+PQ/pXPT201tKY7iJ45B/C4wfw9a9XIqK4tobqMx3ESSof4XUEfkatTfU1jWfU8oIpMV3WoeDLWYFrF2t5P7rEsh/Pkfgfwrmrvw7qdoxD2kkg7NCN4P5cj8QKtSTNVJPZmUabUkkbROySKyspwVYYIPoRUZplhRRRikMKWkpaYgooooAKKVVLEKoJJIAA6knoK6jTfA91Ph9QkW2TqUUhnP1PQfrSlJITaW5zCqWdVUEsxwqgZLH0A710uleDLm5CyagxtYjyEGDI39F/U+wrrNO0Wx0pcWkCq+MGVvmc/Unn8BxV6s3JsxlV6RKtjp1rpsPl2kKxKeuBy3uT1P41ZooqbmVwooopEthRRRQSFFFFABRRRQAUUUUAFFFLQAlFLSUALRRRQAUUUUAFFFJQMKDRQaAOE8d/8he39fsw/wDQmrmRXR+OWzrka5ztgUD25Y/1rnBW8dkd0PhQ6tHQePEGmf8AX3F/6GKzhWp4chM/iTTIwcH7Shz/ALp3f0om/dfoaQu5q3c91HSiiivGPpwooopCCiiigAooooASilpKYBRRRSAKWkpaAAUtIKWmMSiiikIKKKKACiiimAUUUUAJS0lFAC0UlLQAUUUUDCiiigBK5/xwgfwfqAPZVb8nU/0roKy/EgB8NapkZ/0SXj/gB/wqo/EmZVVeDXkzwnPNFFFeyfNAOteg+BmJ0KQf3bhgP++VP9a8+713ngOQHSrlM5K3G7HoCq/4Gs6mxFT4TpzSUpptYnJIWkoopkhRRRQMSkNOoUbmAHU9zQCKepajBpNk1zcHgcIgPzO3ZR/U9hXmF5dG8upJ2RELnJWMYUfStHxJq51bU2ZGP2eIlIRn+EfxfVjz+Q7Vj1rBOx2wgorzFoooqywp8crwypLC7JLGwZHU4KsOQRTKKTVwTad0eseFvHFvrQW1vvLtr/gKM4SX0256H/Z/LPOOqxXz8Dn8Old/4X+IOxI7PWyePlS6Azx2DD/2b6Z7mvNr4VrWH3Hs4XHp+7U37noVHekjkSaJZInDxuAyspyCD0INLXCere5538VT+90of7Mp/wDQP8K8/Fd98VRi60z08uT+a1wXpXtYX+Ej53G/x5CUvakpe1bo4z2jwXx4P0z/AK5f1NbdYvg3/kUNN/65f1NbVeDV+N+p9VR/hx9EFQ3V1BY2slxcyrFDGMs7dvw7n2FUtd16z0CyFxdtlmJEcS/ekPt6D1J4H1wD5b4i8VXniKQLNiK2RsxwIeB7n+82O/1wBmtKOHlUeuiMMTi4UVbd9iz4q8Wy+IJvJhDRWMbZRCeXP95vfHboP1rmSaCaTpXrQgoKy2PAqVJVJc0goooqzMK7LwbrdvDGmmSosTsxKSDpIxPRv9rsPXAHpnjaAfrSauJq6sey0hFYvhfWTq+m4lObmDCycdR/C344/MGtsisWrM5JxadmNooNFBmxKKKKBBRRRQAUUUUAFFFFACUUUUBcKMUUtA0xuKKWkNMZ5drR/wCJ3f8A/XxJ/wChGqNXda/5Dd//ANfEn/oRqlW62O5bBUsChpUVujMAfoTioqkiOJYz/tL/ADFAM7f/AIQSz3Y+1XOOnG3/AAriruMQ3c0SZ2pIyjJ5wDivXj/rP+BV5HqBzqN1/wBdX/maiLbM6bbbuV6M0Umas1LmkjOs2A9bqIf+PivWq8m0fnW9P/6+ov8A0MV6zWU9zKrshDTacaSoOZjaWiigkKKKKBMSiiigAooooEFFFLigBKKXFJQMKKKKACiiigBaKKKACiiigApKKKBi0hopDQB574zff4hlH9xEX/x0H+tYIrZ8WuG8S3eOi7B+SKP51jCt4/CjvirRQora8I/8jbpn/Xb/ANlNYo610fgMbvGVhxnHmHr0/dtU1XaD9DSj/Ej6ns9FFFeQfTBRRRSEFFFFABRRRQAUlLSUwCiiikAUtFFAAKWkFLTGJRRRQIKKKKQBRRRTGFJS0lAgooopAFAoopgLRRRQMKKKKBCGq99D9osriEjPmRMmPXIIqwaTv+NC3Bq6sfOwpalu4GtryaFxhopGVuMcg4qKvbTukz5eSs7CV2fgCQYv4ie6MB9dwP8AIVxtdR4DmKapcw44eDeT/usB/wCzVE9iJ6xZ3RpKWisDkYlBopKZIUUUUABrM8QXRstBvJFOHZRGv/Ajg/pmtI1zfjiULo9vHg5efOc9MKf/AIqqirsukryRwZ5NFBorZnaFFKOldrL4FN5oNjfacwFxJbRySwseJGKgkg9iT26fSolUjBrmdrmtOjKpflV7HE0VLcW0trO8M8bRyIcMrDBBqLFaW6oysFGaMUVNgN/w74uvfDriNQLi0JJMDHGPdT/Cf0/nXqGi+IrDX4C9lIfMX78L4Dp7kenuOPx4rxGpLa6ns7hJ7aV4pUOVdDgg1zVsNGeq0Z3YfGzo6PVHc/FX/XaX6hJf5rXn9bmveIpvEFvZfakAuLZWV3XhZMkEHHY8c9vp0rENa0IOEEmY4moqlVzXUSlHSkpVrU5z2rwgQfCembf+eI/Pv+tVPEvjKy0FGiiZbm/xxCp+VD6uR/6D1+nWuNufF81j4bsdJ0yXy5EgHnzLwQSM7VPbGeT1z09+SJOfc9a4IYXmm5S2vserUx3JTUKe9ty3qep3erXr3V7KZJW4B7KOygdAB6Cqmc0DmjpXakkrI8yUnJ3e4UUUYpkhS4re0DwffeILN7qKWKCFWKK0obLkdcY7ds+ufStuL4dJZwS3Wo6gZI4Y2kMUCbd21Scbjn09KxlXpxdr6nTDC1Zx5ktDhSKKU0VucxqeHdSOma1BKzYhc+VLk4G0nr+BwfwNeoV41jcMHvXrGi3p1DRrW5bJdkG4kdWHysfzBrKa6mFZbMummmnGkNQczEpKWkoEFFFLQAlFFFABRRRQAUlLSUALRRRQAU00tNNNAzy/Wv8AkOX/AP18yf8AoRqjV7XP+Q5f/wDXzJ/6Eao1utj0Fsgp6feXH94f0plSRcyJ/vL/ADFIGewkfOPrXkN+c6hc/wDXVv5mvXs/vB9a8fvDm9uP+urfzNRAyorVkNJmlpK0Ni9oxA1vTz2+0xf+hivWsV41G7RuroSHQhlI7EHINejeHPFEetboZkWG7XnaD8rj1GeRjuOfXJ5xnUT3M6kW1c3jTTTjTTWRyyEoopKZItFJS0BYKKKKBWEopaKBWEpaKKBhRRRQIKKKKACiiigYlLQaSgBaKKKAEooooGFNNOoXl1FCHueXa+3ma/fk/wDPw4/Ikf0rPFTXkxub2eY4zLIznAwOST/Woa3WyO7oL2rrPhvB53i5G6eVbyP9eVX/ANmrkxXcfC6Itrt5KFBWO32ls9CzAgf+On8qzru1Nm+FV60T1KiiivKPowooopCCiiigAooooAKSlpKACiiigBaKSloABS0gpaYwpKWkoAKKKKQgooooAKSlpKYBRRRQAUCiigBaKKKACiiikAhpD0pxpppgeH+LLdrbxTqSN1MxkH0Y7h+jCseuw+JVp5PiVZVBxPArEnpkZXA/BR+dcgelexSleCfkfOYhctVrzG1t+E5jF4itRu2q+5W9/lJA/MCsSrNhci0v7a4YkJFKrtjqVDAkflVS1TMWr6HrdJSjpQa52cTG0lLSUEhRRRQA01yvjwn7HY+8j/yFdUa5nx1EzabayjJEcpBwOmRx/wCg1Ud0aUviOFNFKRRW7OwOqkete16Bci98PWE6hRut03BeisFAIH0IIrxQV6f8OL4XHh57Ukb7WVlx32sdwP5lh+FcOOV4J9j08snaq49zY1zw/Za7blLpcSqMRzKPmT/EexrzDXfDt5oU+24UvAxxHOo+VvY/3T7H8M9a9jIqOaGO4haGZFkicYZHGVYe4NcVDGSpaPVHo4rBQrarRnhRpCMV2/iTwG1ur3WjBpIhy1v951H+yerD26/WuIIr16dSNWPNFng1qE6MuWSEpM0ppDVGIZooooASlBxRRQMUmm0tGKADpRSgVd0vSb3Wbr7PYQ72GN7nhUHqT/TrUyairt2Q4xcnZblNVZ3VEUu7EKqqMlj6AV2/h74fltt1rgIH8Nqrf+hn+g/PtXR+HvCln4fi38T3rD552HT2X+6P5962zXmV8Y5e7D7z3MLlqjaVTfsMjjSGJY4UWONRtVVGAo9AKzPFNw1t4W1CVGw3lhR/wJgp/Q1q4rlviHeLBoCW2f3lxMMDH8K8k/mVrlo3nUXqd2IahRl6HmhpKO9FfQHyYoHNeleEDnwzaexk/wDRjV5sBmvSfCIK+GrUe8h/8faonsZVfhNo0006kNZHIxtFFFAgooooEFJS0UDEooooAKSlooAKSlpKACmmnU000DPL9b/5Dl//ANfEn/oRqjV7Wv8AkN3/AP18Sf8AoRqjW62PQWyCpbYZniH+2v8AMVFU1r/x8xf9dF/mKQPY9eH3x9a8hvlKX9wp4IkYH8zXrhzmvMPEawjXLpreVJEdy+VOQCeSPzzURMqT1sZdJS0VobCVLDPLbXEc9vIY5oyGRh2P+HbHcVHQKBnqmh6zFrenrOmFlHyyxj+Bv8D1B/qDWia8r0bVZdGv1uIvmRvlljzw6+nsR1B/oTXoia9pckMcn2+3RXAYBpAGHsR2PtWLi0zmqQ102L1FUf7e0n/oJWv/AH8ph8QaQP8AmI2/5/8A1qVvIzdNmhS1m/8ACRaR/wBBGD9f8Kcuv6S3TUrf8WI/nRbyDkZoUYqmur6a33dQtP8Av+o/rV1PnUMvzKRkEcg0tRcjDFGKXBHajFAnESkp2KTFBNhKKWigVhKKKSgBaKSloAKKKKACkpaSgYUUUUAITTHlEMckpIAjUvk+wzTjVDXJhBoN85PWIpnH975f/ZqaHFXaR5fg8DuOKKU9aK6Du3AV6N8KIf3eqTYOGaNM9uAx/wDZq86A4r1T4XQmPw5cSEECW6YgnuAqr/MGubFO1M7MCr1l5Ha0UUV5p7wUUUUhBRRRQAUUUUAFJS0lAwooooEFLSUtAAKWkFLTGJRRRSEFFFFABRRRTAKKSloAKKKKAEopaSgAFLRRQAUUUUgCmmnU00Aee/FO2+XTrkKeC8bNg4/hKj/0L9a86r1z4jWpuPCskgP/AB7zJLjHX+H/ANmzXkfavUwrvTt2PDx8bVb9xtLjIx60lAroOI9Z0u5N7pVrcMVLyRKzY6biOR+eRVs1z/gm4Mvh5UxjyJXTPryG/wDZsfhXQGuZ7nLNWbQ2ig0lBkFFFFACGsrxLA1x4du1XJZFD4HoGBP6ZrVNMdFkRkkG5HBVh6gjBprcqLs0zyI0VYv7R7G/ntpPvROVye47H8Rg/jVY1vudwd66HwbrY0TXFaZsWtyBFKT0XnhvwPX2JrnqcPepnBTi4vqaU6jpzUl0Pe6TFch4D8SC/tRpd5IPtcC/umPWSMfzZenqRg84JrsCK+frU3Tk4s+qo1Y1YKURK5jxN4Mt9ZL3VmVt748scfJKf9odj/tD8c109FKlVlSlzRY6tGFWPLJHhd7ZXOn3b215C0MyHDKR+oPQj3FQV7TrOiWeu2hgvE5A/dyrw0Z9QfT26GvLNf8ADd54fudk4Mlu3Ec6j5X9j/db2P4Zr28PioVlroz5/FYKdF3WqMikoNJXQcVhaWkpRQIWgCnRRvNKsUUbyyudqRopYsfoK73w98PBHtuddwzdVtUOVH++e59hx9ayq1o01eT+RvRw86ztFGH4b8HXOvYnmY29hn/WY+aT12g9vf8Anzj03T9OtNKtRbWMKxRDnAHU+pPc+5qwqKiKiKFRQAqqMAD0xQa8aviJVH5dj6DDYOFBd33A00040lczZ2iAEkY6mvKPGesrq+uv5Dbra3HlREfxY6t+Jz+GK6/xt4hXTLBrG2cfbLlcPg8xRn+Rb+WT6V5j3r08BQf8R/I8TM8Sv4UfmFAoor1DxB6nHPpXquk2v2HSra3KhWjjAYDpux8365Nee+HLH+0NZt4iMoh81/ovOPxOB+Nemis5voYVX0FpKKKzOdiUUGkoELRSUUALRmkooAKKKKACiiigYUUUUAkJQBlhS0KPnX600PlPK9XO7WL0+txIf/HjVOrOpc6ndH1mc/8Ajxqsa6Oh3LYSp7JDJeW6qMlpVH6ioKAcVIM7bxb4kSNJNPsJQzMNs0ingDuoP8z+HrXD5zTjzTaSjYIpJC0UtORGkdVUFmYhQB3JOAKewxmKWpri2ltbh4Z0McsZIZSMEGo8VQMQUUuKSgkSg0UYpDCiiigYUDg5BOfUGiloA0LbxFq1of3V/ORjAEh8wAewbIFblj4+mTC39oko4BeFtpA7nByCfxFcnRUuKYmk90eoaf4i03UsLBchZD/yylG1s+gzwfwJrUxivG61dN8S6hpe1Y5vMiH/ACyl5X8O4/CpcOxlKlfY9OxRiuc0/wAbWF2wS5RrSQ8ZY7k/76HT8Rj3rokcSxq8bBkYZDKcgj2NRqjGUHHcQ0U7FIRSM2htLSUUCFopKKBi0lFFABSUtFADTWF4vmMXh+RQf9bKiH9W/wDZa3jXJ+O5mW1sYhja7u557qAAf/HjVR3NKUbyRxhoFJSitzrFFezeA7c2/g6wBGDIGk+oZiwP5EV4yQSp2jLHoB3PpXv+nWi2Gm2tovKwRLED7KAP6VxYyWiR6WWxvOUuxaooorhPYCiiikIKKKKACiiimMSiiikIKKKKAClpKWgAFLSClpjEooopCCiiigAoNFFMBKKKKAFooooASilooAKKKKQBRRRQAUlLSUAUdZtDf6PeWqgFpoWRQ3TJHH64rwWvoc814b4osf7O8SX9uFCoJS6gdArfMB+RFd2Clq4nmZjDRSMk0lKaSu48k67wDc7bu8tiWO9BKBngbTg/idy/lXbGvL/Dt39h12zlJwjP5b84GG+XJ9gSD+FeoGsJqzMKy1uNopaSpOcSiiigAppFOpKAOP8AG+mHMeoxjggRy4H5H+n5Vx5r1u5tory2kt5xmORSrD09x7jrXl+pafLpl9LbTDlDwezDsR9RWsZX0OujO6s+hUpM0EUtUak9rdTWdzHcW0hjmiYMjDsf6/TvXr3hrxBD4h04TKAlxHhZ4gfut6j/AGTzj6Edq8Zq9pWq3Oj36XdkwWReCCMhx3Vh3B/wPUA1zYnDqrHzR24PFOhKz2Z7eRTazNB1+28Q2Xn2/wAkqYEsLHLRn+oPOD3wehBA1TXiTi4tpqzR9HCamlKL0G1Dc20N7bSW9zGssMg2sjDII/z3qcikxzUxbi7otpSVmeReLPDn/CPX6CJ99rOC0W4/MMdVPrjI571gd6774ocDSvfzf/ZK4H0r6HDzc6Sk9z5fFwVOtKMdgpwpgpy1sch634GtLaLw1aXMVtCk8qN5kqoA7fMRy3U9K6E1heBmz4Psfo4/8iNW7XgV23N37n1eGSVKNuyGmkpTSVztnShKxvEviKLw9YF8LJdyjEER/ViP7o/U8epE+va7baBYGeYh5m4hgzzIf6KO5/DrXkd/fXGpXkl3eSmSaQ5LH9AB2A6Adq7MLhXUfNLZHn47GqjHkj8T/AjubmW7uJJ7iRpJZCWd2PJJ71FRSV7SSSsj5xtt3YtKBk0lX9H019V1GK1TO1jmRh/Co6n+g9yKHoSzsPBem/ZtNa7kGJLkgrnqEHT8+T9CK6SmRxrGioihUUAKoGAAOgp9YtnHJuTuJRRRSIYUlLSUCCiiigAooooAKKKKBhRRUV3dwWNq9xdSCOJOCfU9gB3J9KClG5ISFVmZgqqNxZjgAepNcjrHjULuh0pc9jcOP/QVP8z+VZOveJJ9Zfy0zDaA/LFnr7se5/QfrWJWkYdWdEKSWrNOfxLq1xt3X0q46eXhPz24zTYfEOqxMGXULlsdmkLD8jWdS1XKjSy7D55TPNJKwAZ2LEDpknNRE0tJVDQUlBopDClpKWmAtd38PvCpu5o9YvUxBGc28ZH32/vn2Hb357DNHwZ4NfW3W81BGTTlb5VPWcj/ANl9+/SvWY40iRUQBVUABQMAAdgK4sRW+yj0sHhW37Sa0OH+IXhr7XbnVrRczRLiZQPvKP4vqO/t9K80Ir6F4NePeN/D39h6sXgTFnc5aPHRG/iX8Oo9j7VWFrX9yXyDHYe37yPzOZooNJXaeWFJRU1usLXEYujIsBYeYUxuA7kZ4zSYyKivQbf4ZWt/bR3NlrLGCVQyMYQ2QR9RSP8ACicKfL1eNm7BrYgf+hmsPrFO9rnV9TrWukef0tdjP8MNYjZvJns5UHQlmQn8NpA/Osq68Ga9ZqWk02VkHeJlcn/gKkn9KtVYPqjOVCpHeLMOkqWeGS2lMVxG8Un9yRSrfkajIrRWexjsJSUtJSsAVZs765sX32lxLC2QTsYgH6jofxqtilFKw9z0Lw94nTUgttdkJd9ARwJfp6H2/L0HQkV46D+dekeFtV/tTSE8x91xBiOXJyTj7rHucjv6g1nKNjnqU7K6Ngikp5FNNQc7VhKKKKACiiigAooooAQ1wHja5E2uLEuf3EKqeeCTls/kwH4V34xkZOB3PpXk+o3RvdQnuT/y1kZsemTnFXBam9Bbsr0tJRWx0Gz4WtftvirS4c4xOJD/AMAG/wD9lr3GvK/hfZmfX7q6OCtvBt/4E54P5I3516pXm4l3nbse3l8LUr9xaKKK5jvCiiikIKKKKACkpaSmAUUUUgCiiigApaSloABS0gpaYxKKKKBBSUtFABRRRQAlLRRQAUUUUDCiiigAooopCCiiigAooooAaa8x+KFh5eq2t6o4mi8s4HdT1P4MPyr0+uX+IVh9s8LTOoy9u6zDA/A/oxP4VtQly1EzmxcOek18zx80lKaSvWZ88GMjHrXq+kXv9o6TbXOctIg3Y7MOG/UGvKBXbeA77fbXNkx5jYSoCex4IH0Iz/wKs5q+pFWN437HW0006krI5WJSUtJQIDSUppM0AKBk4FcX41vtPuGjhhYyXcLEM6gbQvdc9yD6cDmrninxJ9kSSwsX/fsNs0oP+rB/hB9fU9unXpwxOauKe5006dveYUUUVqbiUCjFLSAvaZql1pF4t1ZybJV4IIyGXupHcHH9eCAa9V8OeJbbxBb5TEV2i5lhJ6e6+o/l37Z8czU9tdzWdxHPbytFNGcq6nkH/PbvXNiMPGquzOzC4uVB23R7qRSVzHhfxnBrO21vdlvfdF5ws3+76N/s/l3A6jvXi1KcoO0kfR0qsaseaLPP/in10kf9dv8A2nXAV33xSP77Sx6LL/7J/hXA17eD/go+ex7vXl8gFOWm04V0nEeveBhjwfY/8D/9GNW8axfBQx4P0/8A3WP/AI+1bdfP1/4kvU+qw/8ACh6DaxPEviSHw9ajcolu5R+6hJ4x/eb0X9SeB3Ig8UeLrfQoXgt2WbUGHCdRF7t7/wCz+fv5Xc3Ut3cPNcSvLK5yzuckn3Nb4fCOb5paI5MZj1TXJDV/kSX9/caldyXN3KZZn6sf5AdgOwHAqv1pvWlr14pRVkeDJuTu3qFFFFMkM1t+HvEY0R2R7ZZIpWBd14cfQ9CBzxx1PNYdJQ0Oye56/Z3sF/bLPayLJG3QjsfQjsfarGK8s0TXJ9FuvMjy8LkebETww9R6EdjXpdlew6haR3Ns26KQZB6EeoI7EHgismrHLUpuOvQmopTSGpMGJRRRQIKKKKACiiigYUUU0mgClrWqLpGmvdFd75CRoSQGY+vsACfwx3rzvU9Xu9XnEl3Ju25CIowqA9gP69TgZJre8d3Ra6tbbAxHGZDg92OMH6BR+dcnWkI6XOylFKPmwpcUClArQsMUlStC6xJKUIjkzsYjhsHBwfY1FQFmJRRmigYlFLSE4BJOAKYAehJ6Cu38G+BG1MR6hrCMlmcNFbngy+jN6L6Dv9OtrwX4D8wR6nrURA4aG1cfkzj+S/n6D0oDFcNfEfZiephcHe06g2ONIo1SNQqKAAAMAAdABT6KK4z1BKy/EOjRa9pE1nJhWb5o3x9xx0P9D7E1qUUk7O6FKKkmnsz59u7WWyu5be4XZLExV19xUNem/EXw19qt/wC1rRf30K4nUDlkH8X1X+X0rzI169Koqkbnz2IoulNx+4SgGkorQwO6+HXiX7HdDR7x/wBxMc27E/dc9U+jdR75/vV6h1r52z02kgjowOCD2IPY17D4I8Tf8JBpey5YfbrbCzcY3j+FwPfHPoQe2K8/E0rPmR7GBxF17OW51FBFLRXIekQXFrBdRNFcQxyxt1V1DA/ga5nUfh3ot9loI3s5DzmBsL/3ycrj6YrrKKqNSUdUzKdGE17yPItW+Heq6eC9rtvoupMY2uP+Ak8/gSfauWeN4pGjkRkkU4ZXBDKfQg9K+hSOKx9d8N2Wu2zJcxL5wUiOUDDIcccjqM9jxXXTxb2mvmcFbL1a9NniFJipp4JLaeSGVSskbFWB6gg4IqI13HkiVpaHqraRqUdxkmI/JKo7qf6jqPp71m0opWuB7AjrLGsiEMrAMpByCDyDTiK5PwVq/mwNpszZaIboST1XuPw/kfausrBqzOScbOw2jFBopGYlLRRQAlKaSg0AZniG6+x6FdyZwzJ5a+5Y4/lk/hXmJ612njy7xFaWat1JmYfov/s1cV1NbQWlzspRtEWlpKXDHhFLOTgKBksT0FWWj1b4YWP2fw090dubudnBHXavyAH8VY/jXZ1R0TTxpOi2diCpMEKoWUYDMByfxOT+NXq8ab5pNn0tGHJBRFoooqTQKKKKQBRRRQAUUUUAJRS0lMAooopAFLRRQAClpBS0xiUUUUCCiiikAUlLSUwFooooGFFFFACUUtFAgooopAFFFFABRRRQAlQ3Vsl3azQSjKSoUYexGKnpppp2dxNJqzPn66tpLS7mtpRiSFyjD3BxUNdd8RtM+x+IRcqP3d3GGz23Lwf/AGU/jXJV7NOSnBM+brQcJuI3vWn4e1AaZrUEzHETHy5P908Z/A4P4VmUdRg02r6Ge57HQRWV4a1H+0tEgkZsyxjy5PcjjP4jB/GtUiudqzOOUbNoSkpTSUECGqWq3/8AZul3F0AC0a4QHuxOB+ROfwq4a5fxzNt0y2hGP3kxcjudq4/L5v5VUVdl01zSVziZJGkdmZizMSWYnJJPUmmUGitjtFq3YabdajJIlnC0zxoZGVeoX+v0qoBXqHw40wW2iSXzAeZdvwf9hcgD89x/Gsa1X2UbnRhqPtqiieYlMUhGa9S8T+CItUL3enlYrs5LJ0WQ/wBD7/n615ncW0tpO8NxG0csZ2sjDBBp0q0Kqut+wV8NOi7S2IDSZpxFJWhzjtx49fau18PeP3twttrWZIgAFuFGWX/eH8Q9xz9c1xAozWdSlGorSRtRrzoyvBnZ/Ei7hvG0qW2lSWJopGV0IIYbh/hXE08t8oGTgdBnpTKdKChBRXQdaq6s3JhThTaUHFWYnsHhe5gtfBVhcXMyQwpGQzyNjBDHj3PtXPeIfiJvWS20TcgOVN0ww2P9kdvqefpXES31xPaw2zzO1vBny4/4UycnA9yetVzXJHCx5nOWrbO+eNm4KENEkK7s7FmYsxOSSck03NJRXWcItOptLkDmgQvXr0rUtfD19d6LcaksZWCLBUEcyL/ER7Dj9fSul8MeBC6x3utpgHDR2rDn2L//ABP5+ld4EUAKFXaOMY4x6YrhrYxRdo69z1MPl7nHmnp2PCyKaRWz4l0r+yNduLZQRETviyP4W5H1x0/Csgiu6MlJJrZnmzi4ScX0GCun8F6t9j1A2UpxBckbc9Fk6D8+n121zNOR2VgVYqwwQVOCCOhpNXIlqrHshppqtpl4NR023uQRmRAWA6BujD8DkVZNYtHDJCUUUUEBRRRQAUGikoGFITSmkBAYFsBc859KBbnm3iicT+ILxlGNr7Mf7oC/+y5/GsmpLqdri4klkOXdizH1JOTUdbrRJHoLRIUU5eOT0FMq9pNqL7VrO1K7llnRWGSMruG7p7Zobsrjs27Hp9j4UhvPBFrp10hjl8oOGK/NHI3zH9TgivK9QsZtOvprS5UrLCxVh/Uex619ADoBXEfEXw2L6z/tW0T/AEi3X96oHLxjv9R/LPpXFQrtSalsz18ThV7NOO6R5bRS0ld7PIAV1HgOTS/7fSLUreN5XI+zSPyFcdsdMnsfUe9cxShypDKWVlIIYHBBHQg+tROPMmi6c+SSla59EDmiue8GeIR4g0VXlI+1wYjnUevZsehHP1yO1dFXkSTTsz6SElOKkuolLRRUjCkpaKAGlcjFePeN/Dn9h6p5sCEWdyS0eOiN/Ev9R7H2r2KszxBo0WvaRNZy4BblHxnY46H+h9ia3oVfZy8jmxVBVYeaPCaSp7y0msbya1uF2yxMVce4/p3qCvV03R4LTTCr+j6rPomqQ39qTujPzpnAkQ9VP1/QgHtVGgVMoqSswjJxaa6Hv2n6hBqdhDeWrh4ZVDKf6H0IPBHYirdeXfDnxCLG8bSbpv3Fw26Ak8LIeq/Q9vf/AHq9RryqsHCVj6HD1lVgpLcKKWkrI3CkpaKBHmfxI0HyLldWgXCTEJMAOA3Y/iOPqPeuDr37UbGHU7CezuBmKZSre3uPcHn8K8L1PT5dK1KeyuB+8hcrnHUdiPYjBr08LV5o8r3R4uOockudbMqUZoNJXScBPa3UtndRXMDbZYmDKfX2Pseh9jXqen30Wo2MV1D9yQZx3B7g+4ORXk1dN4N1f7JemxlbEVwfkJPAk9PxHH1A9aznG+pFSPMtDvKSlzRWRyNCUlLQaBCUnU4HWlNZ+tX/APZuk3FwDhwu2Pn+I8DH05P4UJDim3Y4PxJfi/1y5lQ5jVvLjweMKMA/jjP41lUE5NIK6ForHclZDq3fBWnf2l4tsUZcxwMbl8HGNmMH/vopWFXo3wr00CO/1JwMs4t4yRyABuYg+hLAf8BrLES5YM6cLT56qR6JRRRXlH0AUUUUgCiiigAooooAKKKKACkoopgFFFFIApaQUtAAKWkFLTGJRRRQIKKKKQBSUtFMYUUUUhBRRRQAUUUUAFFFFABRRRQAUUUUAFJS0lAHLfEDS/7R8OSSouZbU+auByR0Yflz+FeQGvoV41kRkcAqwIIPcHqK8K17S20fW7qybO2N/kJ7qeQfyNehg6mjgzycwpWamvQzqSlNJXYeYdT4G1DyNRlspDhLhdyD/bUcj8Rn/vkV3hrx+GZ7eZJYTtkjYOp9GByK9X069TUbCC6j+7KgOM9D3H4HIrGa1uY1V1LBpppxpDUHOMNcf49IH9ngdf3p/wDQK7E1xnjwHzrH02OB+a1cNWXS+NfM5CgUtFanYL2PpXt/h5DH4c01XXYwtYwV/unaOK8Ok4Rsehr323O62iI7oD+lcGOeiR6uVpOUmSVieIfDFn4gg/ejyrlR8k6rlh7EfxD2/Kts0V50ZuDunZnrzpxqR5ZK6PENZ0W70O9NveR4zkpIOVkHqp/p1FZ5Fe66jp1rqtk9rexCWJux4IPYg9j715b4l8HXWhFp4t1xYZ4lx80fswH/AKEOPp0r1qGKjU0lozw8VgpUvejqjmjRS0hFdTR54lJSmkpDCgUYpaBhSUuKXFADaXFLitHRtBvtfufJso8Ip/eTPwkf49z7CplJRV27IqMXN2irsoQwS3NwkFvE800hwiIMk16V4V8ExaSEvNSCTX3VF6pD9PVvf8vU6/h/wzZ+Hbci3HmXDj95Ow+Zvb2Ht/Otc15WIxbn7sdEe5hMAqdpz1Y080Ac0pFOjTPJ6VxI9JnA/Eu0AksLsA5ZWiJxxwcj/wBCNcGa9L+Jyf8AEosX/uzsPzX/AOtXmhr3MG70l5HzWPVq8vkJigUUDrXScR6R4NkVvDcKq2SjurdeDuLY/JhW3XO+B/8AkBP/ANd3/ktdHWDOOp8TG0UtJSMgooNFACUUtAoGIao6xKINGvXY4HksoI9WG0fqRV41h+L5xB4emX/ntIsYPpzu/wDZaaQ4K8kjztjyaTNBOTSVud4vaup+HdsbjxfA3/PvG8p/Lb/7PXK13/wptVfUdRumHzRRJGp9mLFv/QFrGu7QZ0YaPNVij06mkZBp1JXmH0DPHfHHhz+w9V863QizuSSmOiN3X+o9vpXMEd6941zSYNc0qWyn4D8q2MlGHQj/AD0zXiF/ZTabfTWlypWaFirD+o9j1r0sPV548r3R4mMw/s5cy2ZVoFKRSV0WOE2PDeuyeHdZjvFJaBvkuEH8SZ6geo6j8R3Ne2wXEd1BHNC6vFIoZGU5BBGQRXz4K9B+G/iTy2/sS7f5TlrVj+ZT+ZH4j0rjxNG650elgMRyv2ctuh6RRRRXnnsBRRRQIKSlooA4f4g+FzqNsdUs0/0qBcSIBzIg7/UfqPoK8t619E15J4+8Of2RqX2y2XFpdEnAHCP1I9geo/H0r0MLW+w/keXjsP8A8vI/M5HFApSKSuxnlDgxGCpKsCCCDggjoQa9j8GeJF8QaQPOIF7b4ScdMnswHof55FeNCr+j6xPoeqRX1qeUOJEzgSIeqn+noQDWFelzx8zqwld0p67M97oqnpmoW+q2EN5avvhmXcp7j1B9CDwR6irleW007M99O6ugpMUtFIBK4L4k6Abm1XVrdcywDbMB/EnY/gT+R9q72mSRrKjI4DKwIIIyCD1FaU5uEk0Z1qaqQcWfPRpK3fFugnQdaeFAfs0o8yEn0PUfUHj8qwq9dSUkmup87ODi2n0EpwJ7Eg+oPOfWm0UyD07w9qw1fTEkYj7RH8kwHqP4voev5jtWtXmHh/Vm0fU1lcn7PJhJh/s9j9R1+mfWvTVIZQQQQRkEdxWMlZnPVjZ3XUU0hp1NIqDBjTXGeOr8NJb2KN9webIAe5GFH4DJ/wCBV2UkiQxvJKdscalmPooGTXlGpXsmoahNdSn55XLY9PQfgMD8KuCuzegru5VpRSUorY6R2SASASR2A5J9K908N6X/AGN4es7Fsb448yEHILnlj/30TXlngXSv7V8U2wcZhtf9Ik9MqflH/fRB/wCAmvaOBXBi53aietl1Oyc2LRRRXGekFFFFIApKWkpgLRSUtIAooooASiiigAooooAKWkpaAAUtIKWmMSiiikIKKKKACiiimMKKKKBBRRRSAKKKKYBRRSUALRRRQMSlpKKBC0lLRSASuA+J2jebbQarEuWhxFLgfwE8H8CSP+BV6BVW+s4tQsZrWdd0UyFG/H/Oa0pTcJJmVemqkHE8ApKtajYS6ZqM9nP9+Fyh9/Q/QjB/Gq1evo1dHzkk07MSux8C6lgzadIeCfNiyf8AvofyP51x1T2t1JZXUVxCcSRMGX39j7EcfjSkrolrmVj1ykNQWN5Hf2UV1CfkkUEe3qD7g8VOaxZyONtBprlvHUSnT7WY/eWYoPoy5P8A6CK6g1z3jOMyaECP+Wc6MeOgww/mwoi7MqnpJHAGilI5pK3OsOoavctClE+gafIrFw1uh3HqflHX39a8NFesfDm8Fz4XEBPzWszxnJ5wTvB/8ex+FcWNjeCfY9LLJ2qOPc6nFGKUijFeWe6NxRgEHgYIwQe9LRSA4fxL8Pornfd6KFim5LW3RHP+z/dPt0+leczwyW0zxTRtHKhwyOMMp9CK9+rF8Q+FrLxDD++HlXSjEdwi8j2I/iHsfwxXfQxbj7s9V3PMxOAUvep6PseLGkrS1nRLvQr77NeIBkZRxysg9R/h1rONekmpK62PGlFxbT3EFKKQU4c0EsXFBAAyTgDvXQaV4J1fVrWK6t0gSCUZV5Jeg9wATXb6B4DsdIZbi6IvbtcEFh8iH2X19z+GKwqYmnBb69jqo4SrVasrI5jw14Dn1IJdasHt7TIKw/dklHv/AHR+p9uDXo9raQWNstvawpDCgwqIMAfhVgimnmvJrVpVXqz3cPhoUFpv3GkUhp2CeBTwgHJ5NYWbOq9iMITyeB6U+nGkp2sTe5x3xNI/sC1HGftI79tp/wAa8xJrvvihcI0unWoY70V5CMdiQAf/ABw1wFe3g1akj5zHtOuwoFFKOa6TiPQfBIxoJ95nP8q6KsPwhF5fhyA5yXd2PHT5iP6VuVizin8TEoNFBqTMSiiigAooooGIa5Xx3OyWVpAPuySM5+qgAf8AoRrqTXEeO5i2o28OeEh3EehZjn9AtVHc0oq8zlaKXFFbHYHevUvhTCF0S9mK4Z7orn1VUXH6lq8uFexfDiNY/BdqwGGkklZvc+Ywz+QFc2KdoW8zuwCvVv2OpopBRXnHthXEfEPw19utf7TtE/0iBf3igcug/qP5fSu3pCMirpzcJKSMqtNVIuLPng0mK6vx34b/ALG1P7TbLizuSSABwjdx9O4/+tXKV68ZqaUlsz56pTdOTi+gA09XeN1kicpIhDI4OCrA5BB9RTKKb1I2d0e0eDvEi+I9JEkmFvIcJcIPXswHoev5jtXRV4NoWsz6Bq0V9bgsoO2WMf8ALRCeV+vce4Fe42V5Df2cN1buHhmQOjDuDzXlV6XI/I97CYhVYWe6LFFFFYHUFFFFACVR1bTIdY02azuRmOQYyOqnsR7g1eopptO6E4ppp7HgeqabNpOozWVyP3kRxnHDDsR7Ec1Tr1jx/wCGzqtgL61TN3bKcqOsidSPqOo/GvJ69ejUVSN+vU8DE0fZTa6dBKBQaBWpzHZ/DzxH/Zl//Zl0/wDot0/7ok8RyHt9G6fXHqa9W6187nkYPSvWvAfif+2rD7Hdvm+tlGSTzInQN9ex98HvXn4qlb3ketgMRf8AdyfodhSUtFcZ6glJS0UCOd8ZeH/7e0V0iA+1Q5eE+/cfiP1xXjBUqxVgQQcEEYINfRFeV/EXw/8AYdQGp26YhuTiQAcLJ6/iOfqDXbhKtnyP5Hm46hde0XzOKpKcRTa7jydhRzXeeC9W+1WTWMrZlt1Gwk9Y+g/756fQiuCq1YX0unXsV1B9+Ns4PRh0IPsRxUyV0TJXVj1qkNV7O8iv7OK5hOY5F3DPUeoPuDkH3FWBycVg0cjVmc740vRbaMLdfv3T4/4ApBP67R+deenk1s+J9SGpaxK8ZzDHiKI/7I7/AInJ/GsfFbQjZHVBWQlAHNBHNWtO0+XVdStrGHIe4kCbh/COrN+Cgn8KqTSV2axTk0l1PTPhlpX2PQpL+RcSXz7lyOfLXIX8/mb6MK7aoba3itLWK3gQJFEgRFHQKBgD8qmrx5y5pNn0VKCpwUUFFFFQaBRRRQAUUUlMBaKKKACiiigBKKKKACiiikAtFFFAAKWkFLTGIaKDRQIKKKKQBRSUtMAooooAKKSigBaKSloASilpKAFopKWgYUUUUAFFFFIQUlLSUAed/EvQyfL1eBeABHPj/wAdP9PyrzuvoG7tYr60ltp1DxSqUZT3Brw3WtLk0bVriylyfLb5Wx95TyD+Ir0cLU5o8j3R42Oo8sudbP8AMzzQKWkrrPOOs8Ear5Uz6dK2FkJeLPZu4/EDP4H1rtSa8hjkeJ1kjYpIhDKw6gg5Br07RdUTV9NjuBgP92RR2Ydfw7j2NYzj1MqsftF41ma7AbjRLyMHB8vd0/ukNj/x2tM1GR6jI71KMNU00eTEYNNq7qVmbHUbi3IP7tztz3XqD+WDVM1vvqdq1QldZ8PNXGna89pMwEV6oQE9BIPu/nkj6kVyVODEEFSQw6EHBB9aipBTi49zWjUdOakuh9A9aTFc94P8Sr4g00LMwF9AAJl6bh0Dgeh7+h9sZ6LFeHODg2n0PpqdRTipREoxS4pMVJqJSU4ikoA86+KSf6Rpr9yki/kV/wAa4D0r0L4p9dL+kv8A7JXnvpXtYb+Ej5vGfx5AKctNFOWtzlPZ/BY/4pDT/eMn/wAeNbVYvgv/AJE/Tv8Armf/AEI1tV4VX436n1OH/hR9EFG0HrRRWVjW4vTpRRRQAlKBk4FFc94x8RLoWkssMg+3XClYVB5QHgufTHb3/GqhBzkooipUVOLlLZHnfjPUxqnii7kjbdFERDGc5GFGMj2JyfxrCo6mjFe9CKhFLsfL1JucnJ9QpRxRVmwtDf30FsN376RVO0cgZ5P4DJptmZ6XosRg0SyjZQGWBMgDGDgZq9RiisWcDberEooopEhQaKKACkpaSgYhNed+L3L+I7kdgsYH/fCn+teiEV5r4kjlj1+8Ex3OZNw/3Tyv5KQPwq4bm1DdsyqTFKRRWp1BXuHg6IQ+ENJVQADbI5+rDcf1NeGtkIxHUCvfNCijh0DT4oJPMiS2jVH/ALyhRg/iK5MW/dSPSy1e82aFFFFcB64UlLRSEUNZ0uDWtLmsrgfLIOGA5UjoR9DXh+p6dPpWozWVyMSxNj2I7EexHNe/Vx/j/wAMnV7D7daJuvLZeVHWROpH1HUfiK68NW5Jcr2ZxYyh7SPMt0eT0UUuK9FniNWCu9+GviD7PK2jXT4jcl7Yk9G6sn4/eH/AvUVwVPV2R1eN2SRCGVlOCrA5BB7EGs6sFOLRpQrOlPmR9DUlc34Q8VR+IbMRysEv4VHmx9Nw6bx7HuOxOPQnpa8mUXF2Z9FCcakVKIUUUVJQlFLSUAFeT+P/AA5/Zeofb7ZcWtyfmCjhH6n8D1H416xVPVNNg1bTprK5GY5V28dR6Ee4PNbUajpyuYYiiqsLdeh4GRTavatpk+kalNZ3H34jgHHDA9CPYiqRr19Gro+flFxdmAOKsWV/caZfQ3lm+yeFsqexHcH1BHBqvQKmSUlZijJxd0e76DrUGvaRFewcB+HjJyY2HVT9P1GD3rTrxjwZ4kbw9qoEz/6DckLMD0Q9n/Dofb6CvZgwIyOleVWpunKx9Bhq6rQv1QtFLSVkdAlUtV02HV9Nnspx+7lXGR1U9QR7g4NXc0U02ncTSaszwHUdPm0vUJ7O4GJIWKn39CPYjmqhGa9N+I/h83NsurWyZkhG2YAfeTsfw/kfavMzXrUqiqQTPnsRSdKbj9w2lFFAqzA6bwbq32W7NjKcRTn92SeBJ6f8CAx9QPWug8Uat/ZmmlI2xcXAKrg8qv8AE39B9T6V52pwcgkH1BwQauarqc2rXf2i4PzlFTA6DAA4HbJyfqTUct2Q4Ju5SJyaTFFFalBjNehfC/RCWn1mZSBgwQZ9AfnP5gL+DVw+nafNqmo29lb/AOtncKDj7o6lvwGT+Fe7WFlDpthBaW67YoECIPYDFceKqWXKup6OAo88ud7ItUUUV557IUUUUgCiiigApKWimAlLRSUALRRSUAFFFFABRRRSAWikpaAAUtIKWmMSiiigQUUUlABRRRQAUUUUAFFLRQAUUUUDCkpaKACiikNABS0lFAhaKKKBhRRRSEJXE/EfQTe6eupW6ZmtR+8AHLR//Ynn6E129MKhwQwBB9elXTm4STRlWpqpBxZ880da6Hxl4f8A7B1pliUi0nBeH0X1X8D+hFc9XsRkpJNbM+enBwk4vdCVs+GdY/snUh5pxbT4ST0X0b8O/sTWPR1oavoZ6NanrxphFc74Q1g3dr9hnb99bqNh/vR9B+I4H0x710ZFYtWZzyjZ2OQ8a6fh4b5BwQIpMdiOVP5ZH4CuSIr1W7tIr20ltphmOQbTjqD2I9wcH8K801Cyl0+8ktpx86HGR0I7EexFXCV1Y2pyurFM0UpFJVmhZsL+40y9ju7OQxzxng9QR3BHcHuK9X8NeMrPX0SKQi2v+8LHhz6qe/06jnqBmvH6cD09ulYVqEaq7M6sPip0Xpqj6BwfWivJNM+IOsadGsUrx3kYwB5wJYD2Ycn8c1uw/FSBs+fpUi+mycNn81FedLCVE9Fc9aGPoyWrsd7SVxB+Kdl20y6P1kUU3/hadn/0DLj/AL+r/hU/VqvY0+u0P5iv8VOulfSX/wBkrz3FdL4u8UReJjaGG2kg+zhwd7A53bfT/drmq9ShFwppPc8TEzU6rlHYQU8Uyng1scx7J4KIPhDT8dlYfk7Ct015joPxAXRdIgsH05pxEW/eCfbnLE9Np9cda1E+KVmR8+l3AP8Asyqf6CvIq4ao5tpaXPfo4yjGnFN6pHc0Zrhz8UbPtplwfrKo/pUbfFKLtpMh+twB/wCy1H1Wr2Nfr1D+Y7zijr0rz9/ikdp8vSAHx8pa5yPqRtGfzFYeo+Ota1FCn2hbWNhgrbLsJ/4Fkt+uKqODqN66Gc8xoxWmp33iTxbZ6BC6B1nvsYWBWztPq+Og9up/UeT6jqFzql9Jd3kpkmkPJ/kAOwHYVXJzSV6FHDxpLz7nk4jFzrvXRdhKMUYpQK3OQMV1HgjT/O1CW8YfJbrtUkfxt3H0XP8A30K5uONndVRSzsQFUDlieAK9P0XTV0nTIrb5S4+aRh3Y9T/QewFRJkVJWVi9RRQazORhQaSigkKKKKACiiigaENcn4307fHFfoOVxHJ9OoP8x+IrrTVa/tFv7Ce1bAEqFQT2PUH8DiqTsy4PlaPKSKbU08LwTPDKpWRCVYHsRUZFbHYJXp/w218XWnnSZ2/f2ozF/tRZ4H/AScfTb715hVmxvp9Ovoby1bbPCwZfQ+oPsRkH2NZ1qfPGx0Yas6U1LofQFLWfo2qwa3pUF9b/AHJVyVPVT0IPuDkVoV5LTTsz6FSTV0FJS0UgEpKWkoA8r+IPhgadeHVLRMWtw371QOEkPf6N/P61xte/XlpDf2ctrcoHilUqyn0NeI65pEuh6vNYy5bZyj4++p6H/PfNenhavMuV7o8bG0OR862ZnYopaK6DziSKWSCVZYJHilTlXRiGB6cEcivUfBfjP+2QLDUWVdQQfK2ABOAOTjoG6kgcY5HGQPKxU9tdy2V3FdW7bZ4XDo3uOx9j0I9Kxq0lNeZ04bEyoy02Z9AUVV0+7j1DT7e7iBEc8ayLnrgjP9atV5bVmfQp3V0FFFFIApKWigDkvHXhg63p/wBqtUze2wO0AcyJ1K/XuPy715HX0RXmHxC8Lm0uW1a0T9xKf36j+Bz/ABfQ/wA/rXfha1vcl8jzMdh7/vI/M4XFFKRSYrueh5LF4Ix2r074ceI/tln/AGRdv+/tl/cknl4ugH1Xp9Me9eYCp7W8nsbyG7tH2XEDBkb39D7EcEehrGtTU42N8NWdGd1t1PoOkrK8O67D4g0iK9hwGPyyx5yY3HVT/T1BBrWrymmnZn0MZKSTQUlLRUjI5I1ljZHUMrAgg8gg9RXivizQ/wCwdbkgQH7PIN8JP930/A8flXttc1438PnXNFbyVzdW+ZIcdW9V/EfqBXTh6nJPXZnJjKPtIXW6PHKSj14ORwR6UV6bPCYClJpM0lAhaBzRWloOjS67rENjGSFY7pWH8CA8n69h7kVMpKKbZUYuTSXU7n4ZaF5NtLrE6/vLgeXAD2jB5P8AwIj8lHrXfiobe3jtbeOGBAkUahUVRgKAMACpq8mc3OTbPo6NNU4KIUUUVmaBRRRQAUUUUAFFFFABRRRTGJRRRQIKKKKQBRRRQAUtJS0AApaQUtMYlFFFIQUlLSUwCiiigApaKKBhSUtJQIKXNFFABRRRQMKKKSgQUUUUAFLSUtABRRRSAKSlooAw/FWgr4g0aS2XAnT54WPZh/Qjj/8AVXiksTwyvHKjJJGxVlIwQQcEGvoavOviP4ZOW1q0XjAW5QD8A/8AIH8D612YWtyvlezPPx2H5l7Rbo88pM0pppr0HoeMWLO8lsruK5gIEsR3LnofUH2IyD7GvTtPvodTskuYDlXHKnqp7g+4rymtzwzrf9lXnlzMfsspAcdkPZv6H29cColG+pM43R6ERWP4g0NdXtg0e1bqIfu2PG4f3Sf5Hsfqa2AQygqQQRkEHIIoIrFNpmF+V3R5NLFJDI0cqMjoSGUjBBHao69E1/w9Hq0fmw4ju1GAx4Dgdj/Q1wNzazWk7Q3EbRyocMpH+cj3reMk0bxkpIgNFBFFBYmaXNJS0wDNFFFACGkpTSUAJS0UUhig0ZoFFMQuaXNJRQA7NJmiigQUlFOxSAQCnAYGT0pVUsQqglmIUADJJ9AK7Pw54WMDLeakg80HMcJ5Cf7Tereg7fXpLlYUpKK1F8K+Hmt9t/ertlI/cxkfcBH3j/tH07D3PHVdKSis27nLKTk7hSmkopGbCiijNAgooooAKKKKBhTTTqSgZyHjXTB8moRDBJEcuP8Ax1v6flXIGvVry0S+spraT7sqlc+h7H8Dg15bPE9vPJDKNrxsVYehBwa2g76HVSleNuxFRQaSrNDtPhvr/wDZ2qtplw2Le8bMZJ4WXHT/AIEBj6geterCvnbcwIKMVdSCrKcEEdCD617b4Q10eINAiuXI89P3U4H98AZ/MEH8a8/FU7PmXU9nAV+aPs3ujdooorjPRYlFLSUCErkPiFoH9paSL2BM3NoC3A5ZO4/Dr+ddhScd6uE3CSkiKtNVIuL6nz11oxXTeNvDLaHqbT26/wCg3DZTHRGPJU/zHt9K5qvYjJTSkj5yrTdOTixBTgKSnxo0kixxqXkchVRRksxOABTe1zLVnrnw9m8zwhbKSSY3kTJ/3yR+hFdN1rK8N6UdF0G2smYNIi7pCOm5iWbHtkkD2ArVrxqjTk2j6einGmk97C0UlLUmgUUUUgEqK4t47qB4ZkV4pFKupHBB61LSU07A0mrM8R8UaC/h/WHt/mMDjfC57qe31HQ//XrGIr2rxZ4eXxDpDwrgXMeXgc/3vQ+x6fke1eMSxSQSvFKhSSNirKRggjgg162HqqpDXdHhYqh7KemzI6UUGkrWxxHQeDvER8O6wGlb/QbghJx2X0f8O/tn0Fe0KwYBl5B7188jnr0r0r4c+JRPbjRrt/30K5t2J++g/h+q/wAvoa4sTS+2j1cBibfu5P0O+opaSuA9YQ0lKaQ0CPJfiJoX9m6wL6BcQXmSQBwsg6/n1/OuRPSvbfF2kf2z4cubdVzKo8yL13DnH4jI/GvEa9TD1OeFnujw8ZR5KmmzCiiitzjDNetfDrQxpui/bpgPtF8FkyP4Y8fIP1z+PtXknevVPhprhvdLfS7h8z2YHlknkxHp+R4+m2ufFX5NNup3YDl9rr8juKKKK809sKKKKQgooopgFFFFIAooooAKKKKYBSUtJQMKKKKQgooooAKKKKAFFLSClpjEooopCCiiigBKWiimMKKKKQgpKWigBKWkopgLmikooAWkpaSgAooooAKBRS0AFFFFIAooooAKjkjWVGR1DIwIYEZBB6g0+igHqeMeMPDh8P6qRCCbOf5oT12+q/UfyxXOkV7rr+jQ67pMtnN8pPMb4yUYdD/Q+xNeJX9lNp17La3KFZoWKsD/ADHsev416uHq+0jZ7o8LF4f2crrZlalFIRQK2OQ7TwhrqlF026kIYHFuzHgj+5n+X5egrrSK8hU133hjXxqMQtLp/wDS0GASf9aoHX3Ydx+PrjKcepjOPU38VT1LSrXVYfLu49237rjhlPsf6dKv4pCKjYy21R5/qfg69tMvaf6XEOflGHH1Xv8Ahz7Vzzo0cjRupSReGVgQw+oPIr2AioZ7WC6QJcwRSqOiyIGH5GrU2aRrW3R5IRikr01/C+kSOWaxjBPUKzKPyBwKb/wimjf8+Q/7+P8A/FVXOivbLsea0V6V/wAIpo//AD5D/v4//wAVR/wimj/8+Q/7+v8A/FUe0D20TzSkr0z/AIRPRv8Any/8iv8A/FUf8Ino3/Pl/wCRX/8AiqPaB7aJ5nRXpn/CJ6N/z5f+RX/+Ko/4RTRv+fIf9/H/APiqOdD9tE8zpa9L/wCEU0b/AJ8h/wB/H/8AiqX/AIRTR/8AnyH/AH8f/wCKo50L20TzSlr0r/hFNH/58h/38f8A+Ko/4RPRj/y5/wDkV/8A4qjnD20TzWjFelf8Ino3/Pl/5Ff/AOKqWLw1pEP3dOgb/roN/wD6FmjnD2sTzFAZZRHErSSMcBEBZj+A5rd07wfqV7tedRaRHnMv3yPZR0/EivQILeG2jEdvFHEg6LGoUfkKkqXJsl1uyMzStAstIGbePdMRgzScsfx7D2GK0aWkqLmLd3dhRS4pKCWwooooJA0lLRQAlLRRQAUUUUAgoxSmkoGIa4jxrp3k3yXyD5JxtfHZwP6jH5Gu3NU9WsF1PTZrVsBmGUJ7MOQf8+tXF2ZpTnys8tNJUksTxSNHIpV0JBB7EdRTK2OsSup+H2tf2T4iW3kbFtfYiIJ6SfwH8SSv/Ah6VywFODyRuskLFZUIZGH8LA5B/OonBTi0zWjUdOakj6Hpar2V0l9YwXUWfLmjWRc+hGR/OrFeO9GfSJ3VwooopAJRS0mKAK17ZQ39tJbXUaywyLtZGHBFcNqXwvVpS+l3piU/8sp13Ac9mHOMdiD9a9CoxWkKkofCzKrQp1fiR5lH8K74yYk1OBU/vLCST+GR/Ouq8P8AgrTdAcToHuLvGPOmIJXIwdoHC/z5xmukxRVTrTmrNkQwlKDulqFFFJWR0BRRRQAtFFFACUUtJSAK89+InhgyBtZs0JZQBcqO4HAf8Oh9sHsa9CprKHUqwBB6gjNaU6jpyTRlVpKrBxZ88miui8aeHv7B1cmFcWc+Wi9FPdfw/kRXO17EZKSUlsfPVIOEnF9ABqSGeW3nSa3cxyxsGRx1BHeoaUGh6kq6d0e2eFPEcfiPSVm4S5iwk8YPRvUex6j8uxrerwrw/rk3h7VkvYiTHws8Y/jTPP4jqPf2Jr261uory1iuLdw8UqB0YdCCMg15VelyPyPewmI9tHXdE9JS0VgdY0jNeI+MNK/sjxJdRKu2KQ+bGMcYPOB9DkfhXt9ebfFZSLjTWwNpWQZ75BXP8xXThZNTt3OLHQUqXN2PPqKDRXpHhiVteEtRbTPFNhKpOySQQuAcblf5efYEhv8AgNY1BdkUspwyjKn0IqZxUotF05OM00fRdFRQTJcW8U0R3JIoZT6gjIqWvHPplqgooooAKKKKBBRRRSAKKKKACiiimMSilooASiiikIKKKKACiiigBRS0gpaYxKKKKBBRRRSAKKKKACiiigAooooASilopgJS0UUAFFFFAwooooEFFFFIAooooAKKKKAEopaKAErjvHnhU6taG+so83sK8qo5lUdvqOo9enpXY0Yq4TcGmiKlONSLiz5260Yrv/HvhExSS6xYISjHdcRqPu+rj29fTr644EivWpzVSPMj5+rSlTk4sbmpEkZHV0ZldSCGBwQR0IPY1GaKpmVj0rw3ry6xbeXMyi8jHzrwN4/vAfzHY+xFbRFeQQTyQSrLC5jkQ5V1OCDXo3h3X01m12yFVu4x+8QcZH94e3r6H8M4yjYwnC2qNgikxTjTcVJi9ApKWigVxKKKKAuFFFFAXClzSUUCuLRSUUBcWiiigLi0UUUXDmCiiigVxMUUtFAXEoopKBBRRS0AJRRRQAUUUUAFFFFABRRRQAhpDTqaRTQHEeNreCG+gkj4mmUtKB3wQAfqefyrma6Xxx/yFYPT7OMf99NXNVtHY7KfwoKBRRVFnsvgFg3gywwSQN68nPR2H866OuW+HDbvBlsP7sko/wDH2/xrqRXj1FabR9NQd6cfQWiiiszQKKKKACiiigAooooAKKKKAEpaKKACiiigAooooAKSlpKAMvxBosOvaTLZzHaT80b4yUcdD/Q+xNeJX1nPp17Na3SlZoWKsPf1HsetfQHpXF/EDwuNSs/7Ss4x9rgX94oHMkf+I6/TI9K68LW5HyvZnDjMP7SPNHdHldFFGK9FnitCiu8+HHiQWsv9i3b4jkYtbMx6MeSn49R75HcVwQp24ggqzKykEFTggjoQexrKrTU4tGtCs6U1JH0P1ormfBPiX/hINJIuCPt1thJsDG7+64Hvj8we2K6evKlFp2Z9FCanFSQV578V1XyNLbuHkA/Jf8K9CrifikoPh22OMkXSjPp8rf4VpQdqiMMWr0ZHlVFFBr1mfPBR2opBQM918LXH2rwrpcpbcxtowzerBQG/UGtauZ+Hrl/BViT1BlXrngSMBXTCvGmrSZ9LSd6afkLRRRUFhRRRQAUUUUAFFFFABRRRQAUUUUAJRS0lAwooooEFAopaAAUtIKWmMSiiigQUUUUgCiiigAooopgFFFFIAooooAKKKKACiiigAooooAKKKKACiiigAooopjCiiikIKKKKAGkAggivLvHHg4aaz6lpyf6IxzLEo/1R9R/sn9Pp09SprIHUqwBB6jFa0qrpyujCvRjVjZ7nzyRim4rtPGvg06Uz3+nqTZNy6Af6o/8AxP8AKuNIr1YTU1zRPCqU5U5cshualguJbaVZYHaORDlWU4INRUA0MzsekeHvEMerwiKYhLxB8ydA49R/UdvpW3XkEUrxOrxuyOpyrKSCD6giu98O+KE1ELbXrKl2OA3QS/T0Pt37egyatqYTp9UdDRTsUmKg52rDaKXFJQIKKKKYgooooAKKKKAFzRSUUALmjNFFABmjNFFABmiiigApKWigAooooAKSlooASiiigApaSloAKSiigAoNFBoGcb47CCeywuHKNk56jIwP5/nXJV1/jxebB/XzAfw2n+tchW8Njrp/AgoozSZqkWet/DJs+ElH92eQfrn+tdfXBfCqRm0m/jL8JcDCY6ZRec+/p7e9d7XkVlabPpMM70YhRRRWRsFFFFABRRRQAUUUUAFFFFABRRRQAUUUUAFFFFABRRRQAlFFFAHk3j/w0NKv/t9quLS4b5gBxG/U/QHqPxrkMZ4r33UrCDVLCazuV3RTLtPqPQj3B5rw/WNLm0bVJrKf70R+VscMD0I+or08NV548r3R4uNw/JLmWzKNGaCKSuk4DS0LWJdB1iG+hyQp2yoP40P3l/qPcCvcrW6ivbSK5gYPFMgdGHcEZFfPgNd98N/Egtpf7Fu3AjkYtbMT0Y8lPx6j3yO4rjxNK65l0PRwGI5Zezlsz0uuO+Jw/wCKZi4zi5X8Plauxrl/iJHv8H3Lf883jYf99gf1rjpaTXqelif4UvQ8epKKK9hnzghoFBopjPWPhdJv8MSpuZjHdOpB/h4VsD25/Mmu0rz/AOE0udO1OH+7cK/5qB/7LXf15FdWqM+hwrvSiLRRRWJuFFFFABRRRTAKKKKQBRRRQAUUUUAFJS0UxiUUtFAgooopAApaQUtMYlFFFAgooooAKKKKACkpaKBhRRRQAUUUUAFFFFIQUUUUAFFFFMAooopAFFFFMYUUlAoAWiiigAooopCCkpaSgBjosiFHAKkEEEdQa8s8aeDDpTPf6epNkeXQDJiP/wAT/KvVe1IVDDDYIrWlVlTd0YV6Ea0bPc+eCKSu68beCPsPmalpaZtussCj/V+rL/s+o7fTpwuK9SE1UV0eHUpSpy5ZIAaUGkxRTZkdp4b8WhttpqkuCOEuHPX2Y/1/Pnk9iQa8az61v+H/ABPNpLLDcZlsyeVzlo/cf4fy75uPYznTvqj0UimmobO+ttQgEtpMs0ecEr1B9CDyPxqfFRY5ZRsJSUuKKRIlFFFMQUopKKAFozSUUAFFFFAC5pKKKAFooooAKKKSgBaKKKBBRRRQMSiiigBaKSigAooooAKDSig0DOY8cQ7tLt5c/wCrm24x2YH/AOJH51wxr0rxLCZ/D92FBLKof6AMCf0zXmpraGx1UXeIhNFJRVmp3/wousXup2zMcMkciL2GCwY/qv5V6XXjvw7vfsni6KNs7bqJ4RzgA8MCf++CP+BV7FXmYlWqM97Ay5qS8haKKK5zrCiiigAooopAFFFFABRRRQAUUUUAFFFFABSUUtMAooopAFJS0lABXJeOvDR1qwF1apm8tgdoHWRepX69x+PrXW0VcJuEk0RUpqpFxfU+djnn19DRXb/EPw19hvDqlqn7i4bEwH8Eh7/Rv5/WuIr14TVSKkj5+rSdOTixKduIIKllYEEEHBBHQg9qbRVMy8z17wP4r/t+xNvdso1G3H7zgDzV6BwP0OOAfQECp/HwZvB16FAPMecntvXp+OK8k07UJ9K1CG9tGAmhOQD0YdwR6Ecf/Xr0/wAQ6tBrfw5ur22PySLHlT1VvMXKn3B4rz50uSomtrnr0sR7WjKL3Sf5HlBFJSmkr0GeMIaSlNJTKPQvhM7fatVTjbshPTv84r0mvN/hKMT6uT/dh/8AalekV5OI/iM97BfwULRRRWB1BRRRQAUUUUAFFFFABRRSUALSUUUwCiiigAooopAFLSUtAAKWkFLTGJRRRQIKKKKQBRRRQAUUUUAFFFFABRRRQAUUUUAJRS0UwCiiigYUUUUAJRRRSAKBRRQIWiiimAUUUUgCiiigAooooAQjNed+LfAG8yX+ip8x+aS1A4PqU9D7fl6V6LSVpTqODujKrRjVVpHzwyFGKsCCDggjBB9KQivXvFPgm21wG4tsW96B98D5ZPZh/Xr9a8qvrC5067e2u4jHMnBU9/cHuPevTp1Y1F5niV8PKk9du5UxR0pxFIRWljnLenajcaZdLcWr7X6EHkMPQjuK9C0fxFaawoVT5VxjmJjyfcH+Ifr6ivMqcjsjqyFlYEEEHBB9QamUUyJQUj2HFIRXG6H402BbfVidoGFuAMn/AIEB1+o/Ed67COSOaJZIXWSNhkOhDKfoRWTVjnlTcdxcUU7FJikZNCUUuKTFAWEopaKBCUtFFABSUtFABRRRQAUlLRQAUUUUCCiiigApKKKBhRRRQAUUUUAKKDSUUDQyWNZo3ikGY3Uqw9QRg15PcQvb3EkMgw8bFWHoQcGvWjXA+MrP7PrJmA+S4UPntuHBH6A/jWkHqb0XZtHPGkpTSVqdBLb3MlldQ3UQzJBIsqg9ypBx+le/Wd1Fe2UF1A26KaNZEPqCMj+dfPtep/DHVfteiS6fI372zf5R/wBM2yV/I7h+ArjxcLxUl0PSy6paTg+p29JS0VwHsBRRRQIKKKKQBRRRQAUUUUAFFFFABSUtJTAWikpaACiiikAUUUlMAooooAgvLSG/tJba4QPDKpVlPcGvEPEWiS6Bq8tnIS0f3onI++h6H69j7ivdq53xn4dGv6OwiA+1wZeE+p7r+P8APFdGHrezlZ7M5MXQ9pG63R4saKVlKOVYEMDggjBB9KK9NnhtAK19M1b7Lo2p6dMWMN0isgXnbIGU5+hA5+grIpc1EoqSswjJxd0LSUUlVckM0gpaKBnp/wALpbBtMukgUpfBx9oyc7hzsI9sZH1z7V3deB6RqtxompRX1of3kfDITgSKeqn2P6HB7V7fpWpQaxpsF9atuimXIz1B6EH3ByD9K87EU3GXN0Z7eBrKcOTqi9RRRXKdoUUUUwCiiikAUUUUAFJS0UwEopaSgAooooAKKKKQBS0UUAApaSlpjEooNFAgooopAFFFFABRRRQAUUUUwCiiikAUUUUAFFFFABRRRTAKKKKBiUUtFACUtFFIAooooEFFFJTAWiiikAUUUUAFFFFACVk694cstftfKu0IcfclXhkPsfT2PFa1FUm07omUFNWaujxLxF4XvfD0374ebbk4WdRhT7Edj7flWIeetfQc8EVzC8UyLJG42srDII9CK8z8V+AJLHfeaMjy2/V7cZZkHqvdh7dR79u+jiVLSe55OJwTh70NUcPSUoORkdKK62jzhKv6VrF5pEu+0lwrHLRtyj/UevuOaoUA1LQdD0rSPFFlquIyfIuT/wAsnPU/7J7/AE4PtW1ivHQc9a6HSPGN3p6iK5BuoBwAxw6j2Pf6H8xUOHYxlT7HoOKCKo6Zrdlq6ZtZgXAyYm4cfh3+oyKv4rMxlG2g3FFLijFIiw2ilpMUCCijFGKYBRRijFABRRRQAUUUUAFFFFAhKKKKBhRRRQAUUUUAFFFFACEVgeL7H7Xo/nKMvbtv4HO08N/Q/hXQGo5I0ljaOQZRwVYeoIwapOzKjKzTPJDSVZ1C0ewv57WT70TkZP8AEOx/EYP41VNbbncLWx4V1v8AsDXobtiRA/7ucf7BPX8Dg/gR3rGo6ilKKkmn1LhNwkpI+iVYMARjBp1cR8N/EH2/TDpdww+0WajZnq0XQf8AfP3fpt9a7evInBwk0z6OnUVSKkgoooqCwooooAKKKKYwooopCCiiigApKWimAUUUUgCiiigAooooASloopgGKKKq31/b6baPc3kywwoOWbp+XUn2FG7B2Suzzf4i+Gza3n9rWkZMMx/fhRwj/wB76H+f1rhq6jxV40ufEBa3gDW9gDxHn5pMdCxH/oPT69a5avVo8yglI+fxLhKo3DYWiiitDnYtIaUVasNOuNTuhb2cTSSlWbA6AAZ6/p9SKG0tWNJt2RUopxUgkc8dc0lVYQV13w/8RDR9TNjctizu2GCTwknQH2DcA++33rkRS/eGDUTgpxaZdKo6U1JH0RRiuP8AAPic6vY/YbyQtfWqjLE8yp0De5HQ/ge9djXkyg4Npn0dOoqkVJBRRRUFBRRRQAUUUUAFFFFABSUUUwFpKKKACiiigBaKQUtAAKWkFLQMSiiikIKKKKACiiigAooooAKSiimAUtJS0AFFFFIAooooAKKKKYBRSUtABRRRSAKKKKACiiigAoopKYC0UUUAFFFFIAooooAKSlooASilpKAOW8SeBbHW908GLW9PJlQZDn/aHf69frXmGs6FfaFc+TfQlAT8kg5R/of6HmveMVBd2UF/bvBdRJLE4wyMMg100cRKGj1RxV8FGprHRnz4RRXd+JfhzNa77nRd08PU25OXUexPUe3X61wpBVirAqwOCDwQfQivQhONRXizyKlKdN2khKXNJRVGQ9XKOroSrA5DA4IPqDXTaV43uLUCLUI/tMQ43qQJAP5N+n1rlqKlq4mk9z1nTtYsdVUGzuFdsZMZ4cfVTz+I4q4RivG84II4I5BHUVvad4y1KxwszC7iH8Mp+YD2br+eahw7Gcqd9j0UijFYGneM9MvsJMWtJD2kOVJ9mHH54reUh1DKQykZBByCPY1FmjCUHF2YYopaMUE8olFLijFIVhtFOxSUwsJRS0lArBRRRQAlLRRQAUlLSUAFFFFABRRRQAUmKWimM5PxtpRkhTUYR80YEcoH93PB/AnH4j0rizXr0iLLG8cih0cFWU9CDwRXmGtaW2kanJbnJj+9Ex/iQ9D9R0PuK0hLodVGfMrPoZ9FBoqzYt6ZqU+j6lBfWx/eQtnHZx0IPsRx+vavc9K1KDV9NgvbU5imXI9Qe4PuDkH3FeA11XgXxP8A2Dfm1u3xp9y3JJ4ifpu+h6H8D2NcuJpcy5lujvwWIVOXJLZnsVJSKwYAjBBp1ece0JRRRQIKKKKYBRRSUALRSUtABRRRQAUUUUgCiiimAUUUUAJRRXP+KPFlr4bt8f669cZjgB7f3m9F/U9u5DinJ2RMpRgnKTsi7reu2egWJuL1+TkRxg/NI3oB/M9BXj/iDxFeeIb3zrptsa58qBTlIx/U+pPJ+mBVXVNVu9YvXur2UyStwOwUdgo7AelUjXoUaChq9zxsTi5VXyrRCGiiiug4gpRSYrc8O+GLnX38wloLJWw0uOWx1CZ/LPQe+MVMpqKuzSFNzdoq7KujaNda1deRapwuDJKw+WMe/qfQf/XI9O0fRbbRLQQ2y5Y8ySEfM59T/h2qzY6fbabarbWcSxRL2Hc+pPc+5qxivPq13N26Hs4bCRpavVnB+NvDphdtUtE/duf36gfdY/xfQ9/f61xte2vGssbxyKHRwVZSOCD1BryjxLojaHqjRLua2f5oHPceh9x0/I966sNW51yPc48bhuR88dnuY9KKDRXWeaWrC/uNMvoby0bbNC25fQjuD7EcGvbtD1iDXNKivbfoww6nqjDqp+hrwgcV0Pg3xIfDuqgTN/oNwQsw7Iez/h39voK5cTS51dbo7cFiPZy5Xsz2iimowdQykEEdRTq8090KKKKQgooooAKKKKAEooopgFFFFABRRRQAUtJS0AApaQUtAxKKKKQgooooAKKKKACkpaKYCUUUUALRRRSAKKKKACiiigAooopjEpaKKBBRRRSAKKKKACiiigApKWkpgFFFLQAUUUUgCiiigAooooAKKKKACiiigArn9f8ACGm+IFL3EZiuQMLPFww+vYj6/pXQUlVGTi7pkzhGatJXPGNd8EapogaUJ9rtF5M0Q5A916j6jI9650cjK8ivonqOa5nX/Auma0zzIptbtussQ+8f9peh+vB967KeL6T+882tgOtN/I8corf13wXquh7naI3NsP8AlvEM8f7S9V/Ue9YAORkdK7IyUldO55s4Sg7SQlFOpMU7ECYq1Y6ld6c+6zuJIuckKflP1B4P5VWopWD1OtsfHs0eFv7VZhwDJEdpx64PBP5V0Fn4r0i92gXPkOf4Jxtx+P3f1rzOipcEyHCLPY1w6K6kMpGQQcgj1BoIryG3up7Ry9tPLCxGCY2Kk/lW3a+NtUt+JWiuBx/rEAIHsVx+ualwZDpdj0KjFcva+PbKT/j6tZoGJwChDj6nof0Na1v4h0m6z5eoQDHXzCY//QgM1NmjN02uho4oxSpiRA8ZDIRkMCCD+NGD6UiOUTFJinYoxQDQ3FFLijFBNhKKWkoCwUlLSUBYKKKKAsFJRRTAKzPEGjLrGnFEAFxFloSeOe6n2P8APBrUpwFF7alxvF3R4+6NG7I6srKSCCMEEdQaYRXaeMdC3M2o2y8kfvkA64/iH9fz9a40itotNXOtSUldDaOvBpcUUxnonw/8WpHEukalNs2/8e0jtwV/uE9sdvy4wAfRa+d+owa9H8D+Nomgj0vV51jmTCQSvwJB2BPQMOmT1479eGvQ+1E9bB4u9qc/kehUUUVxHqBRRRQIKKKKYCUtFFABRRRQAUUUUgCiikpgFIPpQT+Vee+LPiEqLJY6G+X5V7sdB67P/ivy9aqEHN2RlVrQpK8mavi/xtFokbWdgUl1EjnusPufU+i/n6Hyee4luriSeeRpJpCS7uckk9yajZiWJySScknvSDivSpUVA8SviJVnrt2FooorY5wFHSg8V3PhfwTwt7rUWSeY7Vx0Hq47n/Z7d+eBnUqKCuzajRlVdomf4X8GyarsvNRVo7Lhkj6NMPX2X9T27GvRookhiSOFFSNFCqirgKB0AA6CnUtebUqubue5QoRpKy+8KKKKzNwrM8Q6LHrukyWxwsy/NC5/hYdvoeh/+tWnSinGTi010JnFTTT6nh8kUkEzwzIySxkq6kcgjgim4rv/AB74d81Dq9qn7xABcqB95egf6jofbHpXA169KoqkVJHz1ei6U3ESl6jB6UlANWc56R8OfE/mxrol4/7yNc2rH+JB/B9VHT2+leg96+eVdo3SSNykiEMjqcFSDkEHsQa9l8G+I18Q6QHl2i8hwlwo457MB6Hr7HI7V52Ipcr5lsz2sDiOdckt0dFRRRXIegFFFFABRRRQAlFFFMAooooAKKKKQBS0lLQAClpBS0xiUUUUhBRRRQAUUUUAFFFFABRRRQAUUUUAFFFFABRRRQAUUUUAFFFFABRRRQAUUUUAFFFFABRRRTAKKKKQBRRRQAUUUUAFFFFABRRRQAUUUUAFFFFABRRRQAlc/rPgvSNaZpJrfyrhv+W0J2tn1PZvxBroaSqUnF3TJnCM1aSueS6v8ONUsMvZMt9EOygLIP8AgJOD+B/CuVngktpjDcRvFKOqSKVb8jX0JVa80601CExXltFPGf4ZFDD9a6oYtrSSucFTLovWDseA4NJ0r1HVPhjYXGW02eWzf+62ZE/InI/P8K43VPBOt6ZlntDcxD/lpbnd/wCO/e/SuqFenPZ2PPqYSrT3V0YFJS5G4r3BwR3H4UlbWOewUUtFKwhtBGadijFFh3ETMbh0ZlYHIIOCPyrSt/EWr27bk1Cdj/00bzB+TZrOopWDfc6CHxxq0S4kNvOfWSPH/oJFXIviBcBCJrGF3zwUcqAPoc/zrk6KXIhcqfQ7iHx/atn7RZTxjt5bK+frnbip4vHOlu2JIrqMdiUB/kc1wFJS5ES4RZ6MfGejAcTTMfQRH+tSL4r0UjJvQvqDE+R+S4rzWkpcgvZRPTP+Ep0U/wDMQT/v2/8A8TSHxVoo/wCX9f8Av1If/Za80oo5A9lE9L/4SnRe1+v/AH6kH/stNHivRckfbRgdzFJz/wCO15tRRyD9lE9Fl8Y6RH92WaT3jiP/ALNioZPG2mIoKR3MjEZxtAwfQ5P8s1wVFPkF7OJ2Uvj2MMRFp7MvYvNg/kFP86pP451JsbIrVPohOfzb/Oa5qinyIfJHsbUni3VpQQ1yuD2EKYH6ZrIkcyOzEKCTk7VAGfoOBTaSmlbYpJLYKKKKoBKXgjBopKQHoPhHx9Fa28Wn6yxVUwkVwBkbeysBzx0z+fTJ9FimSeJZInV0YBlZTkEHoQe9fPVdL4V8ZT+HSbeVGnsWbcUDYaM9yuf/AEHoT6c54q2HvrE9TC41xtCpt3PY6KztH1yw1y1E9hMJFGNy9GQ+hHb+R7ZrSrjaa3PWTTV0woooqQCiiigAooopgFFFJQAVXurmGztZJ7mVIoY13O7HgCq+r6xaaLYvd3suyNeigZZz6KO5/wAmvIvEfiq88R3AM58q2Q5jt1OVX3P95vf8sVrSpSqPyObEYmNFd32NHxX46n1sPa2W63sOh7PKP9r0Ht+ea5A80ppK9KEIwVkeJUqSqPmkxKUUUoFWZgKlt7ea8uEt7aJpZnOFRByfc+g96saXpV3rF39nso9zjBZzwqD1J/ya9P0Hw9aaDblYf3k7j97Ow+Zz/Qe38+tY1qygrLc6sPhZVnrojO8NeDodI23V7snvuqnGVi9l9/f8sd+mxS0V50pOTuz26dONNWigoxRRUFhRRQKAAUoopaQwwGBVgCpBBBGQQeoNeU+KtC/sTVWEQP2WbLw+w7r9R/LFerCsrxNZWV7oso1CZbeNPmSZv4G7YHfPTHeujD1XCVujOTF0VVhdbo8iNJSvgOwVtwB4OMZ96SvUPAYDrWt4d1p9A1mK8U/ufuTqP4kzz+I6j3H1rKFL2qJRUk0yoTcJKSPoZSGUEHIPOadWR4Xn+0eFtLkLbi1rHk+p2gH9a1u9eQ1ZtH00XeKfcWiiipGFFFFACUUUUwCiiigAooopAFLSUtAAKWkFLTGJRRRQIKKKKQBRRRQAUUUUAFFFFABRRRQAUUUUAFFFFABRRRQAUUUUwCiiikAUUUUAFFFFMAooopAFFFFABRRRQAUUUlMBaKKKQBRRRQAUUUUAFFFFABRRRQAUUUUAFFFFABSYzS0UAZ+oaJp2qri+soJ+MBnQFh9D1H4Vy9/8L9NnBNhcT2jdlJ8xB+B+b/x6u4pK0jUlHZmU6FOfxI8l1D4a6xaAtamG8UdAjbGPvg8frXM3mn3enE/brWe2GcZljKgn2J4P4V9AUjKGGCoI963ji5LdXOSeXQfwux88Zpea9tvvCOiahnz9OhDMclox5bE+5XBNYtz8L9LkLNbXF1AT0G4Mo/MZ/Wt1i4PfQ5J5fVW2p5ZxRXdXPwsvY0za6jbzN6SRtGPzBasq6+H3iC2ICWsVz7wzLgf99bTWir031MJYWrHeJzNFaV34e1exTfdadconchdwH1K5x1rOciP752845459K0Uk1dMxcJLdCYooB3dKDVbkiGkpSaQmiwwpMUuaTNFhi4oozRuoEOopAaXPvRYLMBRSFgo5NIsqMQFcFj0AOTQOzH0Vah0vUbhd0GnXsi4Bylu5HPvitSDwR4huACNNZAe8kiL+mc/pUOcI7spUpy2TMClwa7S2+F2qySAXN5ZwpjrHukP5EL/OtrT/AIYWEHzX91NdsONq/u1/IEnP41m8RTXW5tHB1n0seYUda6DxN4WuPD1znmW0c/JLjp7N6H+f6VgYraLUldbHPKLg2pLUSgUUUWJLWn6jdaXeLdWMxhmUYyOQR6EHgj2Nek6B8SLO9Kwasq2U/TzM/umP1PK/jx715ZSn0rGpRjM6aOJnR227H0MGDAEEEHkGnV4RpPiHU9DcGwunRM5MTfNGfqDx+Iwa7bTfinA4CapZPC3AMkB3qT3JBwQPoTXHPDzjtqerSx1OfxaM9Apay9M8R6VrG0WN9DK7ZxHu2vx1+U4b9K1K52mjsTUldBRRRQAlZHiDxBaeHbI3F02+RsiKBThpD/QDuf5nAql4q8Y2vh2Fok2z37L8kOeFz0Z8dB+p9hzXkV/qN1qd49zfTPNM/VmPT2A6ADsBxW9Kg56vY48Ti1S92Or/ACLOua3ea9fG5vHzjhEH3Yx6Adv5nvWaaKK9FRUVZHiyk5Pmk7sKKKKZIVsaD4bu9emJixFaocSTsP0Udz/Kr/hnwfJq4S8v90VkTlVHDSj29F9+p7etejQQRW0CQwRrHGg2qqjAUewrmrYhR0juehhsG52lPREGl6TaaNZLbWce1BySeWdu7Me5/wD1DirlJS1wNtu7PXjFRVo7BRRRSGFFFGKAClFGKXFABilxQKzNe8QWnh+1Dz/vLhxmKBTgv7n+6vv37UJOTshSlGEXKTskWNT1O10exa7vpNkY4VQMtI391R/XoO9eV694huvEF0Jbg7IUyIoFPyxj+p9T39hxVfV9Yu9avjdXrh3xtRQMKi+ijsP8nNUa9CjQ5NZas8XE4t1XaOiCgUUorqOEcKXIUEnoKAK6Lwd4dfXtWV5EP2G2YNM2OGI5CD1z39vTIqZyUE2yqdNzkorc9R8O20ln4c063lBWSO2jVlP8JCjI/DpWnRS15Dd3c+mjGyS7BRRRUjCiiigBKKWimAlFFFABRRRSAKWkpaAAUtIKWmMSiiigQUUUUgCiiimAUUUUgCiiigAooooAKKKKACiiigApKWkpgLRRRQAUUUUgCiiimAUUUUgCiiigAooooAKKKKACkpaKACiiigAooooAKKKKACiiigAooooAKKKKACiiigAooooAKKKKACiiigYtJRRQAUUUUCDaPSmmNW+8oP1FOop3CyMufw3o1y+640uykbOdzQKST+VUZvAnh6aXe2mop9I3dF/75UgfpXRUlPnl0ZDpQe6RzEnw58OSHP2ORfZbmQf+zVXm+GOhSsDH9rgGPupNkf8AjwJrr6KpVZrqS8PSf2UcX/wqzRv+fi+/7+L/APE0h+Fmjn/l5vx9JF/+JrtqKftp9yfqtH+U4n/hVWj/APP1qH/fxP8A4mpP+FXaHx815x/026/pXZUUe2n3GsNSX2Ucqnw38OIADZysR3NzJ/RhVhfAfh1NuNMjO3pud2/PJ5/Guhope0m+rKVCmvsoy4fDOi27BodJsEYdCtsgP54rQihigQJFGqKvRVUAD8BUtFS23uy1CK2QYooopFCGilpKBENzbQ3cDw3EavG4wyMMgj6V5r4p8AyWO+80dZJYOrW4yzIPVe7D26j37eoUVpTqypu6MK2HhWVnufPHXkUV634m8C2uslrm0YW16eWbHyyfUdj7jn1zXmGp6Xe6Tc/Z7+BoZD90nkOPVSODXpU60ai8+x4tfDTpPVadylRS0VrY5hKTFOpKVgEKA9at2mrajp6BLO/uoI1OQkcpC56dM4qpSVLinuXGcou6Z0C+PvEiDA1LdxxugjP/ALLVs/EvXjaGENarIRjzxF84/Xbn/gNcqaSo9jB9EbLE1UviYssrzStJK7vI5LMzMWZiepJPU00UtGK0SsYt3CijFOihluJ0ggjaWWQ7URRkk0OyV2JK7shjNtBJPA9a7bwv4IMuy91qIheGjtHHJ9DIP/Zfz9K0/DPgyHStl3qASe+4KjGUh+nq3+1+XqeprhrYhvSOx62GwSVpVPuDGOB0ooorlPSClFFFIAooooAWiilFAAKUClUZOB1rj/FXjVbHdY6Q6vc8iS4HIi9l9W9+g7ZPSoQc3ZGdSrGlG8maPibxXDoCGCHZNfsMiPPEYPdv6D88Dr5dd3k99dSXF1K0s0hy7t3/AM+naoXdndmdmdmJZmY5LE9ST3NHSvSpUlBeZ4mIxEqz12CiilFbHMFKBSbgK77wl8PXuPLvtejKx8NHaN1b0L//ABP5+lRUqxgrs0pUZVXaJj+F/B114hInkL29gGwZcYaTHUID27bun15x6zp+n22mWUdrZxLFDGMKqj9fc+9TpGkSKkYCqoACgYAA9qfxXm1KspvXY9zD4aNFabi0UUVkdAUUUlAC0lFFABRRRQAtJRRQAUUUUgFooooABS0gpaYxKKKKQgooooAKKKKYBRRRSAKKKKACiiigAooooAKKKKAEooopgLRRRSAKKKKACiiigAooooAKKKKYBRRRSAKKKKACiiigAooooAKKKKACiiigAooooAKKKKACiiigAooooAKKKKACiiigAooooAKKKKACiiigAooooAKKKKACiiigAooooAKKKKACiiigAooooAKKKKYxKKWkoAKKKKQgqveWFvqFs1vdwxzQt95HXINWKWmm07oHFNWZ55rPwwVi0ujXPl+kExLD8G6j8c/WuJ1LQ9R0jP8AaFnLAgP3yMp/30Mj8M17xSMoPUA1008VOOj1OGrgKc9Y6M+eetJXtOo+CtD1Es0likUpyd8BMZz6nHBP1Brz3xj4Wj8NzW7W0kskEwYZkIJDA+wHYj8jXXTxEajtszzq2DnSXNujmDSUppK2scglGKWkosMWikxW34e8NXWvyFgfJs0OHmI6n0Udz79B+lKUlBXbLhCU3yxWpT0rSLvWrryLOMEjl3bhEHuf6da9L0Dw3Z6BD+6Hm3LriS4Yct7D+6vt9M5q/p+m2ulWi21nEI4x19WPqT3NWa86tXc3ZaI9rDYSNJXlqxKKWjFc52CUtFFABRRQKACloxS0AFBKqrM7KiINzMzYVR6k1DeXdvp9m91eSrFBH95j3PYAdyfSvM/Eni2411jDGGt7EHKxZ5b0LnufboP1rSlSdR6bHPXxMKK11fY1fE/jkzpJY6OSsRyslx0LjuF9B79T7Vw5FKTSV6UKagtDxKtaVWXNIKWigCtDIUCnwwy3M8cFvG0s0h2oiDJJqzpmlXusXq2mnw+ZKeWJ4VB6sew/yK9c8MeELTw5bkgCa8cYknYcn/ZX0X2796wq11BW6nVh8NKs/IzPCHgOPStl/qgSa/6qnVIPp6t/tfl6ntKWkrzpzcndnt06caceWItFFFSaBRRSUCClpKWgApKKWgAooooASilpKACiiikAtFJS0AApaQUtMYhooooEFFFFABRRRQAUUUUgCiiigAooooAKKKKACiiimAUUUUAFFFFIAooooAKKKKACiiigAooooASloopgFFFFIAooooAKKKKACiiigAooooAKKKKACiiigAooooAKKKKACiiigAooooAKKKKACiiigAooopgFFFFIAooooAKKKKACiiigAooooAKKKKACiiigAooooASloopgFFFFAwooopCCiiigBKxvFWi/27oM9quPNA3wk9nHT8+R+NbNFOLcWmiZxU4uL6nzw6sjsjgqykggjBBHUGm13XxG8N/Zbr+17Vf3UxAnAHCt2P0Pf3+tcLXs05qpFSR87WpOlNxYlFFFUZHQ+FfDcOvzSefeCNYSN0KD946+uew7ZGfw4r0+C2htLdILeNY4oxtVVGABXjmlajNpOoxX1vy0ZwVzgOp+8p+o/I4PavYbK8h1Cyiurdt0UyhlP9D7joR6ivPxSldO+h7GXuDi0lqSmkpxFJiuQ9ESijFFABRRRQAUtApQKQwAqjrWtWuhWP2i7JJbIiiU/NI3oPQep6D64BreJPElt4cthvAlvJFzFBu7f3mx0X9T0HcjyzUdSutWvHur2UyzNxnoFHZQOgA9BW9Gg5u72OPFYtUlyx1f5FrW9evNfuvOu2wiZEUK52Rj2Hr6k8n9Ky6KK9KMVFWR4kpOb5pPUSloopkgBW14d8MXviO4K248q2RsSXDDhfYD+Jv8mtHwj4Kn19lu73dBpwPB6NN9PRff8vUesWlpBYW0dvaxLFDGMKiDAArmrYhR0jud+Gwbqe9PRFTRdDstBsltrGLavV3PLO3qx7mtOkorgbbd2exGKirJaC0UUVIwooopgFJS0UAJS0UUAFFFFABRRRQAUlLRQAlFFFIApaKKAAUtJS0xiUUUUCCiiigBKWiigAooopAFFFFMAooopAFFFFMAooopAFFFFMAooopAFFFFABRRRQAUUUUAFFFFABRRRQAUUUUAFFFFABRRRQAUUUUAFFFFABRRRQAUUUUAFFFFABRRRQAUUUUAFFFFABRRRQAUUUUAFFFFMAooopAFFFFABRRRQAUUUUAFFFFABRRRQAUUUUAFFFFABRRRQAUUUUAFFFFABRRRQAUUUUAQXlpFfWktvcIHilUq6nuDXiHiLRJdB1eW0k3NH96JyPvoeh+vY+4r3Wud8Z+HBr+ksIsC7hy8J9fVfx/niunD1uSWuzOTF4f2sbrdHi9FK6tG7I6lXUkEEYII6g0lemzwmrCg12PgHXhaXJ0q5fEU7ZgJ6K56j6N29/rXGinZyO/4HBrOpBTi0zSjVdKakj3QimkVz/g7xD/benGK5bN9b4EnbzB2f8eh9/TIroiK8qcXFtM+ipzU4qS6jMUlONJUliUtFKoLHAGTSABXPeKvF0Wgxm3tCk2oMOnVYR6t6n0X8T6Gl4q8apZB7HSJA9zyJLhTkReoX1b36Dtz085ZjIxZiSWOSSckn1zXXRw7l70tjzsVjVH3ae/Vjri4lu7iSe4kaWWQ7ndzksfc0ykxSiu9JJWR5Dd3di0UUoVnZURWd2IVUUEsxPQADqaBIaWCgknAHc13nhD4fvdmO/1yJkh4aO0YYL+hcdh/s/n6HT8G+AlsTHqGsor3YIaKA4Kw+hPq36DtzzXeDiuKtiL+7E9XC4K1pVBEVUUKqgKBgADAAp1FFcZ6YUUUUAFFFFAwooooAKKKKQgooopgFFFFIAooopgFFFFABRRSUgFooooAKWkFLTGJRRRQIKKKKQBRRRQAUUUUAFFFFABRRRQAUUUUAFFFFMAooooAKKKKQBRRRQAUUUUAFFFFABRRRQAUUUUAFFFFABRRRTAKKKKACiiikAUUUUAFFFFABRRRQAUUUUAFFFFABRRRQAUUUUAFFFFABRRRTAKKKKQBRRRTAKKKKQBRRRTAKKKKQBRRRQAUUUUAFFFFABRRRQAUUUUwCiiikAUUUUAFFFFABRRRQAUlLSUAea/EbwuUkbWrNPkbAuUA6dg/49D+frXn9fQ0sSTRPHIoZHBVlIyCDwQa8V8W+Hz4f1l4UDG2kG+Bj6Htn1B4/KvRw1bmXI91seTjcPyvnW3Uw6BQaK7DzWi7pepzaPqMV7bH54+GXOBIp+8p9j+hwe1exWN9DqVjDdWzbopVDKf6H3B4I9RXiIyea6rwX4kGkXP2K8fFlM2VZjxEx7n0U9/Q8+prkxFHmXMt0d+CxHs3ySejPSiKQin4qG6uYLK2e5upVigQZZ26fQDufYV5yTbsey2krvYc2FVmYqqqCzMzYVQOpJPQVwPijxqblZLHSGKQHKyXA4aQdwO6r+p9u+f4m8XTa0zW8AaCxDZEeeZMdC3r9Og9zzXNnrXbRwyWsjycVjeb3Ke3cQ8/SkxS0YrsPNDFFOFX9F0S98QX/wBlsY+FwZJWHyRj3Pr6DqfzNKUlFXZUYuTslqVbGxudSvUtLGFpriToo7DuSew969a8J+Crbw9GtxcYuNRYfNLjiP1VPQe/U/pWj4e8N2Xhyy8m1XdK+DNMw+aRvf29B0FbFefWruei0R7OGwip+9LVi0UUVznaFFFFIAooopgFFFFAwooopCCiiigAooooAKKKKACiiigAooooASilopgFFFFAAKWkBpaBiUUUUCCiiikAUUUUAFFFFABRRRQAUUUUwCiiigYUlFFAhaKKKACiiikAUUUUAFFFFABRRRQAUUUUAFFFFABRRRTAKKKKACiiikAUUUUAFFFFABRRRQAUUUUAFFFFABRRRQAUlLRQAUUUUwCiiikAUUUUAFFFFABRRRQAUUUUwCiiigAooooAKSlooAKKKKQBRRRQAUUUUAFFFFABRRRQAUUUUAFFFFABRRRQAUUUUAJWD4u8PL4g0doVIFzHl4WP970Psen5VvUVUZOLTXQmcFNOL2Z88SRPDK8cqskiEqykYII4INMr0P4jeGSrHWbRODgXKgfgH/ofwPrXnpr16dRVIqR8/XpOnNxYlLmkoqzA7vwt40gstIkt9VkctbKPIwpLSL2XPQEep7fSuc1/xFd+ILkPOdkKZ8qBD8qD+p9T/wDqrJBpKxVKKblbU3niKk4KDeiEopcUVoYBRRxiut8I+BptcKXmoh4dP4KpyrzjqMein16nt61M5qCuzSnSlVlyxM/wz4Tu/Es+UJgskOJLgjr/ALKjuffoP0r17SdJs9FsVtbGIRxLyfVj3JPc+9Wbe2itYEgt40iiQBVRFwqgdgB0qWvNq1nN67HuYfDRoruxaKKKyOkKKKKQBRRRTAKKKKQBRRSUwFopKWgAooopAFFFFABRRRTASloooAKKKKQBRRRQAUUUUARLLGWAEiEnsGFTVz1n/wAfcP8AviuhpjEoqMvjPtTwcgGgQtFFFIAooopgFFFFABRRRQAUUUUAFFFFABSUtFABRRRQAUUUUAFFFFIAooopgFFFFIAooooAKKKKYBRRRQAUUUUgCiiimAUUUUAFFFFABRRRSAKKKKACiiigAooooAKKKKACiiigAooooAKKKKACiiimAUUUUAFFFFABRRRQAUUUUAFFFFABRRRQAUUUUgCiiigAooooAKKKKACiiigAooopgFFFFIAooopgJRS0mKQDJI0ljZHUMjAhlIyCD1BFeM+MfDh8P6sRECbOfLQk87fVc+o/livaay/EGiQa/pEtnN8pPzRvjlHHQ/0PsTW9Cr7OXkc2KoKrDzR4VRVi/sbjTL2W0u0KTRHBHY+hHqD1Bqua9XRq6PAkmnZhRSiigkMYoOBy3QdaXBJAAJJIwAMkn0Ar0rwX4G+xsmp6xGpuRhoYG5EXox/2vT0+vTGrVVNG9GhKtKyKvhDwAJUTUNdhODgxWjjt2Mg9f9nt39B6P0FJS15s6jm7s96jRjSjaItFFFQahRRRSAKKKSmAZooooAWikpaACkpaKACiiigAooopAFFFFMAooooAKKKKACiiikAUUUUwCiiikBxOl3Mzapaq0rEGQZGa7evO9Hui2sWa7RzKvevQ6Yyk8mGYe5qx8ykEHgjpWZLLiZx/tEVoTTBEAAywH5UATq2frS1Vs5nlz5gG5cjI71aoEFFFFABRRRQAUUUUAFFFFABRRRQAUUUUAFFFFABRRRQAUUUUAFFFFABRRRQAUUUUAFFFFABRRRQAUUUUAFFFFABRRRQAUUUUAFFFFABRRRQAUUUUgCiiigAooopgFFFFABRRRQAUUUUAFFFFIAooopgFFFFABRRRQAUUUUAFFFFABRRRQAUUUUAFFFFABRRRQAUUUUAFFFFABRRRQAUUUUAJiloooAKKKKQBRRRQBi6/4YsPEMAW7jKyoPkmjOHT8e49jxXn2pfDXV7Mk2bRXyZ4CkRv+THH/j1etYoxW1OvOGiehz1cLTq6tanhreFNeSTYdJuS3qACPzBxVuz8B+Ibtl3WQtkYZ3zyKAPwXLZ/CvZ6CK1eLm1ojBZdT6tnJ+GPAlnoTi6uWF3fY4kZMLH/ALo7H36/TmuspaQ1zyk5O7Z206caa5YoKWkpaksKKKKBBRRRQAUUUUAFFFFABRRRQAUUUUAFFFFABRRRQAUUUUAFFFFABRRRQAUUUUAFFFFABRRRSA8s0LULeTXrBFclmmUD5TXqleKeGv8AkZtM/wCvhK9rpjIWgjMnmGNS/rjmmvEZD0wPU1PRQIZHGsS4Wn0UUAFFFFABRRRQAUUUUAFFFFABRRRQAUUUUAFFFFABRRRQAUUUUAFFFFABRRRQAUUUUAFFFFABRRRQAUUUUAFFFFABRRRQAUUUUAFFFFABRRRQAUUUUAFFFFABRRRQAUUUUAFFFFABRRRQAUUUUAFFFFABRRRQAUUUUAFFFFABRRRQAUUUUAFFFFABRRRQAUUUUAFFFFABRRRQAUUUUAFFFFABRRRQAUUUUAFFFFABRRRQAUUUUgCiiigAooopgFFFFABRRRQAUUUUAFFFFABRRRQAUUUUAFFFFABRRRQAUUUUAFFGKKACiiigAooxRigAooooAKKKKQH/2Q==;" parent="1" vertex="1">
          <mxGeometry x="-790" y="50" width="130" height="130" as="geometry" />
        </mxCell>
        <mxCell id="NyZ2p4l8XGoLrlmHf86C-3" value="Email:" style="text;html=1;strokeColor=none;fillColor=none;align=center;verticalAlign=middle;whiteSpace=wrap;rounded=0;" parent="1" vertex="1">
          <mxGeometry x="-810" y="200" width="60" height="30" as="geometry" />
        </mxCell>
        <mxCell id="NyZ2p4l8XGoLrlmHf86C-4" value="" style="rounded=0;whiteSpace=wrap;html=1;" parent="1" vertex="1">
          <mxGeometry x="-800" y="230" width="160" height="20" as="geometry" />
        </mxCell>
        <mxCell id="NyZ2p4l8XGoLrlmHf86C-5" value="Password:" style="text;html=1;strokeColor=none;fillColor=none;align=center;verticalAlign=middle;whiteSpace=wrap;rounded=0;" parent="1" vertex="1">
          <mxGeometry x="-800" y="260" width="60" height="30" as="geometry" />
        </mxCell>
        <mxCell id="NyZ2p4l8XGoLrlmHf86C-7" value="" style="rounded=0;whiteSpace=wrap;html=1;" parent="1" vertex="1">
          <mxGeometry x="-800" y="290" width="160" height="20" as="geometry" />
        </mxCell>
        <mxCell id="NyZ2p4l8XGoLrlmHf86C-8" value="Login" style="rounded=1;whiteSpace=wrap;html=1;" parent="1" vertex="1">
          <mxGeometry x="-800" y="330" width="70" height="20" as="geometry" />
        </mxCell>
        <mxCell id="NyZ2p4l8XGoLrlmHf86C-9" value="Register" style="rounded=1;whiteSpace=wrap;html=1;" parent="1" vertex="1">
          <mxGeometry x="-710" y="330" width="70" height="20" as="geometry" />
        </mxCell>
        <mxCell id="NyZ2p4l8XGoLrlmHf86C-13" value="" style="shape=image;imageAspect=0;aspect=fixed;verticalLabelPosition=bottom;verticalAlign=top;image=data:image/png,iVBORw0KGgoAAAANSUhEUgAAAu4AAAE2CAYAAAA+mBcVAAAAAXNSR0IArs4c6QAAAVlpVFh0WE1MOmNvbS5hZG9iZS54bXAAAAAAADx4OnhtcG1ldGEgeG1sbnM6eD0iYWRvYmU6bnM6bWV0YS8iIHg6eG1wdGs9IlhNUCBDb3JlIDUuNC4wIj4KICAgPHJkZjpSREYgeG1sbnM6cmRmPSJodHRwOi8vd3d3LnczLm9yZy8xOTk5LzAyLzIyLXJkZi1zeW50YXgtbnMjIj4KICAgICAgPHJkZjpEZXNjcmlwdGlvbiByZGY6YWJvdXQ9IiIKICAgICAgICAgICAgeG1sbnM6dGlmZj0iaHR0cDovL25zLmFkb2JlLmNvbS90aWZmLzEuMC8iPgogICAgICAgICA8dGlmZjpPcmllbnRhdGlvbj4xPC90aWZmOk9yaWVudGF0aW9uPgogICAgICA8L3JkZjpEZXNjcmlwdGlvbj4KICAgPC9yZGY6UkRGPgo8L3g6eG1wbWV0YT4KTMInWQAAO8hJREFUeAHt3Qm0JEWd7/G4S9/b6+0Fu1mapZFF9kWgG5tFQMAGhQHZdQQUYfC94c0cfY5znh7fOY4zOjP63nHGweM4wgMBRVYBWYRuoAGBtqHZBZp9E7qBht7v/uqXGG3eqMiqrLqZVZVxv8EpqiorKzLiE3mr/xkZGdnW19c3bEgIIIAAAggggAACCCDQ0gLtLV06CocAAggggAACCCCAAAKRAIE7OwICCCCAAAIIIIAAAgUQIHAvQCNRRAQQQAABBBBAAAEECNzZBxBAAAEEEEAAAQQQKIAAgXsBGokiIoAAAggggAACCCBA4M4+gAACCCCAAAIIIIBAAQQI3AvQSBQRAQQQQAABBBBAAAECd/YBBBBAAAEEEEAAAQQKIEDgXoBGoogIIIAAAggggAACCBC4sw8ggAACCCCAAAIIIFAAAQL3AjQSRUQAAQQQQAABBBBAgMCdfQABBBBAAAEEEEAAgQIIELgXoJEoIgIIIIAAAggggAACBO7sAwgggAACCCCAAAIIFECAwL0AjUQREUAAAQQQQAABBBAgcGcfQAABBBBAAAEEEECgAAIE7gVoJIqIAAIIIIAAAggggACBO/sAAggggAACCCCAAAIFECBwL0AjUUQEEEAAAQQQQAABBAjc2QcQQAABBBBAAAEEECiAAIF7ARqJIiKAAAIIIIAAAgggQODOPoAAAggggAACCCCAQAEECNwL0EgUEQEEEEAAAQQQQAABAnf2AQQQQAABBBBAAAEECiBA4F6ARqKICCCAAAIIIIAAAggQuLMPIIAAAggggAACCCBQAAEC9wI0EkVEAAEEEEAAAQQQQIDAnX0AAQQQQAABBBBAAIECCBC4F6CRKCICCCCAAAIIIIAAAgTu7AMIIIAAAggggAACCBRAgMC9AI1EERFAAAEEEEAAAQQQIHBnH0AAAQQQQAABBBBAoAACBO4FaCSKiAACCCCAAAIIIIAAgTv7AAIIIIAAAggggAACBRAgcC9AI1FEBBBAAAEEEEAAAQQI3NkHEEAAAQQQQAABBBAogACBewEaiSIigAACCCCAAAIIIEDgzj6AAAIIIIAAAggggEABBAjcC9BIFBEBBBBAAAEEEEAAAQJ39gEEEEAAAQQQQAABBAogQOBegEaiiAgggAACCCCAAAIIELizDyCAAAIIIIAAAgggUAABAvcCNBJFRAABBBBAAAEEEECAwJ19AAEEEEAAAQQQQACBAggQuBegkSgiAggggAACCCCAAAIE7uwDCCCAAAIIIIAAAggUQIDAvQCNRBERQAABBBBAAAEEECBwZx9AAAEEEEAAAQQQQKAAAgTuBWgkiogAAggggAACCCCAAIE7+wACCCCAAAIIIIAAAgUQIHAvQCNRRAQQQAABBBBAAAEECNzZBxBAAAEEEEAAAQQQKIAAgXsBGokiIoAAAggggAACCCBA4M4+gAACCCCAAAIIIIBAAQQI3AvQSBQRAQQQQAABBBBAAAECd/YBBBBAAAEEEEAAAQQKIEDgXoBGoogIIIAAAggggAACCBC4sw8ggAACCCCAAAIIIFAAAQL3AjQSRUQAAQQQQAABBBBAgMCdfQABBBBAAAEEEEAAgQIIELgXoJEoIgIIIIAAAggggAACBO7sAwgggAACCCCAAAIIFECAwL0AjUQREUAAAQQQQAABBBAgcGcfQAABBBBAAAEEEECgAAIE7gVoJIqIAAIIIIAAAggggACBO/sAAggggAACCCCAAAIFECBwL0AjUUQEEEAAAQQQQAABBAjc2QcQQAABBBBAAAEEECiAAIF7ARqJIiKAAAIIIIAAAgggQODOPoAAAggggAACCCCAQAEECNwL0EgUEQEEEEAAAQQQQAABAnf2AQQQQAABBBBAAAEECiBA4F6ARqKICCCAAAIIIIAAAggQuLMPIIAAAggggAACCCBQAAEC9wI0EkVEAAEEEEAAAQQQQIDAnX0AAQQQQAABBBBAAIECCBC4F6CRKCICCCCAAAIIIIAAAgTu7AMIIIAAAggggAACCBRAgMC9AI1EERFAAAEEEEAAAQQQIHBnH0AAAQQQQAABBBBAoAACBO4FaCSKiAACCCCAAAIIIIAAgTv7AAIIIIAAAggggAACBRAgcC9AI1FEBBBAAAEEEEAAAQQ6IWiswPDw8IgNuu9HfMgbBBBAAAEEEECgAQJtbW0Vt1Lt84pf5sPMBAjcM6NMzigenNvXeraP5G/yCQIIIIAAAgggkL+ALzDXsqTl+ZeILfgECNx9KhksswG6srKvh4aGjH0MDg5uCtwJ4DMAJwsEEEAAAQQQqEvAF6DbZR0dHaa9vX3Tw92AL7B31+F9dgIE7tlZbsrJBuo2INezAvWBgYHoodf9/f3RMruOAnoSAggggAACCCDQaAEF5m4ArvcK2seNGxc9d3Z2Gj20zAb1elYc43630eUfS9tr6+vrGznoeizVPoe6agdWsgG5nkvG0UPBeldXl5k8ebLp7u5mR8/BnywRQAABBBBAIBsBxTC9vb1m7dq10bNiGD0UzNtg3wbt9jmbLZNLkgA97kkyo1hug3b1oitY106vx2abbWYmTpw4ipz5KgIIIIAAAggg0BgBBePjx4+PHhs3bjQrVqyIRgto6zZ412utp9iH4F0a+Samg8zQ1wbs9lmBu4bHaGefMWMGQXuG1mSFAAIIIIAAAo0TUAA/c+bMTSMIFOPYeEfPpMYIELjn5KydWDu1hsnotNKkSZNy2hLZIoAAAggggAAC+QtMmDAh6mnXaAJ1TBKw52/uboHA3RWp831859VrPbRTK3Dv6empM1e+hgACCCCAAAIItI7A1KlTo5EE7ux4KmE8FmqdEodVEgL3DNvTBuzKUq+1U2tsu04vkRBAAAEEEEAAgaILKKZRp2Q8cFedCNob07IE7jk42wBePe4bNmyIrrzOYTNkiQACCCCAAAIINFRAs8no2j3FOBoSTGqsAIF7Bt7xo0wbtGtn1tGodmwSAggggAACCCAQioDtcfddoBqPiUKpbyvVg8A9o9awAbuys6+1QxO4ZwRMNggggAACCCDQEgLqmCRob05TELhn7G6PNG2Pu55JCCCAAAIIIIBAKAKKbezDxj2h1K3V60HgnkML2R53PRO45wBMlggggAACCCDQNAEbtDetAGN4wwTuOTY+R6E54pI1AggggAACCDRFgPimKezRRgncm2fPlhFAAAEEEEAAAQQQSC1A4J6aihURQAABBBBAAAEEEGieAIF78+zZMgIIIIAAAggggAACqQUI3FNTsSICCCCAAAIIIIAAAs0TIHBvnj1bRgABBBBAAAEEEEAgtQCBe2oqVkQAAQQQQAABBBBAoHkCBO7Ns2fLCCCAAAIIIIAAAgikFiBwT03FiggggAACCCCAAAIINE+AwL159mwZAQQQQAABBBBAAIHUAgTuqalYEQEEEEAAAQQQQACB5gkQuDfPni0jgAACCCCAAAIIIJBagMA9NRUrIoAAAggggAACCCDQPAEC9+bZs2UEEEAAAQQQQAABBFILELinpmJFBBBAAAEEEEAAAQSaJ0Dg3jx7towAAggggAACCCCAQGoBAvfUVKyIAAIIIIAAAggggEDzBAjcm2fPlhFAAAEEEEAAAQQQSC1A4J6aihURQAABBBBAAAEEEGieAIF78+zZMgIIIIAAAggggAACqQUI3FNTsSICCCCAAAIIIIAAAs0TIHBvnj1bRgABBBBAAAEEEEAgtQCBe2oqVkQAAQQQQAABBBBAoHkCnc3bNFsuqsDw8LAZfO0VM/DU46b/6SfN4CsvmqHV75vh1avN0JrVxgwOmLYJE03bxImmY9aWpn321qZzh51N97yDTMfsbYpabcqNAAIIIIAAAgg0VYDAvan8xdq4gvSNv73J9N51RylIf79i4YfXrjF6DK14y5gnHjG9pbXXXfh/TMfW25quufNN17yDzbh99jNtHR0V8+FDBBBAAAEEEEAAgQ8ECNzZEyoKDJd6zzfecoPZcM0vzOCrL1dcN82H6qnfoMe1v4yC+IlnnWe6DzvKtLW1pfk66yCAAAIIIIAAAmNWgMB9zDZ99Yr3Ll5o1l3042hYTPW1a19DQfyaf/ymWX/FxWbS2X9lug86rPZM+AYCCCCAAAIIIDBGBAjcx0hD11LNwZVvmTXf/Zbpf2xZLV+re93BF583q//335lxH51rer7xHdM+dVrdefFFBBBAAAEEEEAgVAFmlQm1ZeusV+99d5tV532uYUF7vJj9Dy8xq87/y+iC1/hyXiOAAAIIIIAAAggYQ+DOXrBJYO1//Uep5/trZlgzwzQpDa1cYd7723PNhhuvaVIJ2CwCCCCAAAIIINCaAgyVac12aWipNL3j2n//V7Pxhqsbut3EjQ0MmIHnlyd+zAcIIIAAAggggMBYFCBwH4utHqtzFLT/4Dtm4603xpY29+X4T3/GTP6brze3EGwdAQQQQAABBBBoMQGGyrRYgzS6OOsv/WlLBu1MD9noPYHtIYAAAggggECrC9Dj3uotlGP5eu+/x6z/+X9ls4Xx40379BmmfdoMY0pDb4beW2WGVr1jTK9uvZQu2Z52gvZ0XqyFAAL1Cyxbtsw8+OCDZRmcf/75ZctYgECSwEUXXWT6+vpGfLzPPvuYAw88cMQy3iCQlQCBe1aSBctn8I3XzJrvfWtUpe78yG7RzZO69t3fdOyws/cmSgMvv2D6ltxv+h641/Q/+lDi9gjaE2lG/cF7771nXn75ZbN27VqzcePG0nHVsOnu7jYzZsww22yzjenp6alpG++++65ZtGiRWblyZZTP7rvvbubNm1dTHqGvjNHoWrgRfuvWrTNvvvnm6Ara4G8PDg5Gf8v621P59b6rq8tMmDDBbLbZZmbOnDmmg7tRN7RV3nrrrVL/1MgOqjVr1jS0DGxsbAkQuI+t9t5U2zX/9i9muPTDX0/qmjvfTPzcF8243feq+vXO7T5s9Jh4SmmKyaefNOv+309M/9IHRnyPoH0ERyZv3nnnHfP73//ePPPMM0aBu4J1X2pvbzezZs0yu+22m5k7d64ZXzpzUikpUPjlL39pVqxYsWm1V155JcqfHqYPSDDatGvU9QK/crann37aPPzww1HQ7gaJ8bUVxG+11VZm7733Nvvuu2/8I14jgEAgAgTugTRkLdXove+usuA5zffbpk03k//6f5rxhx2VZvWydcbtsruZ9r1/Mxvv/K1ZU7ogttT9awjay5hGtUBBz913320eeOCBstO3voyHhoaiXkf1PC5dutQcfvjhFf/BV899PGi3eT755JOcGv4TBkZ2r6jvGb8/u+lv7dZbbzUvvPDCnxdWeKUhGy+99FL0+N3vfmeOPfZYs/3221f4Bh8hgEDRBAjci9ZioyzvUN8Gs/Y//rXmXDrmfNhM/e4PTcfMzWv+rvuF8YcfbTrn7GB6777DTDzrPO8QG/c7vK8uoJ64K6+8MvU/8m6Oq1evNjfccIPRqd8FCxa4H0fvFej7UlKPvm/d0JdhNLoWrsfvxhtvLDtQ3Xnnnc2ee+45usI08dvLly83119/fTQkpp5iaDjNZZddFgXv++23Xz1Z8B0EEGhBAQL3FmyUXIu08nIzft5Ss/6WbYwZSDepUOdue5qp//RD0z55cmZF69x+B6MHKTuBX/3qV3UH7bYUCsDVW68x8Op9d9O2224bjY3XGOR4UpBE+kAAo9HtCfX4PfXUU2bDhg0jNqxrN4oauOuswzXXXBNdkzKiUjW+0Rm4m2++2YwbN87stVf1oY01Zs/qCCDQBAEC9yagN3OTQ6/+yHTvscp0zir1vF+7fWnml+6KxWnfYisz9R9+kGnQXnGDfFiXgE6LP//8897vKhDSGHY9T58+3QyUbnClMfAvvviiefzxx40bhCuTe++9NzrFrovd4kljaE855RRz5513mrfffju6MG6XXXYxhx56aHy1Mf0ao9E1/1j303CXm266yRu0a8YtDX3RgfKWW25ppk6dGq2ns2T6+9dYeHeGEwXvt99+u/nwhz9sJmfY+TK6VubbCCBQrwCBe71yBfze0Lt3GrPuqajkHbM2mp4vPGPW3bit6V8+zV+bUi/N1O+UgvapCZ/7v8XSJghofLqb9I/8EUccYQ455BD3IzNlyhSjoPyggw6KTserxzKe7Fh5reMmBQyf/exn3cW8jwlgFMOo4+VY9rvjjjuiGZtcNs0c86lPfcrsscce7kdmiy22iC5I/eMf/2iuvfbasu9rlhMdbB933HFl32UBAggUSyDdWIli1YnSJggMr7h6xCdt3UNm8skvmQmHv2FMW/msIxNPOzMaiz7iS7xpOQFdjObrNd9pp528QXu8AurdPOmkk8zmm5dfu6DT9epVJyGAQGMEFGA/8sgjZRvTUJfPfOYz3qA9vrIOeE4//fRoesj4cr1Wb7zOtpEQQKDYAvS4F7v9air98Nu/8a4//sAVpmPL9Wbd9duZ4fXjonXaZ84yEz97tnd9FraWgC5C86WPfOQjvsVlyzTvs6aO0+wV8aSLBJ977jnzoQ99KL44k9eag1rDdTQuWb3/2oYOIvJMdojQ+++/H811rWFDmsu+CKnIZS+Cb6UyauiJDmAVVGsf1T6jISp5JE3h6g510Xb096kD8TRJ87kfcMABZvHixSNW19/cE088YXRzoFqT7v+g4Tj6e5WB6q/tZJ0asZ1m/PakcZKtNdbZFf0+5bWfpSkP67SuAIF767ZNpiUbXrOsdBfTUs96Qhq33VrT88VnzNrrtjeDr08yE/7iFNPWVXn8e0JWLG6wwPr1671bnDhxone5b6HGv/vSqlWryhb/9Kc/LQsuFFjMnz+/bN34AgWfGjuvnj/9AxWfiUbBgG4GpRs5afyugnrNFx9PCpjOOOOM+KLotea3vv/++0cs1xmEk08+OVqmuew1lEjzzcfnwNZQomnTphmN0ddwolq8RmzM8yatUauUXWdXNK46nuRz9tlnV3RRcKjrJGxSsFFtGJWGcmhIRzztuuuu0bAuu6ya36WXXhoF0nb9eLvaZY8++qh59tln7dvoGo9ahopoP7X7TTyYlouCVt14TPu8LuTOKv3hD38oy0p/G4cddljZ8koLNIuM/tbcGXpee+211IG7ZpnSnWU1u43+HjV8Lp709zJ79uzoAuDRXPjaiO3k9dsT96jntYJ1/XbpN0odMG57KXDX76LusZH0G13PdvlOsQUI3IvdfqlLP7w6+a6lNpP2KQNmyueWmw337GzGH/MXdjHPLS6QdNMkzQGtgChNUiBy5JFHlq3qG0Kj3kc3UFIvVqVkA8OkswMKjHRxnearVo+gyu2uq4DJl3Tg4q6rG0spT01vqTnm4wcJNg8t04GJ/uFUgKeLbjVWOIuU1qhVyq4ATAGU264641IpKFNwG7dXvRXkVeqNVZ7uwaZ70FfNT0PDdGOxSkl3CtbDprS9lwryfv3rX0e900n7jcqn+yWo/qeeemrF+trtV3tWWWXnpu22267iwZO7vt6rrnNK16e4RvEDEN/37DIF/XqoBzwpqQ0V1OuxZMkSc8wxx0SBfNL6vuWN2E6evz2+OqVdtmzZMrNw4cIR+6j7XZ0d1EMHdJoh6dOf/rTp7CRsc53G2nv2gDHS4sNrH0tV07YOYyadOHtUF6Se/MPKQVyqglRZ6bQDS7ObzPtgWE+VVYP/eOutt/bWUb2F+rFPMxxEvYYHH3ywN5/RLlRPt6aqrBbcazsKlPQPmnoGR5MUgP7iF7+IZs5Jk48Cpuuuu86ce+65Tf+HsRllVzCgO25qpqF4evXVVxMDdwUUunFXPKn9dKGz74Joraf83KBd2047rCu+rbxeX3HFFamnVdWZI51B0H4z2qSDVrfHVXnW29N65pln1lwk9aqrPjrYrSXp71VzxuuMhmawqpYatZ1m/PZUq7s+1yw/mgnMd2Do+768dO2DDq5PO+20TM/y+LbHstYW4OLU1m6fzEo3vPaJ1Hm1Tf946nV9K64qxe15P15c6b8RkK88oS9Tb+msWbPKqqkxuZdcckkUSJV92KAF6rFTIJAmaI8XKd6LG1+e9rV6Gt0gtNp3FYS5Q26qfSePz5tVdl+A6A5piddXwZ0v0Kx0l0/1frpJZzmyHKbk5l/r+0rl9+X1+uuvR/c+8H1WyzL3IMh+N6uzQDa/Ss8aLlVr0G7z07APnalQsFwtNWI7zfrtqVZ3DS+77777Ugft8fy0b952223xRbwegwL0uI+VRu8d2TNWsdpT51X8uBU+/ON7BO7xdrDTOro9OOoVveqqq4x65TUOXcMeGnmqVT1L7ul6lVvDXjSvtMaza5y5/tFXkKjeWh1wZJW0HQWk6tHVmQf5KEDS+GdfuRS0JPUWZ1WmtPk0uuxqCw3/iCcNt9LQEd8+kxTgKpBV0OQbwqXP3JR0xshdL/7++OOPN/39/ZsW6eDQHeaz9957j+j9nTRp0qb1q72Q/ZzSUBOZaL9Rj6f2z8ceeywauuB+X8sPPPBAd3FN790zEfbLmimmEUk9ur4ZbWQhB/Wk6yJyOSs419+Qew2MPtPdXs8///zEi80btZ1m//b42kxu7kXDWk8TBOiaCV1vo+tE1NGhoYOy0m9jPGmZhhKmvVg5/l1ehyFA4B5GO1avxcD71df50xptXdmM8029wTpWXL2hfPrKOrIJ5isKUtSbqYsd3aRgVUMU9NAc0fYGLvqHwheQud+v973G7MYvXLT5aPy5xsNq5ot40th2Bc1XX3210RSXo02q29FHHx1d2BXPS//oadsXXXRR2TSaClQVQDW7B7gZZdeZG42N1sGeTRoTrQBdgVs8KZjX/uRL+o7G5OpA0U06q+GmHXfc0V1U9b0O+uJJ+5SbdLOheobgaOrFBQsWGF3gGU8KXHWR4MUXX1y236heClpHc6Gqe+ChbatejbppkgJK98BfAaXmjv/oRz8ap4gOunUhuYbAuWe2dP2BhoEcdthhI75j3zRiO83+7bF1dZ8XLVpUNiWn9rcTTzxxxEGmvqe/C3W0XH755SPGwessl2YfInB3dcfO+/Jfu7FT97FV0xoCd9M1s+VtNva1fBEbXkD1Qrr/wLqFUFCqXmWN5/7+978f9cbr4rI80kMPPVQ2+4y2o+DHDdrt9hWk6GI/9TqNNn3sYx8rC9ptntqOrwz6R3G04+vtNkbz3Kyy+3q/fcNbFJj7Ak1bZ12A6iYdELg9tDpAqidwd/PO8r0OHt2g3eavqUv3339/+3bTs3rkkw5kNq1U5YXvwlHNKNOIpOtKfPeC0H6Y9JuiKQs13lpnzNykv31fatR2mv3b46u7ett9f0s6U5N0XYDOtvgOgHQwHT/A9m2PZeEK0OMebtsGXbPeAXrcfQ2s4F09p7pLYnxGDd+6Gs6gIF4PfUcXp6adhcaXn7vM7YnT5/rH/uMfr3wNhYI5jet1gzw3/2rvP/GJT1RcRUMhfKmam+87WS9rVtllov0hnt54o3waWTcwV8+sglebfOOcderf7dHVftdq6dBDD61YJJ2x8qXR7jdxP5u/hqlUSjozJde0ScOFfEN63DsnKz8d3Faz0HAoBfe33HLLiCJouJs6BNxe4UZtp9m/PSMw/vRGQ4vc/V+/ddUmBdCBon7P49cJ6YyX6ljPnPy+srGsWAIE7sVqr/pL21m6YUi//0Y9ZZn2rTCmq/xix7L1mrhgXEflf9CaWLSmb1q9hQrANdWaxt6mCSg09linvTW0QKfG1bM42qQp89ykqe0UvLdC8vUUqlyVepJbodwqQ15l1xhb3YgrHkT6hre4PYcKIDRMywYmCtwU3Md7031nMrQ/FC0lTSupA+FGJx0g3XPPPak3O3PmTG/g7rv2QAcoaXr81fYaAuL+3aj93cC9Udtpxd8e3xkZ7f9phldp8gH3YEQH1ATuqXf9oFYkcA+qOStUprN0OjNl4D7c95ZpM3tUyKz5H01ozBnk5le0zhKoJ0fju3WaVT096kVV4KSemqSkoMvOy61T4L6ZapK+6y7XaVzfAUMjZ8hwy+S+942L1jo2+HTXb6X3eZVdB2xq9/hsMhpepQDRzjqj1/ELe9UrrPHOCubjAZNuKhMP3N1ZU+xFj63kmqYsOrvgS74Zdnzr1bIsjzzd7WsqVN+FsWkvilXgqYtW3aDcPWPWqO206m+P66F20EGg6+a2j977DqAYKuOTGhvLCNzHRjsb0725MRtSjmV+/0FjZlQeZtBstgld9LinaQP94Gsstx7qBdUtz3UKW8FXUhCvf2DV+37OOefU3TueNDNMpRvzpKkP6+QvoDs1xgN3bVG9fTZw18FdPKkXV8G+htnEA/d4r7zGb7tTfOo6htEcHMbLEMJrX3AWnzknrzrG2yy+DbVr2qQzQG4A6v4GNGo77nZtHZr526OL3n1t+cADD9Q9lajvmghbV57DFuDi1LDbd1Pt2ian70EfXnX3pu+16ovNpxK419o26k3VeFTdmOWCCy6IxlYmzVihf2Q1A029yZ3CzOajMwGk1hbYYYcdygoYH+fuzvijgF1Jw2ziSYG6AhYlBf5u4OK7EDb+/bH22jdkQj3u8bMbromGnWm6St8j7YxRSUN8ahnS5jvocPN139u6ZL2dVvzt8Z3RsPWv95nAvV654n+PHvfit2GqGrRN3sukuZxzYLjNXLKi15zWu9pM6+5Jlbe70ukH1ndH00deGTRPv5FufvbZ0znmdN1rea9TtEceeWQUyN98881lFyQqL03lqIskswy20wYTtdSFdbMV0PAWXXQYD7TsMBednrev7VZtwK7v9fT0RHd31GcacqTZZ9SrrjM8bkq6yNNdb6y8T7puQUPckj6zZ9N8RhdeeOGmAyff53ZZ0gWwmqYwbfINL3OXNWo7SWVu5m9P0tnNpLKmWd6IYVRpysE6jRcgcG+8eVO22NYzck5iXyFWDnabb6w5wDw+MMOMf2GhOWvXE32rVV127hH1DUD/ymUjbzRRaUNbz6DHvZJP2s80y8Qpp5wS3eTDvaGOenQ0LCJpOrhK20gK9t0L2CrlwWfNEdAY7q222iqav92WQAG7etA1zCoeMChQj8+provt4nP3a5/SLELu0BsFUfXMsW7LE+Jz0tAU2e2xR/ozprXaJPV4xw/cquXpnk3R+m7g36jttOJvT1Ld1YFS7wFF0sFctbbi8+ILELgXvw1T1aBtSulmKN1blabMKJ/aTRk83LeZ+eaa/c2q4e4ov6uW32pO3/lTprujviA8VaFiK63rHTaPv5qut11f22Nr/wVisSzHxEvNGuO76ZIuSrVDGNJAaCYaN3DX9+xQhzR5xNdJmpVm9erV8dV43aICCsDd/UHTDrrL3H1MN2qKB+4aYqNhAu7MNLpIOSnAalGS3IulMxYK4tzeWbkfddRRuW0/abichuiknfXH93ftBquN2k4r/vYkzUQ0f/786MLu3BqXjIMUYLxBkM3qr1Tbhz7l/eDn63c0F6yevylo10pvbXjHXPzUtd7181j4m2X9ZijNWJ7SxmdMajOzZ7Drqh3Ug60xx+6j1oA7aQaJenvI1RPru8W8O8wij32JPEcv4N4pVTlqOjt3Srv4rDFaR9OQxgM29cTqArz4HNRaj/HtUhiZdCDjm3VJBz36+84r6W9fQ6Pc5J4lcT+Pv/fdvMm9iVqjttOKvz06aIn/XVi7Woztd3hGgOhnDO0DbbNOHlHbdUOd5uurDzAXrt/NDJUmgHTTpU9fb55//xV3cebv1dv+i/v7U+e73/b0tluspIA7PqOHXbfSc9LFU74L5irlE/9MU8S5yZ2L2P2c960hoP3KDbyeffbZEXN1K9hz7/ioHmPNShNPS5cujb+NXrsBf9kKY3SBb0iMxoqP5kLxNJSbb16adcxJ7tkV5+NNb3Udg3tgpg/tLESbViy9aNR2WvG3x/dbrbMpXGQa30N4nUaAwD2NUiDrtM843AxM2DmqzXMDU8zZ7x1qFvdtmVi7/qEB85V7vmfeK12ommf68R19ZnX64e3m8N0J3G17qOfSdxpWc2j7bnhjv+c+u3fLtJ+r96re5AZwykdTTfqG9sS3oZv/+OY8jq/D6/wF3F5xdxyz2tc3PtcNyt2DQvUsu+vkUZv4WPw88s8jT11P4hvqob/l2267LY9NRnn6ZhLSWTsNxauWHnywNH2wk3TA77sLc6O204q/Pe6wMpFp6srFixc7ev63ui/GNddcY5i/3e8zlpYSuI+l1i7Vdf0WXzS3btzafOm9Q8xrQ5Or1v6NdSvMV+/5Z7O2b13VdetZ4bql/eaWR5NvCuTmObU0m+D+9LiPYNlzzz1HvNcbjZO96qqropvilH3oLNAFqA899JCz1Bjd5MfOGFL2YYoFCkJ8N6tZuHBh2cWK8ex+85vflM1cEv+c140R8AUa8S37gjB9rl5j98LE+Pdmz54df5vJa98BhG/cdSYbyzETTat4yCGHeLdw//33mxtvvHHEbD/eFUsLdTdVHSSnTXPnzvVec3D77beXXZ8Qz/Ouu+7yDuPRhce+axgatZ1W/O3RDEC+4YNqV99ZqbizDqKuuOKK6PqRyy67zPiGJsXX53XYAgTuYbdvWe0mb/vfzH8OfdL0mvTXJT/2zjPmS4u+ad5an/4fgrINexZc9/t+c+HtfZ5PkhedVppqsqO9fFhP8jfC/+TQQw81vpuLqGfm5z//ubnyyivNsmXLRvxDrt4b9bJfffXVUYDvO12r2UI0P3S9Sd/1jZXWafVLL73U3H333Zt6jzSWXjeHuvjii6v2yNdbHr5Xm4AO2nwHXspFy3fffXdvhgrYKgXnaS949GaesNAXJGoGHB2Qal/XhZa1nIFK2ExDFiu43WmnnbzbUn1+/OMfm1tvvdU899xzUQCn2V80448OwDWk5kc/+pHRwbHOXLkpaUpGDXvSBepuUo+w/lbvu+++EXdX1c2W9Nuhv2E3qbddMwn5UqO204q/PRrjruDdTWondVbopnfuUEKNgVdb/+xnPzP2XgpqawXvtV7H5G6X98UVSB+9FbeOlDwm0NU53nxl3y+Yr933L7Gl1V8+//6r5vO//Zr52kfPMUdte1D1L1RYY33/BvPvC983v314SoW1yj+aOaXNnLh/+rmFy3MIc4l66U488cSoR8YdlqCed41B1UNJ/3CrJ933j3pcR//AfvKTn4wvquv10UcfHfXIuTdF0fs777zTqMdOvbMahuHO+1zXBvlSZgLqHdSYZBswxDPWdJG+IR12HR30veS5oFL7n+9gzn6v3meV0525Rgej6qHWQ0kXfp5//vn1bqKh3zvhhBOig27fxdw6IK/njps62NJBflLSPRs03757fYwOtNXzvmjRoqgXXb8d+vv1/b2qfY844ghvR4LdbqO204q/PZrtSweQOuiKJ1k+9dRT0UMHPnrogMzXoaLvaRiY7yxTPE9ehytAj3u4bZtYs8O2nmsO3GLvxM+TPlhVGuv+v+7/v+ZvFv+jeeztZ5JWS1zeO9hnrn3+dvOZmy8w1636+9J4+ycS1/V9cPah40xXJ73tPhuNRz7jjDPKLih019U/ENWCdvUMnXzyySZpXmk3z0rvdYHjMccck/iPjMqjf5zcICCpZ7DStvgsewHfWGFtpdrNkzRcRgeIbtL+oBsyZZ323nvv6KA063yblZ8Omj7/+c+nno6xWjl1RuKkk06qOh+8OgB8F1Eqf/1uqAdenQPu36s+19+s7sw8b948va2YGrGdVv3tUd0rnXXS2UcN80oK2tWWuvfGaM6GVmwcPmx5gfJf1pYvMgXMQuDr+51rJo2r7/bzv/vjMnPOwm+Ys27/e3PFMzeaZ1a96P0hVznf3rDK3P36780/Lf2JWfDrL5nvlp7f2fieGWxfa9Zv+X3TO/3XpTu6Vp8Hcs7MNnP0XpwgqtT2CrLOO++86IZJlcYYV8pD/6AoYMjy4sG99trLHHfccd4p53xl0WwUSUMFfOuzLD8B3zh2BWhJw2RsSRRU+GYQcS94teuP9lnl1H4WUlLw/oUvfCEadqIzYPUk9crqIEq/C+4MQL78dFOfM888M7q2pZaDZ5VvwYIFRr3caVKjttOKvz1qVxlraFLSULQkQ+3n55xzTsWhaEnfZXk4AkRC4bRlTTXZevIW5tvz/of56r3fq+l78ZWfevc5o4fS+I5us9n4qWZ66dFe+m91X2lcad+ayjPStA2b3hnXmsHu582EFX9l2oYmxbPf9Fp97F/+RLdpLwUMpMoC6i0//vjjzUEHHRRd8KRTsrpIrdIMG/pHV8Gy/pHzTUdXeYvpPlWPqII2nXLXNHO+3iQNvdA/ZgcffHA0ftbN2deD667D+2wFNKxF+1R8qJOm2vMF5e6WNVzGnae6Wk+9m0ct79WTqbJq1iLf/lVLIFrLdvNe9/DDD4/GRmt4jKbk1BhnX4+3LYeCdZ0tk7Uu0vRNjWjX9T3L8PTTT4+2pQsnNbTDnVHIfk9/s7oQVX+ztd7Js1HbacXfHgXs6szQ752uH9CwMt+UmnLWuhqaprbcd9/SjRRJY16grfQDV727c8wzVQbQj6h9KEDSKUX9w6ELojRGUUFUq6b/fOJK89Mnr2p68dr6Z5qJb15gOvq2KyvLl4/sMifPZWx7GUzKBRoTq398NROBvaGSxsXrH06N+00aDpEy+5pXUxCoAETl0t+JTv2qHAr0bLrkkkvKLtRSIHLWWWfZVXhGwCugAEgXpmpKUf0W68BUF29r/6m359q7oSYt1N+NxqLr3xf9PevfHp1hU0+uznTo71l/31kljbXWfOMavmGvodG2NKSm0pCPWrffiO208m+POjTefvvtyFgHSmpDteecOXMqXk9Sq3NW62vmIh1Q6IBNZdUBhjpXdIBsH1lti3xGCtDjPtJjzL07d/dTo9libnhxUVPrPjxupVk3+x/M+LfPNF1r/nwB1Qn7dxK0j7JlNM+7b673UWZb99d1wKBesEpJ/4C5ScECCYFqAtpP9tlnn2qrFfZz/S37poDNq0I62Kk2NCqLbTdiO63826OOi3jnRRam5BGmAGPcw2zX1LXSkfE3D/iyOWXHBam/k9uK7f1m46yfmQ0zLyqNeu8383fqMP/9qOx6jnIrNxlXFbj55ptTT1/2yCOPRBfBuZn67sTorsN7BBBAIC7Ab09cg9chCBC4h9CKo6yDgve/2+9L5qxdThhlTtl8vb/nbrPrvtebb5zAuPZsRJubi6Z9XLJkSTRdpU65V0oaE+27vbtOxY7mZlCVtslnCCAQpgC/PWG261ivFUNlxvoeEKv/X+/9l2bPD+1svr3kwuji0thHDXtZGh1nzt3jVHPObidxMWrD1PPbkOYmvvfee6MNaEzu5ZdfHt0KXaf6NXOMxkUq6WYijz76aHTDHI11dZMunO3p6XEX8x4BBBDwCvDb42VhYQACBO4BNGKWVfj47Lnmik/uYL71wA/NwyufyjLrqnnN6J5qvvOxvzUHbL5n1XVZoRgCmgkjPm+8Lt7WHVv10IVMGnOqz33Buq2hLixMuhOjXYdnBBBAIC7Ab09cg9chCTBUJqTWzKgum0/czPzkiG+b783/qtl28pYZ5ZqcTXdHlzl1p2PMFQt+QNCezFTIT4499tjEG4UoiNcMIJWCdvWy62ZQle7SWUgYCo0AArkK8NuTKy+ZN1GA6SAzwLdTQeq5aNNBVqv+wNCgueGFheaKZ28yL695o9rqNX0+oXO8OXmHo83ndjm+NAf8tJq+y8rFEdDdFm+77bbodt76+0ibNMOC5qSvdX7otPmzHgIIhC3Ab09+7ct0kPnZVsuZwL2aUIrPQw7c49V/8p3l5qaX7jK3v/I7837p5kr1pMmlu7UeMGtPM2+LvcwntplvpnVPqScbvlNAAc0lv3Tp0ugGTJoT2pc0dGb27NnRDWd0YxcSAgggMFoBfntGK1j+fQL3cpNGLSFwz0B6rATulkr1Ve/7E+88W3osNy+ufj0K5HW3VD2UNF59+vgeM730PKN0N1XdqXVuaez6rtN3MB3tH1yQaPPjeewJ6MZkemiojB3rrp71OaWbjZAQQACBvAT47clGlsA9G8d6cuHi1HrUxvh3NH3knJ7Z0ePT2x8+xjWofj0CulOqHiQEEECgkQL89jRSm23lIcDFqXmokicCCCCAAAIIIIAAAhkLELhnDEp2CCCAAAIIIIAAAgjkIUDgnocqeSKAAAIIIIAAAgggkLEAgXvGoGSHAAIIIIAAAggggEAeAgTueaiSJwIIIIAAAggggAACGQsQuGcMSnYIIIAAAggggAACCOQhQOCehyp5IoAAAggggAACCCCQsQCBe8agZIcAAggggAACCCCAQB4CBO55qJInAggggAACCCCAAAIZCxC4ZwxKdggggAACCCCAAAII5CFA4J6HKnkigAACCCCAAAIIIJCxAIF7xqBkhwACCCCAAAIIIIBAHgIE7nmokicCCCCAAAIIIIAAAhkLELhnDEp2CCCAAAIIIIAAAgjkIUDgnocqeSKAAAIIIIAAAgggkLEAgXvGoGSHAAIIIIAAAggggEAeAgTueaiSJwIIIIAAAggggAACGQsQuGcMSnYIIIAAAggggAACCOQhQOCehyp5IoAAAggggAACCCCQsQCBe8agZIcAAggggAACCCCAQB4CBO55qJInAggggAACCCCAAAIZCxC4ZwxKdggggAACCCCAAAII5CFA4J6HKnkigAACCCCAAAIIIJCxAIF7xqBkhwACCCCAAAIIIIBAHgIE7nmokicCCCCAAAIIIIAAAhkLELhnDEp2CCCAAAIIIIAAAgjkIUDgnocqeSKAAAIIIIAAAoEKtLW1BVqz1q8WgXtObaSdur293XR0dJjBwcGctkK2CCCAAAIIIIBA4wQU0yi+0YMAvnHudksE7lYih2cbvK9evTqH3MkSAQQQQAABBBBorIBiGoL2xprHt0bgHtfI+HVnZ6fR47XXXss4Z7JDAAEEEEAAAQQaL/Dqq6+acePGRcF747fOFgncc9gHbE+7HSrz5ptvmpUrV+awJbJEAAEEEEAAAQQaI6BYRjGN7Zik570x7vGtELjHNTJ4raDdPjS+ffz48dFjyZIl0c6ewSbIAgEEEEAAAQQQaKjAW2+9ZR588EHT3d0dPQjaG8q/aWOdm17xYlQCCtaVhoeHo2fb264dfNKkSWbDhg1m8eLFZvbs2WbHHXc0M2bMiE41RSvzPwQQQAABBBBAoMUE+vv7zbvvvmuee+65aNjvtGnTophGnZLqnLTBu+2wtLFQi1UjqOIQuGfQnNpRbcAe33m1U3d1dUU7eW9vrxkaGjKvv/66Wb58udEfQ19fX/Q9+90MikIWCCCAAAIIIIDAqARsLKOx7HqoA3Lq1Kmmp6fHTJkyJYptNFxGya5rN6j3pPwECNxzsLU7sY5EtcPryFQ7ugJ0faZgfuPGjVHwrmU2cI+/zqFYZIkAAggggAACCCQK2PjFPtsYRnGMDdo1kkBBu+1tT8yMD3IRIHDPkFU7upINxLVTa+dWoD5x4sToMzvuXb3tAwMDUS+8/Y565G3wbvOIvsT/EEAAAQQQQACBnARsoK5nG5DrWTGLAnUF7opj9HAD9/h3cyoe2cYECNxjGKN5qR3XBtvxnVg7vgJ3fWb/CCZMmBD1tusmBvGbMylwtw+b12jKxHcRQAABBBBAAIFqAjZgt0G73ito18N2QCp4V9CumEbL47GOzV/LSPkKELjn5Gt3aBus2x1dfwA2YNezAnQbpNugXcv1moQAAggggAACCOQtoJhF8Yp92MDcBu82gFcMo9fxAD/vspH/SAEC95Eeo3rnHmnaPwRlqtd2x48H6DZo1zp67QbzWk5CAAEEEEAAAQTyFrCBuw3MFbfY+CX+mf1cn8UfeZeP/I0hcM9hL9BOrKQd2wbmWmbfK3DXcvuIF0GfKXgnIYAAAggggAACjRSwsYobmFd738gyjvVttZUukvxg4vGxLpFh/W2wHg/M7Wv32d2sDerd5bxHAAEEEEAAAQTyFoj3oCe9VhnsZ/Z13uUi/w8E6HHPYU/QzmyTXitYt89aboN3u078udJn8fV4jQACCCCAAAII5CHgBuU2rkl6zqMM5OkXIHD3u2Sy1O7gNjO9t0G8luk1CQEEEEAAAQQQaEWBeByT9LoVyx1ymQjcG9C68Z09vrmk5fF1eI0AAggggAACCDRbgJil2S3wwfYJ3BvcDuz4DQZncwgggAACCCCAQCAC7YHUg2oggAACCCCAAAIIIBC0AIF70M1L5RBAAAEEEEAAAQRCESBwD6UlqQcCCCCAAAIIIIBA0AIE7kE3L5VDAAEEEEAAAQQQCEWAwD2UlqQeCCCAAAIIIIAAAkELELgH3bxUDgEEEEAAAQQQQCAUAQL3UFqSeiCAAAIIIIAAAggELUDgHnTzUjkEEEAAAQQQQACBUAQI3ENpSeqBAAIIIIAAAgggELQAgXvQzUvlEEAAAQQQQAABBEIRIHAPpSWpBwIIIIAAAggggEDQAgTuQTcvlUMAAQQQQAABBBAIRYDAPZSWpB4IIIAAAggggAACQQsQuAfdvFQOAQQQQAABBBBAIBQBAvdQWpJ6IIAAAggggAACCAQtQOAedPNSOQQQQAABBBBAAIFQBAjcQ2lJ6oEAAggggAACCCAQtACBe9DNS+UQQAABBBBAAAEEQhEgcA+lJakHAggggAACCCCAQNACBO5BNy+VQwABBBBAAAEEEAhFgMA9lJakHggggAACCCCAAAJBCxC4B928VA4BBBBAAAEEEEAgFAEC91BaknoggAACCCCAAAIIBC1A4B5081I5BBBAAAEEEEAAgVAECNxDaUnqgQACCCCAAAIIIBC0AIF70M1L5RBAAAEEEEAAAQRCESBwD6UlqQcCCCCAAAIIIIBA0AIE7kE3L5VDAAEEEEAAAQQQCEWAwD2UlqQeCCCAAAIIIIAAAkELELgH3bxUDgEEEEAAAQQQQCAUAQL3UFqSeiCAAAIIIIAAAggELUDgHnTzUjkEEEAAAQQQQACBUAQI3ENpSeqBAAIIIIAAAgggELQAgXvQzUvlEEAAAQQQQAABBEIRIHAPpSWpBwIIIIAAAggggEDQAgTuQTcvlUMAAQQQQAABBBAIRYDAPZSWpB4IIIAAAggggAACQQsQuAfdvFQOAQQQQAABBBBAIBQBAvdQWpJ6IIAAAggggAACCAQtQOAedPNSOQQQQAABBBBAAIFQBAjcQ2lJ6oEAAggggAACCCAQtACBe9DNS+UQQAABBBBAAAEEQhEgcA+lJakHAggggAACCCCAQNACBO5BNy+VQwABBBBAAAEEEAhFgMA9lJakHggggAACCCCAAAJBCxC4B928VA4BBBBAAAEEEEAgFAEC91BaknoggAACCCCAAAIIBC1A4B5081I5BBBAAAEEEEAAgVAECNxDaUnqgQACCCCAAAIIIBC0AIF70M1L5RBAAAEEEEAAAQRCESBwD6UlqQcCCCCAAAIIIIBA0AIE7kE3L5VDAAEEEEAAAQQQCEWAwD2UlqQeCCCAAAIIIIAAAkELELgH3bxUDgEEEEAAAQQQQCAUAQL3UFqSeiCAAAIIIIAAAggELUDgHnTzUjkEEEAAAQQQQACBUAQI3ENpSeqBAAIIIIAAAgggELQAgXvQzUvlEEAAAQQQQAABBEIRIHAPpSWpBwIIIIAAAggggEDQAgTuQTcvlUMAAQQQQAABBBAIRYDAPZSWpB4IIIAAAggggAACQQsQuAfdvFQOAQQQQAABBBBAIBQBAvdQWpJ6IIAAAggggAACCAQtQOAedPNSOQQQQAABBBBAAIFQBAjcQ2lJ6oEAAggggAACCCAQtACBe9DNS+UQQAABBBBAAAEEQhEgcA+lJakHAggggAACCCCAQNACBO5BNy+VQwABBBBAAAEEEAhFgMA9lJakHggggAACCCCAAAJBCxC4B928VA4BBBBAAAEEEEAgFAEC91BaknoggAACCCCAAAIIBC1A4B5081I5BBBAAAEEEEAAgVAECNxDaUnqgQACCCCAAAIIIBC0AIF70M1L5RBAAAEEEEAAAQRCESBwD6UlqQcCCCCAAAIIIIBA0AIE7kE3L5VDAAEEEEAAAQQQCEWAwD2UlqQeCCCAAAIIIIAAAkELELgH3bxUDgEEEEAAAQQQQCAUAQL3UFqSeiCAAAIIIIAAAggELUDgHnTzUjkEEEAAAQQQQACBUAQI3ENpSeqBAAIIIIAAAgggELQAgXvQzUvlEEAAAQQQQAABBEIRIHAPpSWpBwIIIIAAAggggEDQAgTuQTcvlUMAAQQQQAABBBAIRYDAPZSWpB4IIIAAAggggAACQQsQuAfdvFQOAQQQQAABBBBAIBQBAvdQWpJ6IIAAAggggAACCAQtQOAedPNSOQQQQAABBBBAAIFQBP4/7xf7k/uU9a8AAAAASUVORK5CYII=;clipPath=inset(29.84% 14% 34.68% 12.33% round 5%);" parent="1" vertex="1">
          <mxGeometry x="-790" y="360" width="130" height="25.88" as="geometry" />
        </mxCell>
        <mxCell id="NyZ2p4l8XGoLrlmHf86C-14" value="" style="rounded=0;whiteSpace=wrap;html=1;imageAspect=0;" parent="1" vertex="1">
          <mxGeometry x="-560" y="40" width="190" height="370" as="geometry" />
        </mxCell>
        <mxCell id="NyZ2p4l8XGoLrlmHf86C-15" value="Registration" style="rounded=0;whiteSpace=wrap;html=1;" parent="1" vertex="1">
          <mxGeometry x="-560" y="40" width="190" height="40" as="geometry" />
        </mxCell>
        <mxCell id="NyZ2p4l8XGoLrlmHf86C-16" value="Name:" style="text;html=1;strokeColor=none;fillColor=none;align=center;verticalAlign=middle;whiteSpace=wrap;rounded=0;" parent="1" vertex="1">
          <mxGeometry x="-550" y="90" width="60" height="30" as="geometry" />
        </mxCell>
        <mxCell id="NyZ2p4l8XGoLrlmHf86C-17" value="" style="rounded=0;whiteSpace=wrap;html=1;" parent="1" vertex="1">
          <mxGeometry x="-540" y="120" width="160" height="20" as="geometry" />
        </mxCell>
        <mxCell id="NyZ2p4l8XGoLrlmHf86C-29" value="Email:" style="text;html=1;strokeColor=none;fillColor=none;align=center;verticalAlign=middle;whiteSpace=wrap;rounded=0;" parent="1" vertex="1">
          <mxGeometry x="-550" y="150" width="60" height="30" as="geometry" />
        </mxCell>
        <mxCell id="NyZ2p4l8XGoLrlmHf86C-30" value="" style="rounded=0;whiteSpace=wrap;html=1;" parent="1" vertex="1">
          <mxGeometry x="-540" y="180" width="160" height="20" as="geometry" />
        </mxCell>
        <mxCell id="NyZ2p4l8XGoLrlmHf86C-31" value="Password:" style="text;html=1;strokeColor=none;fillColor=none;align=center;verticalAlign=middle;whiteSpace=wrap;rounded=0;" parent="1" vertex="1">
          <mxGeometry x="-540" y="210" width="60" height="30" as="geometry" />
        </mxCell>
        <mxCell id="NyZ2p4l8XGoLrlmHf86C-32" value="" style="rounded=0;whiteSpace=wrap;html=1;" parent="1" vertex="1">
          <mxGeometry x="-540" y="240" width="160" height="20" as="geometry" />
        </mxCell>
        <mxCell id="NyZ2p4l8XGoLrlmHf86C-35" value="Confirm Password:" style="text;html=1;strokeColor=none;fillColor=none;align=center;verticalAlign=middle;whiteSpace=wrap;rounded=0;" parent="1" vertex="1">
          <mxGeometry x="-550" y="270" width="120" height="30" as="geometry" />
        </mxCell>
        <mxCell id="NyZ2p4l8XGoLrlmHf86C-36" value="" style="rounded=0;whiteSpace=wrap;html=1;" parent="1" vertex="1">
          <mxGeometry x="-540" y="300" width="160" height="20" as="geometry" />
        </mxCell>
        <mxCell id="NyZ2p4l8XGoLrlmHf86C-37" value="Register" style="rounded=1;whiteSpace=wrap;html=1;" parent="1" vertex="1">
          <mxGeometry x="-500" y="340" width="70" height="20" as="geometry" />
        </mxCell>
        <mxCell id="NyZ2p4l8XGoLrlmHf86C-38" value="" style="rounded=0;whiteSpace=wrap;html=1;imageAspect=0;" parent="1" vertex="1">
          <mxGeometry x="-310" y="40" width="190" height="370" as="geometry" />
        </mxCell>
        <mxCell id="NyZ2p4l8XGoLrlmHf86C-39" value="crop diseases" style="rounded=0;whiteSpace=wrap;html=1;" parent="1" vertex="1">
          <mxGeometry x="-310" y="40" width="190" height="40" as="geometry" />
        </mxCell>
        <mxCell id="NyZ2p4l8XGoLrlmHf86C-40" value="image" style="rounded=0;whiteSpace=wrap;html=1;" parent="1" vertex="1">
          <mxGeometry x="-310" y="110" width="80" height="80" as="geometry" />
        </mxCell>
        <mxCell id="NyZ2p4l8XGoLrlmHf86C-41" value="Name of plant" style="text;html=1;strokeColor=none;fillColor=none;align=left;verticalAlign=middle;whiteSpace=wrap;rounded=0;" parent="1" vertex="1">
          <mxGeometry x="-220" y="110" width="100" height="30" as="geometry" />
        </mxCell>
        <mxCell id="NyZ2p4l8XGoLrlmHf86C-42" value="Name of desease" style="text;html=1;strokeColor=none;fillColor=none;align=left;verticalAlign=middle;whiteSpace=wrap;rounded=0;" parent="1" vertex="1">
          <mxGeometry x="-220" y="135" width="100" height="30" as="geometry" />
        </mxCell>
        <mxCell id="NyZ2p4l8XGoLrlmHf86C-43" value="Description" style="text;html=1;strokeColor=none;fillColor=none;align=left;verticalAlign=middle;whiteSpace=wrap;rounded=0;" parent="1" vertex="1">
          <mxGeometry x="-220" y="160" width="100" height="30" as="geometry" />
        </mxCell>
        <mxCell id="NyZ2p4l8XGoLrlmHf86C-44" value="image" style="rounded=0;whiteSpace=wrap;html=1;" parent="1" vertex="1">
          <mxGeometry x="-310" y="185" width="80" height="80" as="geometry" />
        </mxCell>
        <mxCell id="NyZ2p4l8XGoLrlmHf86C-45" value="Name of plant" style="text;html=1;strokeColor=none;fillColor=none;align=left;verticalAlign=middle;whiteSpace=wrap;rounded=0;" parent="1" vertex="1">
          <mxGeometry x="-220" y="185" width="100" height="30" as="geometry" />
        </mxCell>
        <mxCell id="NyZ2p4l8XGoLrlmHf86C-46" value="Name of desease" style="text;html=1;strokeColor=none;fillColor=none;align=left;verticalAlign=middle;whiteSpace=wrap;rounded=0;" parent="1" vertex="1">
          <mxGeometry x="-220" y="210" width="100" height="30" as="geometry" />
        </mxCell>
        <mxCell id="NyZ2p4l8XGoLrlmHf86C-47" value="Description" style="text;html=1;strokeColor=none;fillColor=none;align=left;verticalAlign=middle;whiteSpace=wrap;rounded=0;" parent="1" vertex="1">
          <mxGeometry x="-220" y="235" width="100" height="30" as="geometry" />
        </mxCell>
        <mxCell id="NyZ2p4l8XGoLrlmHf86C-48" value="image" style="rounded=0;whiteSpace=wrap;html=1;" parent="1" vertex="1">
          <mxGeometry x="-310" y="260" width="80" height="80" as="geometry" />
        </mxCell>
        <mxCell id="NyZ2p4l8XGoLrlmHf86C-49" value="Name of plant" style="text;html=1;strokeColor=none;fillColor=none;align=left;verticalAlign=middle;whiteSpace=wrap;rounded=0;" parent="1" vertex="1">
          <mxGeometry x="-220" y="260" width="100" height="30" as="geometry" />
        </mxCell>
        <mxCell id="NyZ2p4l8XGoLrlmHf86C-50" value="Name of desease" style="text;html=1;strokeColor=none;fillColor=none;align=left;verticalAlign=middle;whiteSpace=wrap;rounded=0;" parent="1" vertex="1">
          <mxGeometry x="-220" y="290" width="100" height="30" as="geometry" />
        </mxCell>
        <mxCell id="NyZ2p4l8XGoLrlmHf86C-51" value="Description" style="text;html=1;strokeColor=none;fillColor=none;align=left;verticalAlign=middle;whiteSpace=wrap;rounded=0;" parent="1" vertex="1">
          <mxGeometry x="-220" y="315" width="100" height="30" as="geometry" />
        </mxCell>
        <mxCell id="NyZ2p4l8XGoLrlmHf86C-52" value="" style="rounded=0;whiteSpace=wrap;html=1;imageAspect=0;" parent="1" vertex="1">
          <mxGeometry x="-40" y="40" width="190" height="370" as="geometry" />
        </mxCell>
        <mxCell id="NyZ2p4l8XGoLrlmHf86C-54" value="Description" style="rounded=0;whiteSpace=wrap;html=1;" parent="1" vertex="1">
          <mxGeometry x="-40" y="40" width="190" height="40" as="geometry" />
        </mxCell>
        <mxCell id="NyZ2p4l8XGoLrlmHf86C-55" value="image" style="rounded=0;whiteSpace=wrap;html=1;" parent="1" vertex="1">
          <mxGeometry x="-40" y="80" width="190" height="80" as="geometry" />
        </mxCell>
        <mxCell id="NyZ2p4l8XGoLrlmHf86C-56" value="Name of plant" style="text;html=1;strokeColor=none;fillColor=none;align=left;verticalAlign=middle;whiteSpace=wrap;rounded=0;" parent="1" vertex="1">
          <mxGeometry x="-40" y="160" width="100" height="30" as="geometry" />
        </mxCell>
        <mxCell id="NyZ2p4l8XGoLrlmHf86C-57" value="Name of desease" style="text;html=1;strokeColor=none;fillColor=none;align=left;verticalAlign=middle;whiteSpace=wrap;rounded=0;" parent="1" vertex="1">
          <mxGeometry x="-40" y="190" width="100" height="30" as="geometry" />
        </mxCell>
        <mxCell id="NyZ2p4l8XGoLrlmHf86C-58" value="Description" style="text;html=1;strokeColor=none;fillColor=none;align=left;verticalAlign=middle;whiteSpace=wrap;rounded=0;" parent="1" vertex="1">
          <mxGeometry x="-40" y="220" width="100" height="30" as="geometry" />
        </mxCell>
        <mxCell id="NyZ2p4l8XGoLrlmHf86C-59" value="" style="rounded=0;whiteSpace=wrap;html=1;imageAspect=0;" parent="1" vertex="1">
          <mxGeometry x="235" y="40" width="190" height="370" as="geometry" />
        </mxCell>
        <mxCell id="NyZ2p4l8XGoLrlmHf86C-60" value="Take Image" style="rounded=0;whiteSpace=wrap;html=1;" parent="1" vertex="1">
          <mxGeometry x="235" y="40" width="190" height="40" as="geometry" />
        </mxCell>
        <mxCell id="NyZ2p4l8XGoLrlmHf86C-61" value="Take image" style="rounded=0;whiteSpace=wrap;html=1;" parent="1" vertex="1">
          <mxGeometry x="270" y="260" width="120" height="30" as="geometry" />
        </mxCell>
        <mxCell id="NyZ2p4l8XGoLrlmHf86C-62" value="import from Gallery" style="rounded=0;whiteSpace=wrap;html=1;" parent="1" vertex="1">
          <mxGeometry x="270" y="303" width="120" height="27" as="geometry" />
        </mxCell>
        <mxCell id="NyZ2p4l8XGoLrlmHf86C-63" value="" style="sketch=0;outlineConnect=0;fontColor=#232F3E;gradientColor=none;fillColor=#D45B07;strokeColor=none;dashed=0;verticalLabelPosition=bottom;verticalAlign=top;align=center;html=1;fontSize=12;fontStyle=0;aspect=fixed;pointerEvents=1;shape=mxgraph.aws4.container_registry_image;" parent="1" vertex="1">
          <mxGeometry x="306" y="142" width="48" height="48" as="geometry" />
        </mxCell>
        <mxCell id="NyZ2p4l8XGoLrlmHf86C-64" value="Analyse desease" style="rounded=0;whiteSpace=wrap;html=1;" parent="1" vertex="1">
          <mxGeometry x="270" y="340" width="120" height="30" as="geometry" />
        </mxCell>
        <mxCell id="NyZ2p4l8XGoLrlmHf86C-65" value="" style="rounded=0;whiteSpace=wrap;html=1;imageAspect=0;" parent="1" vertex="1">
          <mxGeometry x="500" y="40" width="190" height="370" as="geometry" />
        </mxCell>
        <mxCell id="NyZ2p4l8XGoLrlmHf86C-66" value="Description" style="rounded=0;whiteSpace=wrap;html=1;" parent="1" vertex="1">
          <mxGeometry x="500" y="40" width="190" height="40" as="geometry" />
        </mxCell>
        <mxCell id="NyZ2p4l8XGoLrlmHf86C-67" value="image" style="rounded=0;whiteSpace=wrap;html=1;" parent="1" vertex="1">
          <mxGeometry x="500" y="80" width="190" height="80" as="geometry" />
        </mxCell>
        <mxCell id="NyZ2p4l8XGoLrlmHf86C-68" value="Name of plant" style="text;html=1;strokeColor=none;fillColor=none;align=left;verticalAlign=middle;whiteSpace=wrap;rounded=0;" parent="1" vertex="1">
          <mxGeometry x="500" y="160" width="100" height="30" as="geometry" />
        </mxCell>
        <mxCell id="NyZ2p4l8XGoLrlmHf86C-69" value="Name of desease" style="text;html=1;strokeColor=none;fillColor=none;align=left;verticalAlign=middle;whiteSpace=wrap;rounded=0;" parent="1" vertex="1">
          <mxGeometry x="500" y="190" width="100" height="30" as="geometry" />
        </mxCell>
        <mxCell id="NyZ2p4l8XGoLrlmHf86C-70" value="Description" style="text;html=1;strokeColor=none;fillColor=none;align=left;verticalAlign=middle;whiteSpace=wrap;rounded=0;" parent="1" vertex="1">
          <mxGeometry x="500" y="220" width="100" height="30" as="geometry" />
        </mxCell>
        <mxCell id="NyZ2p4l8XGoLrlmHf86C-71" value="" style="rounded=0;whiteSpace=wrap;html=1;imageAspect=0;" parent="1" vertex="1">
          <mxGeometry x="790" y="40" width="190" height="370" as="geometry" />
        </mxCell>
        <mxCell id="NyZ2p4l8XGoLrlmHf86C-72" value="Discord" style="rounded=0;whiteSpace=wrap;html=1;" parent="1" vertex="1">
          <mxGeometry x="790" y="40" width="190" height="40" as="geometry" />
        </mxCell>
        <mxCell id="NyZ2p4l8XGoLrlmHf86C-73" value="" style="rounded=1;whiteSpace=wrap;html=1;" parent="1" vertex="1">
          <mxGeometry x="800" y="100" width="110" height="60" as="geometry" />
        </mxCell>
        <mxCell id="NyZ2p4l8XGoLrlmHf86C-74" value="" style="rounded=1;whiteSpace=wrap;html=1;" parent="1" vertex="1">
          <mxGeometry x="850" y="185" width="120" height="60" as="geometry" />
        </mxCell>
        <mxCell id="NyZ2p4l8XGoLrlmHf86C-75" value="" style="rounded=1;whiteSpace=wrap;html=1;" parent="1" vertex="1">
          <mxGeometry x="795" y="287" width="120" height="60" as="geometry" />
        </mxCell>
        <mxCell id="hFKQsJj4q3h-JBFIqgF7-1" value="search...." style="rounded=0;whiteSpace=wrap;html=1;align=left;" parent="1" vertex="1">
          <mxGeometry x="-310" y="78" width="190" height="28" as="geometry" />
        </mxCell>
        <mxCell id="hFKQsJj4q3h-JBFIqgF7-2" value="" style="image;aspect=fixed;html=1;points=[];align=center;fontSize=12;image=img/lib/azure2/general/Search.svg;" parent="1" vertex="1">
          <mxGeometry x="-150" y="86" width="19.69" height="20" as="geometry" />
        </mxCell>
        <mxCell id="hFKQsJj4q3h-JBFIqgF7-3" value="Recomendation" style="text;html=1;strokeColor=none;fillColor=none;align=left;verticalAlign=middle;whiteSpace=wrap;rounded=0;" parent="1" vertex="1">
          <mxGeometry x="-40" y="250" width="100" height="30" as="geometry" />
        </mxCell>
        <mxCell id="hFKQsJj4q3h-JBFIqgF7-4" value="Recomendation" style="text;html=1;strokeColor=none;fillColor=none;align=left;verticalAlign=middle;whiteSpace=wrap;rounded=0;" parent="1" vertex="1">
          <mxGeometry x="500" y="250" width="100" height="30" as="geometry" />
        </mxCell>
        <mxCell id="hFKQsJj4q3h-JBFIqgF7-5" value="" style="rounded=0;whiteSpace=wrap;html=1;imageAspect=0;" parent="1" vertex="1">
          <mxGeometry x="1060" y="40" width="190" height="370" as="geometry" />
        </mxCell>
        <mxCell id="hFKQsJj4q3h-JBFIqgF7-6" value="Profil" style="rounded=0;whiteSpace=wrap;html=1;" parent="1" vertex="1">
          <mxGeometry x="1060" y="40" width="190" height="40" as="geometry" />
        </mxCell>
        <mxCell id="hFKQsJj4q3h-JBFIqgF7-7" value="" style="rounded=0;whiteSpace=wrap;html=1;" parent="1" vertex="1">
          <mxGeometry x="-310" y="380" width="190" height="30" as="geometry" />
        </mxCell>
        <mxCell id="hFKQsJj4q3h-JBFIqgF7-8" value="Home" style="rounded=0;whiteSpace=wrap;html=1;" parent="1" vertex="1">
          <mxGeometry x="-310" y="380" width="40" height="30" as="geometry" />
        </mxCell>
        <mxCell id="hFKQsJj4q3h-JBFIqgF7-9" value="Detect" style="rounded=0;whiteSpace=wrap;html=1;" parent="1" vertex="1">
          <mxGeometry x="-270" y="380" width="50" height="30" as="geometry" />
        </mxCell>
        <mxCell id="hFKQsJj4q3h-JBFIqgF7-10" value="Discord" style="rounded=0;whiteSpace=wrap;html=1;" parent="1" vertex="1">
          <mxGeometry x="-220" y="380" width="50" height="30" as="geometry" />
        </mxCell>
        <mxCell id="hFKQsJj4q3h-JBFIqgF7-11" value="profil" style="rounded=0;whiteSpace=wrap;html=1;" parent="1" vertex="1">
          <mxGeometry x="-170" y="380" width="50" height="30" as="geometry" />
        </mxCell>
        <mxCell id="hFKQsJj4q3h-JBFIqgF7-17" value="" style="rounded=0;whiteSpace=wrap;html=1;" parent="1" vertex="1">
          <mxGeometry x="235" y="380" width="190" height="30" as="geometry" />
        </mxCell>
        <mxCell id="hFKQsJj4q3h-JBFIqgF7-18" value="Home" style="rounded=0;whiteSpace=wrap;html=1;" parent="1" vertex="1">
          <mxGeometry x="235" y="380" width="40" height="30" as="geometry" />
        </mxCell>
        <mxCell id="hFKQsJj4q3h-JBFIqgF7-19" value="Detect" style="rounded=0;whiteSpace=wrap;html=1;" parent="1" vertex="1">
          <mxGeometry x="275" y="380" width="50" height="30" as="geometry" />
        </mxCell>
        <mxCell id="hFKQsJj4q3h-JBFIqgF7-20" value="Discord" style="rounded=0;whiteSpace=wrap;html=1;" parent="1" vertex="1">
          <mxGeometry x="325" y="380" width="50" height="30" as="geometry" />
        </mxCell>
        <mxCell id="hFKQsJj4q3h-JBFIqgF7-21" value="profil" style="rounded=0;whiteSpace=wrap;html=1;" parent="1" vertex="1">
          <mxGeometry x="375" y="380" width="50" height="30" as="geometry" />
        </mxCell>
        <mxCell id="hFKQsJj4q3h-JBFIqgF7-23" value="" style="rounded=0;whiteSpace=wrap;html=1;" parent="1" vertex="1">
          <mxGeometry x="790" y="380" width="190" height="30" as="geometry" />
        </mxCell>
        <mxCell id="hFKQsJj4q3h-JBFIqgF7-24" value="Home" style="rounded=0;whiteSpace=wrap;html=1;" parent="1" vertex="1">
          <mxGeometry x="790" y="380" width="40" height="30" as="geometry" />
        </mxCell>
        <mxCell id="hFKQsJj4q3h-JBFIqgF7-25" value="Detect" style="rounded=0;whiteSpace=wrap;html=1;" parent="1" vertex="1">
          <mxGeometry x="830" y="380" width="50" height="30" as="geometry" />
        </mxCell>
        <mxCell id="hFKQsJj4q3h-JBFIqgF7-26" value="Discord" style="rounded=0;whiteSpace=wrap;html=1;" parent="1" vertex="1">
          <mxGeometry x="880" y="380" width="50" height="30" as="geometry" />
        </mxCell>
        <mxCell id="hFKQsJj4q3h-JBFIqgF7-27" value="profil" style="rounded=0;whiteSpace=wrap;html=1;" parent="1" vertex="1">
          <mxGeometry x="930" y="380" width="50" height="30" as="geometry" />
        </mxCell>
        <mxCell id="hFKQsJj4q3h-JBFIqgF7-28" value="" style="rounded=0;whiteSpace=wrap;html=1;" parent="1" vertex="1">
          <mxGeometry x="1060" y="380" width="190" height="30" as="geometry" />
        </mxCell>
        <mxCell id="hFKQsJj4q3h-JBFIqgF7-29" value="Home" style="rounded=0;whiteSpace=wrap;html=1;" parent="1" vertex="1">
          <mxGeometry x="1060" y="380" width="40" height="30" as="geometry" />
        </mxCell>
        <mxCell id="hFKQsJj4q3h-JBFIqgF7-30" value="Detect" style="rounded=0;whiteSpace=wrap;html=1;" parent="1" vertex="1">
          <mxGeometry x="1100" y="380" width="50" height="30" as="geometry" />
        </mxCell>
        <mxCell id="hFKQsJj4q3h-JBFIqgF7-31" value="Discord" style="rounded=0;whiteSpace=wrap;html=1;" parent="1" vertex="1">
          <mxGeometry x="1150" y="380" width="50" height="30" as="geometry" />
        </mxCell>
        <mxCell id="hFKQsJj4q3h-JBFIqgF7-32" value="profil" style="rounded=0;whiteSpace=wrap;html=1;" parent="1" vertex="1">
          <mxGeometry x="1200" y="380" width="50" height="30" as="geometry" />
        </mxCell>
        <mxCell id="hFKQsJj4q3h-JBFIqgF7-33" value="" style="rounded=0;whiteSpace=wrap;html=1;" parent="1" vertex="1">
          <mxGeometry x="1130" y="80" width="120" height="250" as="geometry" />
        </mxCell>
        <mxCell id="hFKQsJj4q3h-JBFIqgF7-34" value="Notification" style="text;html=1;strokeColor=none;fillColor=none;align=center;verticalAlign=middle;whiteSpace=wrap;rounded=0;" parent="1" vertex="1">
          <mxGeometry x="1178.75" y="160" width="60" height="30" as="geometry" />
        </mxCell>
        <mxCell id="hFKQsJj4q3h-JBFIqgF7-35" value="" style="image;aspect=fixed;perimeter=ellipsePerimeter;html=1;align=center;shadow=0;dashed=0;fontColor=#4277BB;labelBackgroundColor=default;fontSize=12;spacingTop=3;image=img/lib/ibm/management/alert_notification.svg;" parent="1" vertex="1">
          <mxGeometry x="1152.5" y="162.5" width="17.5" height="17.5" as="geometry" />
        </mxCell>
        <mxCell id="hFKQsJj4q3h-JBFIqgF7-37" value="" style="sketch=0;pointerEvents=1;shadow=0;dashed=0;html=1;strokeColor=none;labelPosition=center;verticalLabelPosition=bottom;verticalAlign=top;align=center;fillColor=#505050;shape=mxgraph.mscae.intune.device_history" parent="1" vertex="1">
          <mxGeometry x="1150" y="185" width="20" height="30" as="geometry" />
        </mxCell>
        <mxCell id="hFKQsJj4q3h-JBFIqgF7-38" value="History" style="text;html=1;strokeColor=none;fillColor=none;align=center;verticalAlign=middle;whiteSpace=wrap;rounded=0;" parent="1" vertex="1">
          <mxGeometry x="1178.75" y="190" width="60" height="30" as="geometry" />
        </mxCell>
        <mxCell id="hFKQsJj4q3h-JBFIqgF7-40" value="Log out" style="rounded=0;whiteSpace=wrap;html=1;" parent="1" vertex="1">
          <mxGeometry x="1150" y="240" width="80" height="25" as="geometry" />
        </mxCell>
        <mxCell id="Y0ybu_I10Va-6cpI42Gk-4" value="Email" style="text;html=1;strokeColor=none;fillColor=none;align=center;verticalAlign=middle;whiteSpace=wrap;rounded=0;" vertex="1" parent="1">
          <mxGeometry x="1178.75" y="90" width="60" height="30" as="geometry" />
        </mxCell>
        <mxCell id="Y0ybu_I10Va-6cpI42Gk-5" value="Password" style="text;html=1;strokeColor=none;fillColor=none;align=center;verticalAlign=middle;whiteSpace=wrap;rounded=0;" vertex="1" parent="1">
          <mxGeometry x="1178.75" y="127.5" width="60" height="30" as="geometry" />
        </mxCell>
        <mxCell id="Y0ybu_I10Va-6cpI42Gk-6" value="" style="strokeColor=#999999;verticalLabelPosition=bottom;shadow=0;dashed=0;verticalAlign=top;strokeWidth=2;html=1;shape=mxgraph.mockup.misc.editIcon;" vertex="1" parent="1">
          <mxGeometry x="1148.75" y="95" width="21.25" height="20" as="geometry" />
        </mxCell>
        <mxCell id="Y0ybu_I10Va-6cpI42Gk-7" value="" style="strokeColor=#999999;verticalLabelPosition=bottom;shadow=0;dashed=0;verticalAlign=top;strokeWidth=2;html=1;shape=mxgraph.mockup.misc.editIcon;" vertex="1" parent="1">
          <mxGeometry x="1148.75" y="132.5" width="21.25" height="20" as="geometry" />
        </mxCell>
      </root>
    </mxGraphModel>
  </diagram>
</mxfile>
